G04 #@! TF.GenerationSoftware,KiCad,Pcbnew,7.0.1*
G04 #@! TF.CreationDate,2023-05-15T13:56:13-06:00*
G04 #@! TF.ProjectId,H-field_RF_probe,482d6669-656c-4645-9f52-465f70726f62,rev?*
G04 #@! TF.SameCoordinates,Original*
G04 #@! TF.FileFunction,Copper,L2,Inr*
G04 #@! TF.FilePolarity,Positive*
%FSLAX46Y46*%
G04 Gerber Fmt 4.6, Leading zero omitted, Abs format (unit mm)*
G04 Created by KiCad (PCBNEW 7.0.1) date 2023-05-15 13:56:13*
%MOMM*%
%LPD*%
G01*
G04 APERTURE LIST*
G04 #@! TA.AperFunction,NonConductor*
%ADD10C,0.100000*%
G04 #@! TD*
G04 #@! TA.AperFunction,NonConductor*
%ADD11C,1.000000*%
G04 #@! TD*
G04 #@! TA.AperFunction,ComponentPad*
%ADD12R,4.190000X3.000000*%
G04 #@! TD*
G04 #@! TA.AperFunction,ViaPad*
%ADD13C,0.800000*%
G04 #@! TD*
G04 #@! TA.AperFunction,Conductor*
%ADD14C,1.000000*%
G04 #@! TD*
G04 APERTURE END LIST*
D10*
X181000000Y-64000000D02*
X178000000Y-64000000D01*
X178000000Y-63000000D01*
X181000000Y-63000000D01*
X181000000Y-64000000D01*
G04 #@! TA.AperFunction,NonConductor*
G36*
X181000000Y-64000000D02*
G01*
X178000000Y-64000000D01*
X178000000Y-63000000D01*
X181000000Y-63000000D01*
X181000000Y-64000000D01*
G37*
G04 #@! TD.AperFunction*
D11*
X179096755Y-65500000D02*
G75*
G03*
X179532511Y-62748745I8903245J0D01*
G01*
D12*
X102500000Y-68825000D03*
X102500000Y-62175000D03*
D13*
X140000000Y-63500000D03*
X138500000Y-63500000D03*
X102500000Y-63500000D03*
X108500000Y-63500000D03*
X111500000Y-63500000D03*
X129500000Y-63500000D03*
X131000000Y-63500000D03*
X132500000Y-63500000D03*
X134000000Y-63500000D03*
X126500000Y-63500000D03*
X119000000Y-63500000D03*
X117500000Y-63500000D03*
X101000000Y-63500000D03*
X107000000Y-63500000D03*
X125000000Y-63500000D03*
X137000000Y-63500000D03*
X128000000Y-63500000D03*
X116000000Y-63500000D03*
X114500000Y-63500000D03*
X123500000Y-63500000D03*
X105500000Y-63500000D03*
X110000000Y-63500000D03*
X135500000Y-63500000D03*
X113000000Y-63500000D03*
X122000000Y-63500000D03*
X104000000Y-63500000D03*
X120500000Y-63500000D03*
X141500000Y-63500000D03*
X177500000Y-63500000D03*
X176000000Y-63500000D03*
X144500000Y-63500000D03*
X143000000Y-63500000D03*
X147500000Y-63500000D03*
X150500000Y-63500000D03*
X146000000Y-63500000D03*
X149000000Y-63500000D03*
X158000000Y-63500000D03*
X152000000Y-63500000D03*
X152000000Y-63500000D03*
X153500000Y-63500000D03*
X155000000Y-63500000D03*
X156500000Y-63500000D03*
X161000000Y-63500000D03*
X159500000Y-63500000D03*
X162500000Y-63500000D03*
X164000000Y-63500000D03*
X165500000Y-63500000D03*
X167000000Y-63500000D03*
X168500000Y-63500000D03*
X170000000Y-63500000D03*
X171500000Y-63500000D03*
X173000000Y-63500000D03*
X174500000Y-63500000D03*
X181160681Y-66991213D03*
X181635347Y-68413966D03*
X182402207Y-69702942D03*
X183426056Y-70798965D03*
X184659889Y-71651720D03*
X186047062Y-72222056D03*
X187523893Y-72483790D03*
X189022581Y-72424906D03*
X190474324Y-72048108D03*
X191812473Y-71370694D03*
X192975596Y-70423763D03*
X193910295Y-69250788D03*
X194573660Y-67905618D03*
X194935235Y-66450009D03*
X181160681Y-64008787D03*
X181635347Y-62586034D03*
X182402207Y-61297058D03*
X183426056Y-60201035D03*
X184659889Y-59348280D03*
X186047062Y-58777944D03*
X187523893Y-58516210D03*
X189022581Y-58575094D03*
X190474324Y-58951892D03*
X191812473Y-59629306D03*
X192975596Y-60576237D03*
X193910295Y-61749212D03*
X194573660Y-63094382D03*
X194935235Y-64549991D03*
X177892607Y-68977156D03*
X178491886Y-70383213D03*
X179285582Y-71689421D03*
X180257467Y-72869069D03*
X181387667Y-73898039D03*
X182653074Y-74755289D03*
X184027812Y-75423292D03*
X185483771Y-75888387D03*
X186991181Y-76141066D03*
X188519219Y-76176161D03*
X190036640Y-75992955D03*
X191512416Y-75595193D03*
X192916373Y-74991010D03*
X194219802Y-74192759D03*
X195396051Y-73216763D03*
X196421069Y-72082978D03*
X197273897Y-70814587D03*
X197937097Y-69437525D03*
X198397107Y-67979952D03*
X198644523Y-66471669D03*
X177892607Y-62022844D03*
X178491886Y-60616787D03*
X179285582Y-59310579D03*
X180257467Y-58130931D03*
X181387667Y-57101961D03*
X182653074Y-56244711D03*
X184027812Y-55576708D03*
X185483771Y-55111613D03*
X186991181Y-54858934D03*
X188519219Y-54823839D03*
X190036640Y-55007045D03*
X191512416Y-55404807D03*
X192916373Y-56008990D03*
X194219802Y-56807241D03*
X195396051Y-57783237D03*
X196421069Y-58917022D03*
X197273897Y-60185413D03*
X197937097Y-61562475D03*
X198397107Y-63020048D03*
X198644523Y-64528331D03*
X117500000Y-67500000D03*
X101000000Y-67500000D03*
X141500000Y-67500000D03*
X180000000Y-63500000D03*
X167000000Y-67500000D03*
X107000000Y-67500000D03*
X137000000Y-67500000D03*
X128000000Y-67500000D03*
X158000000Y-67500000D03*
X170000000Y-67500000D03*
X177500000Y-67500000D03*
X174500000Y-67500000D03*
X147500000Y-67500000D03*
X104000000Y-67500000D03*
X113000000Y-67500000D03*
X102500000Y-67500000D03*
X102500000Y-70000000D03*
X116000000Y-67500000D03*
X101000000Y-70000000D03*
X144500000Y-67500000D03*
X135500000Y-67500000D03*
X156500000Y-67500000D03*
X149000000Y-67500000D03*
X152000000Y-67500000D03*
X162500000Y-67500000D03*
X159500000Y-67500000D03*
X181000000Y-65500000D03*
X143000000Y-67500000D03*
X165500000Y-67500000D03*
X153500000Y-67500000D03*
X122000000Y-67500000D03*
X132500000Y-67500000D03*
X134000000Y-67500000D03*
X168500000Y-67500000D03*
X104007460Y-68753531D03*
X173000000Y-67500000D03*
X123500000Y-67500000D03*
X101000000Y-61000000D03*
X105500000Y-67500000D03*
X119000000Y-67500000D03*
X114500000Y-67500000D03*
X155000000Y-67500000D03*
X129500000Y-67500000D03*
X104000000Y-61000000D03*
X161000000Y-67500000D03*
X179000000Y-63500000D03*
X125000000Y-67500000D03*
X111500000Y-67500000D03*
X138500000Y-67500000D03*
X171500000Y-67500000D03*
X104000000Y-70000000D03*
X108500000Y-67500000D03*
X131000000Y-67500000D03*
X120500000Y-67500000D03*
X146000000Y-67500000D03*
X126500000Y-67500000D03*
X102500000Y-61000000D03*
X110000000Y-67500000D03*
X150500000Y-67500000D03*
X140000000Y-67500000D03*
X104007194Y-62239008D03*
X176000000Y-67500000D03*
X152000000Y-67500000D03*
X164000000Y-67500000D03*
X104000000Y-65500000D03*
X101000000Y-65500000D03*
X102500000Y-65500632D03*
D14*
X104652302Y-65500000D02*
X101000000Y-65500000D01*
X105000112Y-65500000D02*
X179000000Y-65500000D01*
G04 #@! TA.AperFunction,Conductor*
G36*
X199008187Y-66001078D02*
G01*
X199036201Y-66004765D01*
X199112964Y-66014871D01*
X199144731Y-66023383D01*
X199234675Y-66060639D01*
X199263160Y-66077085D01*
X199340393Y-66136349D01*
X199363647Y-66159603D01*
X199371456Y-66169779D01*
X199392463Y-66211226D01*
X199397018Y-66257469D01*
X199347571Y-66822654D01*
X199346720Y-66829934D01*
X199251466Y-67480221D01*
X199250193Y-67487438D01*
X199117293Y-68131075D01*
X199115603Y-68138207D01*
X198945501Y-68773038D01*
X198943399Y-68780060D01*
X198736669Y-69403934D01*
X198734162Y-69410821D01*
X198491513Y-70021605D01*
X198488610Y-70028335D01*
X198210852Y-70623989D01*
X198207562Y-70630539D01*
X197895649Y-71209017D01*
X197891985Y-71215364D01*
X197546954Y-71774746D01*
X197542926Y-71780870D01*
X197165956Y-72319237D01*
X197161580Y-72325115D01*
X196753947Y-72840653D01*
X196749235Y-72846268D01*
X196312313Y-73337233D01*
X196307283Y-73342564D01*
X195842564Y-73807283D01*
X195837233Y-73812313D01*
X195346268Y-74249235D01*
X195340653Y-74253947D01*
X194825115Y-74661580D01*
X194819237Y-74665956D01*
X194280870Y-75042926D01*
X194274746Y-75046954D01*
X193715364Y-75391985D01*
X193709017Y-75395649D01*
X193130539Y-75707562D01*
X193123989Y-75710852D01*
X192528335Y-75988610D01*
X192521605Y-75991513D01*
X191910821Y-76234162D01*
X191903934Y-76236669D01*
X191280060Y-76443399D01*
X191273038Y-76445501D01*
X190638207Y-76615603D01*
X190631075Y-76617293D01*
X189987438Y-76750193D01*
X189980221Y-76751466D01*
X189329934Y-76846720D01*
X189322654Y-76847571D01*
X188667925Y-76904852D01*
X188660608Y-76905278D01*
X188001822Y-76924447D01*
X187998157Y-76924500D01*
X186704848Y-76924500D01*
X186686609Y-76923173D01*
X186599121Y-76910374D01*
X186206046Y-76852869D01*
X186047620Y-76829692D01*
X186040543Y-76828450D01*
X185405698Y-76698242D01*
X185398704Y-76696598D01*
X184772325Y-76530421D01*
X184765436Y-76528381D01*
X184149557Y-76326773D01*
X184142795Y-76324344D01*
X183539402Y-76087957D01*
X183532790Y-76085147D01*
X182943846Y-75814750D01*
X182937404Y-75811567D01*
X182364826Y-75508036D01*
X182358577Y-75504491D01*
X181804245Y-75168827D01*
X181798208Y-75164932D01*
X181263908Y-74798216D01*
X181258102Y-74793983D01*
X180745567Y-74397403D01*
X180740012Y-74392846D01*
X180250916Y-73967698D01*
X180245630Y-73962832D01*
X179781557Y-73510492D01*
X179776557Y-73505332D01*
X179339025Y-73027279D01*
X179334328Y-73021843D01*
X178924770Y-72519646D01*
X178920389Y-72513951D01*
X178540096Y-71989191D01*
X178536048Y-71983255D01*
X178402376Y-71774746D01*
X178186298Y-71437693D01*
X178182605Y-71431554D01*
X177864508Y-70866921D01*
X177861162Y-70860564D01*
X177575780Y-70278748D01*
X177572811Y-70272233D01*
X177321029Y-69675031D01*
X177318449Y-69668387D01*
X177102458Y-69061578D01*
X177099458Y-69051945D01*
X177091687Y-69022949D01*
X177091686Y-69022948D01*
X177065425Y-68996691D01*
X177063427Y-68994649D01*
X177041892Y-68972092D01*
X177041890Y-68972091D01*
X177037658Y-68967658D01*
X177034651Y-68965922D01*
X177008795Y-68958997D01*
X176997038Y-68955221D01*
X176977588Y-68947905D01*
X176955632Y-68949865D01*
X176944442Y-68950364D01*
X176036400Y-68950428D01*
X176003786Y-68946136D01*
X176000004Y-68945123D01*
X175999999Y-68945123D01*
X175988553Y-68948189D01*
X175988522Y-68948195D01*
X175973796Y-68952142D01*
X175958252Y-68956309D01*
X175922089Y-68965998D01*
X175913239Y-68974850D01*
X175872148Y-69000000D01*
X175740922Y-69000000D01*
X175740921Y-69000000D01*
X107207107Y-69000000D01*
X107000000Y-69000000D01*
X106853555Y-69146443D01*
X106853551Y-69146447D01*
X105152287Y-70847712D01*
X105139896Y-70858579D01*
X105056055Y-70922913D01*
X105027569Y-70939360D01*
X104937627Y-70976615D01*
X104905856Y-70985128D01*
X104827917Y-70995388D01*
X104801080Y-70998922D01*
X104784635Y-71000000D01*
X100508258Y-71000000D01*
X100491812Y-70998922D01*
X100387037Y-70985128D01*
X100355265Y-70976615D01*
X100265326Y-70939361D01*
X100236840Y-70922914D01*
X100159605Y-70863649D01*
X100136351Y-70840396D01*
X100101535Y-70795023D01*
X100082187Y-70758824D01*
X100075500Y-70718323D01*
X100075500Y-67281670D01*
X100082186Y-67241170D01*
X100101536Y-67204969D01*
X100121580Y-67178845D01*
X100136346Y-67159601D01*
X100159595Y-67136350D01*
X100236844Y-67077074D01*
X100265311Y-67060639D01*
X100355267Y-67023376D01*
X100387021Y-67014867D01*
X100491820Y-67001070D01*
X100508238Y-66999993D01*
X140148733Y-66999487D01*
X177997583Y-66999004D01*
X178053603Y-67012143D01*
X178097942Y-67048823D01*
X178121348Y-67101393D01*
X178232355Y-67683316D01*
X178388726Y-68292344D01*
X178583019Y-68890314D01*
X178650828Y-69061580D01*
X178805922Y-69453304D01*
X178814487Y-69474935D01*
X179082192Y-70043838D01*
X179385110Y-70594844D01*
X179722008Y-71125710D01*
X179782534Y-71209017D01*
X180091588Y-71634393D01*
X180385103Y-71989191D01*
X180432293Y-72046235D01*
X180492375Y-72118861D01*
X180922792Y-72577208D01*
X181381138Y-73007625D01*
X181865607Y-73408412D01*
X182251224Y-73688579D01*
X182374289Y-73777991D01*
X182905155Y-74114889D01*
X182905159Y-74114891D01*
X182905165Y-74114895D01*
X183456152Y-74417803D01*
X183456157Y-74417805D01*
X183456160Y-74417807D01*
X183523824Y-74449647D01*
X184025072Y-74685516D01*
X184609679Y-74916978D01*
X184609684Y-74916979D01*
X184609685Y-74916980D01*
X185207655Y-75111273D01*
X185207663Y-75111275D01*
X185207666Y-75111276D01*
X185816673Y-75267642D01*
X186434297Y-75385460D01*
X186746197Y-75424862D01*
X187058096Y-75464265D01*
X187685613Y-75503745D01*
X187685619Y-75503745D01*
X188314380Y-75503745D01*
X188314386Y-75503745D01*
X188941901Y-75464265D01*
X189045867Y-75451130D01*
X189565703Y-75385461D01*
X190183326Y-75267643D01*
X190792333Y-75111276D01*
X191390320Y-74916978D01*
X191974927Y-74685516D01*
X192543847Y-74417803D01*
X193094834Y-74114895D01*
X193625715Y-73777988D01*
X194134393Y-73408412D01*
X194618861Y-73007625D01*
X195077208Y-72577209D01*
X195507624Y-72118862D01*
X195908412Y-71634393D01*
X196277988Y-71125715D01*
X196614895Y-70594835D01*
X196917803Y-70043848D01*
X197185516Y-69474928D01*
X197416978Y-68890321D01*
X197611276Y-68292334D01*
X197767642Y-67683327D01*
X197885460Y-67065704D01*
X197959122Y-66482613D01*
X197964265Y-66441903D01*
X197984638Y-66118088D01*
X198004004Y-66058486D01*
X198049688Y-66015585D01*
X198110389Y-66000000D01*
X198991742Y-66000000D01*
X199008187Y-66001078D01*
G37*
G04 #@! TD.AperFunction*
G04 #@! TA.AperFunction,Conductor*
G36*
X188179535Y-57699477D02*
G01*
X188724033Y-57731078D01*
X188732900Y-57731908D01*
X189273823Y-57802094D01*
X189282598Y-57803551D01*
X189817127Y-57911956D01*
X189825815Y-57914041D01*
X190351323Y-58060130D01*
X190359800Y-58062814D01*
X190834960Y-58232078D01*
X190873597Y-58245842D01*
X190881917Y-58249144D01*
X191381398Y-58468177D01*
X191389436Y-58472048D01*
X191872105Y-58725993D01*
X191879853Y-58730427D01*
X192298805Y-58990405D01*
X192343295Y-59018013D01*
X192350728Y-59023000D01*
X192716659Y-59287820D01*
X192792557Y-59342746D01*
X192799612Y-59348244D01*
X193021336Y-59534058D01*
X193217627Y-59698557D01*
X193224260Y-59704529D01*
X193616363Y-60083652D01*
X193622563Y-60090088D01*
X193986747Y-60496078D01*
X193992484Y-60502950D01*
X194310775Y-60912973D01*
X194326916Y-60933765D01*
X194332144Y-60941019D01*
X194567955Y-61293933D01*
X194635150Y-61394497D01*
X194639852Y-61402106D01*
X194902887Y-61863656D01*
X194909899Y-61875959D01*
X194914048Y-61883883D01*
X195076778Y-62223416D01*
X195149765Y-62375703D01*
X195153343Y-62383904D01*
X195306373Y-62771686D01*
X195353547Y-62891225D01*
X195356535Y-62899663D01*
X195520214Y-63419916D01*
X195522595Y-63428545D01*
X195648920Y-63959093D01*
X195650683Y-63967870D01*
X195739021Y-64506060D01*
X195740156Y-64514939D01*
X195772090Y-64862471D01*
X195759381Y-64930221D01*
X195712922Y-64981144D01*
X195646619Y-65000000D01*
X193848595Y-65000000D01*
X193790158Y-64985629D01*
X193745051Y-64945796D01*
X193723563Y-64889585D01*
X193681474Y-64551930D01*
X193583779Y-64085998D01*
X193517582Y-63863646D01*
X193447939Y-63629720D01*
X193429342Y-63582061D01*
X193317505Y-63295446D01*
X193274885Y-63186221D01*
X193065798Y-62758527D01*
X192822107Y-62349561D01*
X192545475Y-61962115D01*
X192237794Y-61598836D01*
X192237790Y-61598832D01*
X192237785Y-61598826D01*
X191901173Y-61262214D01*
X191901164Y-61262206D01*
X191537885Y-60954525D01*
X191150439Y-60677893D01*
X190741473Y-60434202D01*
X190682058Y-60405156D01*
X190313775Y-60225113D01*
X189870285Y-60052062D01*
X189414001Y-59916220D01*
X188948069Y-59818525D01*
X188475660Y-59759639D01*
X188000000Y-59739966D01*
X187524339Y-59759639D01*
X187051930Y-59818525D01*
X186585998Y-59916220D01*
X186129714Y-60052062D01*
X185686224Y-60225113D01*
X185258532Y-60434199D01*
X184849559Y-60677894D01*
X184462117Y-60954523D01*
X184098826Y-61262214D01*
X183762214Y-61598826D01*
X183454523Y-61962117D01*
X183177894Y-62349559D01*
X182934199Y-62758532D01*
X182725113Y-63186224D01*
X182552062Y-63629714D01*
X182416220Y-64085998D01*
X182318525Y-64551930D01*
X182259639Y-65024339D01*
X182239966Y-65499999D01*
X182259639Y-65975660D01*
X182318525Y-66448069D01*
X182416220Y-66914001D01*
X182552062Y-67370285D01*
X182725113Y-67813775D01*
X182932333Y-68237651D01*
X182934202Y-68241473D01*
X183177893Y-68650439D01*
X183454525Y-69037885D01*
X183762206Y-69401164D01*
X183762214Y-69401173D01*
X184098826Y-69737785D01*
X184098832Y-69737790D01*
X184098836Y-69737794D01*
X184462115Y-70045475D01*
X184849561Y-70322107D01*
X185258527Y-70565798D01*
X185686221Y-70774885D01*
X185834053Y-70832569D01*
X186129714Y-70947937D01*
X186129717Y-70947938D01*
X186129720Y-70947939D01*
X186300969Y-70998922D01*
X186585998Y-71083779D01*
X187051930Y-71181474D01*
X187524339Y-71240360D01*
X188000000Y-71260033D01*
X188475660Y-71240360D01*
X188948070Y-71181474D01*
X189343268Y-71098610D01*
X189414001Y-71083779D01*
X189414002Y-71083778D01*
X189414005Y-71083778D01*
X189870280Y-70947939D01*
X190313779Y-70774885D01*
X190741473Y-70565798D01*
X191150439Y-70322107D01*
X191537885Y-70045475D01*
X191901164Y-69737794D01*
X192237794Y-69401164D01*
X192545475Y-69037885D01*
X192822107Y-68650439D01*
X193065798Y-68241473D01*
X193274885Y-67813779D01*
X193447939Y-67370280D01*
X193583778Y-66914005D01*
X193584175Y-66912114D01*
X193681474Y-66448069D01*
X193723563Y-66110415D01*
X193745051Y-66054204D01*
X193790158Y-66014371D01*
X193848595Y-66000000D01*
X195649977Y-66000000D01*
X195714805Y-66017957D01*
X195761155Y-66066709D01*
X195775815Y-66132358D01*
X195775614Y-66136349D01*
X195774121Y-66165891D01*
X195773352Y-66174808D01*
X195707223Y-66716169D01*
X195705823Y-66725010D01*
X195601423Y-67260322D01*
X195599398Y-67269042D01*
X195457260Y-67795568D01*
X195454622Y-67804122D01*
X195275453Y-68319245D01*
X195272214Y-68327590D01*
X195056922Y-68828696D01*
X195053098Y-68836790D01*
X194802780Y-69321326D01*
X194798392Y-69329128D01*
X194514292Y-69794690D01*
X194509360Y-69802161D01*
X194192930Y-70246364D01*
X194187481Y-70253465D01*
X193840310Y-70674083D01*
X193834370Y-70680780D01*
X193458219Y-71075679D01*
X193451819Y-71081938D01*
X193048559Y-71449153D01*
X193041730Y-71454941D01*
X192613430Y-71792585D01*
X192606207Y-71797874D01*
X192155012Y-72104258D01*
X192147433Y-72109020D01*
X191675631Y-72382593D01*
X191667732Y-72386806D01*
X191177690Y-72626194D01*
X191169513Y-72629835D01*
X190663703Y-72833829D01*
X190655287Y-72836880D01*
X190136282Y-73004442D01*
X190127671Y-73006888D01*
X189598069Y-73137181D01*
X189589306Y-73139009D01*
X189051806Y-73231368D01*
X189042935Y-73232570D01*
X188500209Y-73286536D01*
X188491276Y-73287104D01*
X187946112Y-73302401D01*
X187937160Y-73302334D01*
X187392282Y-73278884D01*
X187383358Y-73278182D01*
X186841511Y-73216104D01*
X186832660Y-73214770D01*
X186296595Y-73114379D01*
X186287860Y-73112420D01*
X185760259Y-72974217D01*
X185751686Y-72971642D01*
X185235247Y-72796335D01*
X185226878Y-72793158D01*
X184724202Y-72581631D01*
X184716079Y-72577869D01*
X184229655Y-72331168D01*
X184221821Y-72326838D01*
X183754158Y-72046235D01*
X183746650Y-72041359D01*
X183399378Y-71797874D01*
X183300085Y-71728255D01*
X183292949Y-71722864D01*
X183164084Y-71618112D01*
X182956233Y-71449153D01*
X182869750Y-71378852D01*
X182863008Y-71372962D01*
X182465298Y-70999766D01*
X182458992Y-70993413D01*
X182088780Y-70592920D01*
X182082942Y-70586135D01*
X181742094Y-70160363D01*
X181736751Y-70153180D01*
X181662431Y-70045476D01*
X181426998Y-69704288D01*
X181422185Y-69696752D01*
X181276665Y-69450060D01*
X181145092Y-69227011D01*
X181140824Y-69219151D01*
X181104630Y-69146443D01*
X180897761Y-68730880D01*
X180894075Y-68722763D01*
X180727815Y-68319245D01*
X180686302Y-68218490D01*
X180683188Y-68210098D01*
X180511744Y-67692349D01*
X180509234Y-67683757D01*
X180459375Y-67487438D01*
X180374980Y-67155131D01*
X180373096Y-67146428D01*
X180297466Y-66725188D01*
X180297466Y-63998975D01*
X179900186Y-63998979D01*
X179870229Y-63976939D01*
X179843826Y-63922728D01*
X179845637Y-63862456D01*
X179875246Y-63809927D01*
X179925873Y-63777172D01*
X179988253Y-63755621D01*
X179988252Y-63755621D01*
X180165506Y-63654735D01*
X180321204Y-63522996D01*
X180450043Y-63364891D01*
X180547637Y-63185804D01*
X180578477Y-63090883D01*
X180579916Y-63086714D01*
X180649687Y-62895391D01*
X180767543Y-62572211D01*
X180770883Y-62563973D01*
X180993668Y-62066096D01*
X180997592Y-62058100D01*
X181255159Y-61577308D01*
X181259639Y-61569615D01*
X181550692Y-61108324D01*
X181555715Y-61100958D01*
X181878777Y-60661508D01*
X181884310Y-60654516D01*
X182237748Y-60239122D01*
X182243763Y-60232540D01*
X182625833Y-59843258D01*
X182632297Y-59837125D01*
X183041011Y-59475980D01*
X183047880Y-59470331D01*
X183481239Y-59139089D01*
X183488501Y-59133936D01*
X183944273Y-58834306D01*
X183951879Y-58829685D01*
X184427769Y-58563174D01*
X184435676Y-58559108D01*
X184929292Y-58327055D01*
X184937488Y-58323552D01*
X185446321Y-58127137D01*
X185454737Y-58124227D01*
X185976228Y-57964436D01*
X185984856Y-57962124D01*
X186516370Y-57839763D01*
X186525124Y-57838073D01*
X187063993Y-57753758D01*
X187072835Y-57752694D01*
X187616330Y-57706851D01*
X187625249Y-57706417D01*
X188170619Y-57699277D01*
X188179535Y-57699477D01*
G37*
G04 #@! TD.AperFunction*
G04 #@! TA.AperFunction,Conductor*
G36*
X188001821Y-54075552D02*
G01*
X188660617Y-54094721D01*
X188667916Y-54095146D01*
X189322679Y-54152430D01*
X189329904Y-54153275D01*
X189980231Y-54248534D01*
X189987434Y-54249805D01*
X190631090Y-54382709D01*
X190638191Y-54384392D01*
X191273065Y-54554506D01*
X191280034Y-54556592D01*
X191903949Y-54763335D01*
X191910805Y-54765831D01*
X192511808Y-55004594D01*
X192521605Y-55008486D01*
X192528332Y-55011388D01*
X193123996Y-55289150D01*
X193130533Y-55292434D01*
X193157403Y-55306922D01*
X193709017Y-55604350D01*
X193715364Y-55608014D01*
X193773259Y-55643724D01*
X194254295Y-55940431D01*
X194274746Y-55953045D01*
X194280870Y-55957073D01*
X194819237Y-56334043D01*
X194825115Y-56338419D01*
X195340664Y-56746061D01*
X195346262Y-56750759D01*
X195730478Y-57092682D01*
X195837233Y-57187686D01*
X195842564Y-57192716D01*
X196307283Y-57657435D01*
X196312313Y-57662766D01*
X196567898Y-57949965D01*
X196749235Y-58153731D01*
X196753941Y-58159339D01*
X196883777Y-58323543D01*
X197161580Y-58674884D01*
X197165956Y-58680762D01*
X197542926Y-59219129D01*
X197546954Y-59225253D01*
X197891985Y-59784635D01*
X197895649Y-59790982D01*
X198207562Y-60369460D01*
X198210852Y-60376010D01*
X198488610Y-60971664D01*
X198491513Y-60978394D01*
X198734162Y-61589178D01*
X198736669Y-61596065D01*
X198876926Y-62019337D01*
X198943399Y-62219939D01*
X198945501Y-62226961D01*
X199115603Y-62861792D01*
X199117293Y-62868924D01*
X199250193Y-63512561D01*
X199251466Y-63519778D01*
X199346720Y-64170065D01*
X199347571Y-64177345D01*
X199397018Y-64742529D01*
X199392463Y-64788770D01*
X199371459Y-64830216D01*
X199363649Y-64840394D01*
X199340392Y-64863651D01*
X199263160Y-64922914D01*
X199234673Y-64939361D01*
X199144734Y-64976615D01*
X199112963Y-64985128D01*
X199035024Y-64995388D01*
X199008187Y-64998922D01*
X198991742Y-65000000D01*
X198110389Y-65000000D01*
X198049688Y-64984415D01*
X198004004Y-64941514D01*
X197984638Y-64881912D01*
X197964265Y-64558098D01*
X197915245Y-64170065D01*
X197885461Y-63934297D01*
X197767643Y-63316674D01*
X197735544Y-63191659D01*
X197611277Y-62707671D01*
X197416981Y-62109686D01*
X197416978Y-62109678D01*
X197185516Y-61525073D01*
X197044052Y-61224446D01*
X196917807Y-60956161D01*
X196916907Y-60954523D01*
X196614895Y-60405166D01*
X196614889Y-60405156D01*
X196277992Y-59874290D01*
X195908413Y-59365609D01*
X195507625Y-58881139D01*
X195459294Y-58829672D01*
X195077209Y-58422792D01*
X194618862Y-57992376D01*
X194574167Y-57955401D01*
X194134392Y-57591587D01*
X193625712Y-57222008D01*
X193094844Y-56885110D01*
X192543839Y-56582193D01*
X191974935Y-56314487D01*
X191974931Y-56314485D01*
X191974928Y-56314484D01*
X191390322Y-56083022D01*
X191177584Y-56013899D01*
X190792345Y-55888726D01*
X190183317Y-55732355D01*
X189565700Y-55614539D01*
X188941903Y-55535734D01*
X188314387Y-55496255D01*
X188314381Y-55496255D01*
X187685621Y-55496255D01*
X187685615Y-55496255D01*
X187058099Y-55535734D01*
X186434302Y-55614538D01*
X185816669Y-55732357D01*
X185207671Y-55888722D01*
X184609686Y-56083018D01*
X184025065Y-56314487D01*
X183456161Y-56582192D01*
X182905156Y-56885110D01*
X182374290Y-57222007D01*
X181865609Y-57591586D01*
X181381139Y-57992374D01*
X180922792Y-58422791D01*
X180492375Y-58881138D01*
X180091587Y-59365607D01*
X179722008Y-59874288D01*
X179385111Y-60405154D01*
X179082193Y-60956160D01*
X178814487Y-61525063D01*
X178583019Y-62109684D01*
X178485873Y-62408672D01*
X178454360Y-62505657D01*
X178428051Y-62707906D01*
X178439352Y-62911545D01*
X178487879Y-63109637D01*
X178571981Y-63295447D01*
X178688792Y-63462634D01*
X178834332Y-63605511D01*
X178882956Y-63638163D01*
X179003653Y-63719214D01*
X179092026Y-63757262D01*
X179144947Y-63800063D01*
X179167886Y-63864148D01*
X179154146Y-63930813D01*
X179107735Y-63980604D01*
X179042199Y-63998990D01*
X111633981Y-63999850D01*
X100508261Y-63999992D01*
X100491817Y-63998915D01*
X100387043Y-63985123D01*
X100355270Y-63976610D01*
X100352851Y-63975608D01*
X100265327Y-63939354D01*
X100236846Y-63922911D01*
X100159608Y-63863646D01*
X100136351Y-63840389D01*
X100101538Y-63795020D01*
X100082187Y-63758817D01*
X100075500Y-63718316D01*
X100075500Y-60292349D01*
X100082365Y-60251326D01*
X100102211Y-60214775D01*
X100139836Y-60166621D01*
X100163641Y-60143311D01*
X100242639Y-60084220D01*
X100271724Y-60067967D01*
X100363443Y-60031661D01*
X100395782Y-60023600D01*
X100470831Y-60015188D01*
X100502201Y-60011672D01*
X100518884Y-60010916D01*
X103524765Y-60074154D01*
X104799134Y-60100964D01*
X104814527Y-60102236D01*
X104912783Y-60116476D01*
X104942580Y-60124621D01*
X105027183Y-60159370D01*
X105054104Y-60174521D01*
X105133995Y-60233447D01*
X105145861Y-60243380D01*
X105660479Y-60730931D01*
X107000000Y-62000000D01*
X107199242Y-62000000D01*
X107199244Y-62000000D01*
X175740923Y-62000000D01*
X175923458Y-62000000D01*
X175956299Y-62008770D01*
X175956456Y-62008851D01*
X175956466Y-62008815D01*
X175962542Y-62010446D01*
X175995650Y-62019337D01*
X175999626Y-62018273D01*
X176032064Y-62013997D01*
X176995451Y-62013204D01*
X177006734Y-62013702D01*
X177028577Y-62015653D01*
X177048152Y-62008289D01*
X177059768Y-62004552D01*
X177085761Y-61997566D01*
X177085766Y-61997560D01*
X177088657Y-61995889D01*
X177092877Y-61991467D01*
X177092880Y-61991467D01*
X177114502Y-61968819D01*
X177116345Y-61966931D01*
X177142745Y-61940489D01*
X177150456Y-61911611D01*
X177153482Y-61901879D01*
X177368681Y-61297298D01*
X177371259Y-61290658D01*
X177622167Y-60695531D01*
X177625125Y-60689039D01*
X177909538Y-60109201D01*
X177912847Y-60102912D01*
X178229875Y-59540180D01*
X178233538Y-59534091D01*
X178582102Y-58990380D01*
X178586118Y-58984493D01*
X178965092Y-58461554D01*
X178969466Y-58455868D01*
X178996441Y-58422792D01*
X179377627Y-57955384D01*
X179382296Y-57949982D01*
X179818326Y-57473572D01*
X179823273Y-57468465D01*
X180285805Y-57017628D01*
X180291026Y-57012823D01*
X180682102Y-56672880D01*
X180778442Y-56589137D01*
X180783981Y-56584591D01*
X181294765Y-56189368D01*
X181300529Y-56185166D01*
X181833003Y-55819703D01*
X181839009Y-55815828D01*
X182391441Y-55481316D01*
X182397670Y-55477782D01*
X182968256Y-55175310D01*
X182974682Y-55172134D01*
X183561606Y-54902664D01*
X183568181Y-54899870D01*
X184169512Y-54664291D01*
X184176224Y-54661880D01*
X184789998Y-54460964D01*
X184796855Y-54458933D01*
X185421092Y-54293324D01*
X185428041Y-54291691D01*
X186060706Y-54161932D01*
X186067747Y-54160696D01*
X186641046Y-54076826D01*
X186659285Y-54075500D01*
X187975469Y-54075500D01*
X187998157Y-54075500D01*
X188001821Y-54075552D01*
G37*
G04 #@! TD.AperFunction*
M02*
