%TF.GenerationSoftware,KiCad,Pcbnew,7.0.1*%
%TF.CreationDate,2023-05-15T14:11:47-06:00*%
%TF.ProjectId,H-field_RF_probe,482d6669-656c-4645-9f52-465f70726f62,rev?*%
%TF.SameCoordinates,Original*%
%TF.FileFunction,Drillmap*%
%TF.FilePolarity,Positive*%
%FSLAX45Y45*%
G04 Gerber Fmt 4.5, Leading zero omitted, Abs format (unit mm)*
G04 Created by KiCad (PCBNEW 7.0.1) date 2023-05-15 14:11:47*
%MOMM*%
%LPD*%
G01*
G04 APERTURE LIST*
%ADD10C,0.150000*%
%ADD11C,0.200000*%
%ADD12C,0.040000*%
G04 APERTURE END LIST*
D10*
X18800000Y-5400000D02*
X10000000Y-5400000D01*
X19367961Y-6550000D02*
G75*
G03*
X19367961Y-6550000I-567961J0D01*
G01*
X18800000Y-7700000D02*
G75*
G03*
X18800000Y-5400000I0J1150000D01*
G01*
X18800000Y-7700000D02*
X10000000Y-7700000D01*
X10000000Y-7700000D02*
X10000000Y-5400000D01*
D11*
D12*
X10080000Y-6080000D02*
X10120000Y-6120000D01*
X10120000Y-6080000D02*
X10080000Y-6120000D01*
X10080000Y-6330000D02*
X10120000Y-6370000D01*
X10120000Y-6330000D02*
X10080000Y-6370000D01*
X10080000Y-6530000D02*
X10120000Y-6570000D01*
X10120000Y-6530000D02*
X10080000Y-6570000D01*
X10080000Y-6730000D02*
X10120000Y-6770000D01*
X10120000Y-6730000D02*
X10080000Y-6770000D01*
X10080000Y-6980000D02*
X10120000Y-7020000D01*
X10120000Y-6980000D02*
X10080000Y-7020000D01*
X10230000Y-6080000D02*
X10270000Y-6120000D01*
X10270000Y-6080000D02*
X10230000Y-6120000D01*
X10230000Y-6330000D02*
X10270000Y-6370000D01*
X10270000Y-6330000D02*
X10230000Y-6370000D01*
X10230000Y-6530063D02*
X10270000Y-6570063D01*
X10270000Y-6530063D02*
X10230000Y-6570063D01*
X10230000Y-6730000D02*
X10270000Y-6770000D01*
X10270000Y-6730000D02*
X10230000Y-6770000D01*
X10230000Y-6980000D02*
X10270000Y-7020000D01*
X10270000Y-6980000D02*
X10230000Y-7020000D01*
X10380000Y-6080000D02*
X10420000Y-6120000D01*
X10420000Y-6080000D02*
X10380000Y-6120000D01*
X10380000Y-6330000D02*
X10420000Y-6370000D01*
X10420000Y-6330000D02*
X10380000Y-6370000D01*
X10380000Y-6530000D02*
X10420000Y-6570000D01*
X10420000Y-6530000D02*
X10380000Y-6570000D01*
X10380000Y-6730000D02*
X10420000Y-6770000D01*
X10420000Y-6730000D02*
X10380000Y-6770000D01*
X10380000Y-6980000D02*
X10420000Y-7020000D01*
X10420000Y-6980000D02*
X10380000Y-7020000D01*
X10380719Y-6203901D02*
X10420719Y-6243901D01*
X10420719Y-6203901D02*
X10380719Y-6243901D01*
X10380746Y-6855353D02*
X10420746Y-6895353D01*
X10420746Y-6855353D02*
X10380746Y-6895353D01*
X10530000Y-6330000D02*
X10570000Y-6370000D01*
X10570000Y-6330000D02*
X10530000Y-6370000D01*
X10530000Y-6730000D02*
X10570000Y-6770000D01*
X10570000Y-6730000D02*
X10530000Y-6770000D01*
X10680000Y-6330000D02*
X10720000Y-6370000D01*
X10720000Y-6330000D02*
X10680000Y-6370000D01*
X10680000Y-6730000D02*
X10720000Y-6770000D01*
X10720000Y-6730000D02*
X10680000Y-6770000D01*
X10830000Y-6330000D02*
X10870000Y-6370000D01*
X10870000Y-6330000D02*
X10830000Y-6370000D01*
X10830000Y-6730000D02*
X10870000Y-6770000D01*
X10870000Y-6730000D02*
X10830000Y-6770000D01*
X10980000Y-6330000D02*
X11020000Y-6370000D01*
X11020000Y-6330000D02*
X10980000Y-6370000D01*
X10980000Y-6730000D02*
X11020000Y-6770000D01*
X11020000Y-6730000D02*
X10980000Y-6770000D01*
X11130000Y-6330000D02*
X11170000Y-6370000D01*
X11170000Y-6330000D02*
X11130000Y-6370000D01*
X11130000Y-6730000D02*
X11170000Y-6770000D01*
X11170000Y-6730000D02*
X11130000Y-6770000D01*
X11280000Y-6330000D02*
X11320000Y-6370000D01*
X11320000Y-6330000D02*
X11280000Y-6370000D01*
X11280000Y-6730000D02*
X11320000Y-6770000D01*
X11320000Y-6730000D02*
X11280000Y-6770000D01*
X11430000Y-6330000D02*
X11470000Y-6370000D01*
X11470000Y-6330000D02*
X11430000Y-6370000D01*
X11430000Y-6730000D02*
X11470000Y-6770000D01*
X11470000Y-6730000D02*
X11430000Y-6770000D01*
X11580000Y-6330000D02*
X11620000Y-6370000D01*
X11620000Y-6330000D02*
X11580000Y-6370000D01*
X11580000Y-6730000D02*
X11620000Y-6770000D01*
X11620000Y-6730000D02*
X11580000Y-6770000D01*
X11730000Y-6330000D02*
X11770000Y-6370000D01*
X11770000Y-6330000D02*
X11730000Y-6370000D01*
X11730000Y-6730000D02*
X11770000Y-6770000D01*
X11770000Y-6730000D02*
X11730000Y-6770000D01*
X11880000Y-6330000D02*
X11920000Y-6370000D01*
X11920000Y-6330000D02*
X11880000Y-6370000D01*
X11880000Y-6730000D02*
X11920000Y-6770000D01*
X11920000Y-6730000D02*
X11880000Y-6770000D01*
X12030000Y-6330000D02*
X12070000Y-6370000D01*
X12070000Y-6330000D02*
X12030000Y-6370000D01*
X12030000Y-6730000D02*
X12070000Y-6770000D01*
X12070000Y-6730000D02*
X12030000Y-6770000D01*
X12180000Y-6330000D02*
X12220000Y-6370000D01*
X12220000Y-6330000D02*
X12180000Y-6370000D01*
X12180000Y-6730000D02*
X12220000Y-6770000D01*
X12220000Y-6730000D02*
X12180000Y-6770000D01*
X12330000Y-6330000D02*
X12370000Y-6370000D01*
X12370000Y-6330000D02*
X12330000Y-6370000D01*
X12330000Y-6730000D02*
X12370000Y-6770000D01*
X12370000Y-6730000D02*
X12330000Y-6770000D01*
X12480000Y-6330000D02*
X12520000Y-6370000D01*
X12520000Y-6330000D02*
X12480000Y-6370000D01*
X12480000Y-6730000D02*
X12520000Y-6770000D01*
X12520000Y-6730000D02*
X12480000Y-6770000D01*
X12630000Y-6330000D02*
X12670000Y-6370000D01*
X12670000Y-6330000D02*
X12630000Y-6370000D01*
X12630000Y-6730000D02*
X12670000Y-6770000D01*
X12670000Y-6730000D02*
X12630000Y-6770000D01*
X12780000Y-6330000D02*
X12820000Y-6370000D01*
X12820000Y-6330000D02*
X12780000Y-6370000D01*
X12780000Y-6730000D02*
X12820000Y-6770000D01*
X12820000Y-6730000D02*
X12780000Y-6770000D01*
X12930000Y-6330000D02*
X12970000Y-6370000D01*
X12970000Y-6330000D02*
X12930000Y-6370000D01*
X12930000Y-6730000D02*
X12970000Y-6770000D01*
X12970000Y-6730000D02*
X12930000Y-6770000D01*
X13080000Y-6330000D02*
X13120000Y-6370000D01*
X13120000Y-6330000D02*
X13080000Y-6370000D01*
X13080000Y-6730000D02*
X13120000Y-6770000D01*
X13120000Y-6730000D02*
X13080000Y-6770000D01*
X13230000Y-6330000D02*
X13270000Y-6370000D01*
X13270000Y-6330000D02*
X13230000Y-6370000D01*
X13230000Y-6730000D02*
X13270000Y-6770000D01*
X13270000Y-6730000D02*
X13230000Y-6770000D01*
X13380000Y-6330000D02*
X13420000Y-6370000D01*
X13420000Y-6330000D02*
X13380000Y-6370000D01*
X13380000Y-6730000D02*
X13420000Y-6770000D01*
X13420000Y-6730000D02*
X13380000Y-6770000D01*
X13530000Y-6330000D02*
X13570000Y-6370000D01*
X13570000Y-6330000D02*
X13530000Y-6370000D01*
X13530000Y-6730000D02*
X13570000Y-6770000D01*
X13570000Y-6730000D02*
X13530000Y-6770000D01*
X13680000Y-6330000D02*
X13720000Y-6370000D01*
X13720000Y-6330000D02*
X13680000Y-6370000D01*
X13680000Y-6730000D02*
X13720000Y-6770000D01*
X13720000Y-6730000D02*
X13680000Y-6770000D01*
X13830000Y-6330000D02*
X13870000Y-6370000D01*
X13870000Y-6330000D02*
X13830000Y-6370000D01*
X13830000Y-6730000D02*
X13870000Y-6770000D01*
X13870000Y-6730000D02*
X13830000Y-6770000D01*
X13980000Y-6330000D02*
X14020000Y-6370000D01*
X14020000Y-6330000D02*
X13980000Y-6370000D01*
X13980000Y-6730000D02*
X14020000Y-6770000D01*
X14020000Y-6730000D02*
X13980000Y-6770000D01*
X14130000Y-6330000D02*
X14170000Y-6370000D01*
X14170000Y-6330000D02*
X14130000Y-6370000D01*
X14130000Y-6730000D02*
X14170000Y-6770000D01*
X14170000Y-6730000D02*
X14130000Y-6770000D01*
X14280000Y-6330000D02*
X14320000Y-6370000D01*
X14320000Y-6330000D02*
X14280000Y-6370000D01*
X14280000Y-6730000D02*
X14320000Y-6770000D01*
X14320000Y-6730000D02*
X14280000Y-6770000D01*
X14430000Y-6330000D02*
X14470000Y-6370000D01*
X14470000Y-6330000D02*
X14430000Y-6370000D01*
X14430000Y-6730000D02*
X14470000Y-6770000D01*
X14470000Y-6730000D02*
X14430000Y-6770000D01*
X14580000Y-6330000D02*
X14620000Y-6370000D01*
X14620000Y-6330000D02*
X14580000Y-6370000D01*
X14580000Y-6730000D02*
X14620000Y-6770000D01*
X14620000Y-6730000D02*
X14580000Y-6770000D01*
X14730000Y-6330000D02*
X14770000Y-6370000D01*
X14770000Y-6330000D02*
X14730000Y-6370000D01*
X14730000Y-6730000D02*
X14770000Y-6770000D01*
X14770000Y-6730000D02*
X14730000Y-6770000D01*
X14880000Y-6330000D02*
X14920000Y-6370000D01*
X14920000Y-6330000D02*
X14880000Y-6370000D01*
X14880000Y-6730000D02*
X14920000Y-6770000D01*
X14920000Y-6730000D02*
X14880000Y-6770000D01*
X15030000Y-6330000D02*
X15070000Y-6370000D01*
X15070000Y-6330000D02*
X15030000Y-6370000D01*
X15030000Y-6730000D02*
X15070000Y-6770000D01*
X15070000Y-6730000D02*
X15030000Y-6770000D01*
X15180000Y-6330000D02*
X15220000Y-6370000D01*
X15220000Y-6330000D02*
X15180000Y-6370000D01*
X15180000Y-6330000D02*
X15220000Y-6370000D01*
X15220000Y-6330000D02*
X15180000Y-6370000D01*
X15180000Y-6730000D02*
X15220000Y-6770000D01*
X15220000Y-6730000D02*
X15180000Y-6770000D01*
X15180000Y-6730000D02*
X15220000Y-6770000D01*
X15220000Y-6730000D02*
X15180000Y-6770000D01*
X15330000Y-6330000D02*
X15370000Y-6370000D01*
X15370000Y-6330000D02*
X15330000Y-6370000D01*
X15330000Y-6730000D02*
X15370000Y-6770000D01*
X15370000Y-6730000D02*
X15330000Y-6770000D01*
X15480000Y-6330000D02*
X15520000Y-6370000D01*
X15520000Y-6330000D02*
X15480000Y-6370000D01*
X15480000Y-6730000D02*
X15520000Y-6770000D01*
X15520000Y-6730000D02*
X15480000Y-6770000D01*
X15630000Y-6330000D02*
X15670000Y-6370000D01*
X15670000Y-6330000D02*
X15630000Y-6370000D01*
X15630000Y-6730000D02*
X15670000Y-6770000D01*
X15670000Y-6730000D02*
X15630000Y-6770000D01*
X15780000Y-6330000D02*
X15820000Y-6370000D01*
X15820000Y-6330000D02*
X15780000Y-6370000D01*
X15780000Y-6730000D02*
X15820000Y-6770000D01*
X15820000Y-6730000D02*
X15780000Y-6770000D01*
X15930000Y-6330000D02*
X15970000Y-6370000D01*
X15970000Y-6330000D02*
X15930000Y-6370000D01*
X15930000Y-6730000D02*
X15970000Y-6770000D01*
X15970000Y-6730000D02*
X15930000Y-6770000D01*
X16080000Y-6330000D02*
X16120000Y-6370000D01*
X16120000Y-6330000D02*
X16080000Y-6370000D01*
X16080000Y-6730000D02*
X16120000Y-6770000D01*
X16120000Y-6730000D02*
X16080000Y-6770000D01*
X16230000Y-6330000D02*
X16270000Y-6370000D01*
X16270000Y-6330000D02*
X16230000Y-6370000D01*
X16230000Y-6730000D02*
X16270000Y-6770000D01*
X16270000Y-6730000D02*
X16230000Y-6770000D01*
X16380000Y-6330000D02*
X16420000Y-6370000D01*
X16420000Y-6330000D02*
X16380000Y-6370000D01*
X16380000Y-6730000D02*
X16420000Y-6770000D01*
X16420000Y-6730000D02*
X16380000Y-6770000D01*
X16530000Y-6330000D02*
X16570000Y-6370000D01*
X16570000Y-6330000D02*
X16530000Y-6370000D01*
X16530000Y-6730000D02*
X16570000Y-6770000D01*
X16570000Y-6730000D02*
X16530000Y-6770000D01*
X16680000Y-6330000D02*
X16720000Y-6370000D01*
X16720000Y-6330000D02*
X16680000Y-6370000D01*
X16680000Y-6730000D02*
X16720000Y-6770000D01*
X16720000Y-6730000D02*
X16680000Y-6770000D01*
X16830000Y-6330000D02*
X16870000Y-6370000D01*
X16870000Y-6330000D02*
X16830000Y-6370000D01*
X16830000Y-6730000D02*
X16870000Y-6770000D01*
X16870000Y-6730000D02*
X16830000Y-6770000D01*
X16980000Y-6330000D02*
X17020000Y-6370000D01*
X17020000Y-6330000D02*
X16980000Y-6370000D01*
X16980000Y-6730000D02*
X17020000Y-6770000D01*
X17020000Y-6730000D02*
X16980000Y-6770000D01*
X17130000Y-6330000D02*
X17170000Y-6370000D01*
X17170000Y-6330000D02*
X17130000Y-6370000D01*
X17130000Y-6730000D02*
X17170000Y-6770000D01*
X17170000Y-6730000D02*
X17130000Y-6770000D01*
X17280000Y-6330000D02*
X17320000Y-6370000D01*
X17320000Y-6330000D02*
X17280000Y-6370000D01*
X17280000Y-6730000D02*
X17320000Y-6770000D01*
X17320000Y-6730000D02*
X17280000Y-6770000D01*
X17430000Y-6330000D02*
X17470000Y-6370000D01*
X17470000Y-6330000D02*
X17430000Y-6370000D01*
X17430000Y-6730000D02*
X17470000Y-6770000D01*
X17470000Y-6730000D02*
X17430000Y-6770000D01*
X17580000Y-6330000D02*
X17620000Y-6370000D01*
X17620000Y-6330000D02*
X17580000Y-6370000D01*
X17580000Y-6730000D02*
X17620000Y-6770000D01*
X17620000Y-6730000D02*
X17580000Y-6770000D01*
X17730000Y-6330000D02*
X17770000Y-6370000D01*
X17770000Y-6330000D02*
X17730000Y-6370000D01*
X17730000Y-6730000D02*
X17770000Y-6770000D01*
X17770000Y-6730000D02*
X17730000Y-6770000D01*
X17769261Y-6182284D02*
X17809261Y-6222284D01*
X17809261Y-6182284D02*
X17769261Y-6222284D01*
X17769261Y-6877716D02*
X17809261Y-6917716D01*
X17809261Y-6877716D02*
X17769261Y-6917716D01*
X17829189Y-6041679D02*
X17869189Y-6081679D01*
X17869189Y-6041679D02*
X17829189Y-6081679D01*
X17829189Y-7018321D02*
X17869189Y-7058321D01*
X17869189Y-7018321D02*
X17829189Y-7058321D01*
X17880000Y-6330000D02*
X17920000Y-6370000D01*
X17920000Y-6330000D02*
X17880000Y-6370000D01*
X17908558Y-5911058D02*
X17948558Y-5951058D01*
X17948558Y-5911058D02*
X17908558Y-5951058D01*
X17908558Y-7148942D02*
X17948558Y-7188942D01*
X17948558Y-7148942D02*
X17908558Y-7188942D01*
X17980000Y-6330000D02*
X18020000Y-6370000D01*
X18020000Y-6330000D02*
X17980000Y-6370000D01*
X18005747Y-5793093D02*
X18045747Y-5833093D01*
X18045747Y-5793093D02*
X18005747Y-5833093D01*
X18005747Y-7266907D02*
X18045747Y-7306907D01*
X18045747Y-7266907D02*
X18005747Y-7306907D01*
X18080000Y-6530000D02*
X18120000Y-6570000D01*
X18120000Y-6530000D02*
X18080000Y-6570000D01*
X18096068Y-6380879D02*
X18136068Y-6420879D01*
X18136068Y-6380879D02*
X18096068Y-6420879D01*
X18096068Y-6679121D02*
X18136068Y-6719121D01*
X18136068Y-6679121D02*
X18096068Y-6719121D01*
X18118767Y-5690196D02*
X18158767Y-5730196D01*
X18158767Y-5690196D02*
X18118767Y-5730196D01*
X18118767Y-7369804D02*
X18158767Y-7409804D01*
X18158767Y-7369804D02*
X18118767Y-7409804D01*
X18143535Y-6238603D02*
X18183535Y-6278603D01*
X18183535Y-6238603D02*
X18143535Y-6278603D01*
X18143535Y-6821397D02*
X18183535Y-6861397D01*
X18183535Y-6821397D02*
X18143535Y-6861397D01*
X18220221Y-6109706D02*
X18260221Y-6149706D01*
X18260221Y-6109706D02*
X18220221Y-6149706D01*
X18220221Y-6950294D02*
X18260221Y-6990294D01*
X18260221Y-6950294D02*
X18220221Y-6990294D01*
X18245307Y-5604471D02*
X18285307Y-5644471D01*
X18285307Y-5604471D02*
X18245307Y-5644471D01*
X18245307Y-7455529D02*
X18285307Y-7495529D01*
X18285307Y-7455529D02*
X18245307Y-7495529D01*
X18322606Y-6000103D02*
X18362606Y-6040103D01*
X18362606Y-6000103D02*
X18322606Y-6040103D01*
X18322606Y-7059896D02*
X18362606Y-7099896D01*
X18362606Y-7059896D02*
X18322606Y-7099896D01*
X18382781Y-5537671D02*
X18422781Y-5577671D01*
X18422781Y-5537671D02*
X18382781Y-5577671D01*
X18382781Y-7522329D02*
X18422781Y-7562329D01*
X18422781Y-7522329D02*
X18382781Y-7562329D01*
X18445989Y-5914828D02*
X18485989Y-5954828D01*
X18485989Y-5914828D02*
X18445989Y-5954828D01*
X18445989Y-7145172D02*
X18485989Y-7185172D01*
X18485989Y-7145172D02*
X18445989Y-7185172D01*
X18528377Y-5491161D02*
X18568377Y-5531161D01*
X18568377Y-5491161D02*
X18528377Y-5531161D01*
X18528377Y-7568839D02*
X18568377Y-7608839D01*
X18568377Y-7568839D02*
X18528377Y-7608839D01*
X18584706Y-5857794D02*
X18624706Y-5897794D01*
X18624706Y-5857794D02*
X18584706Y-5897794D01*
X18584706Y-7202206D02*
X18624706Y-7242206D01*
X18624706Y-7202206D02*
X18584706Y-7242206D01*
X18679118Y-5465893D02*
X18719118Y-5505893D01*
X18719118Y-5465893D02*
X18679118Y-5505893D01*
X18679118Y-7594107D02*
X18719118Y-7634107D01*
X18719118Y-7594107D02*
X18679118Y-7634107D01*
X18732389Y-5831621D02*
X18772389Y-5871621D01*
X18772389Y-5831621D02*
X18732389Y-5871621D01*
X18732389Y-7228379D02*
X18772389Y-7268379D01*
X18772389Y-7228379D02*
X18732389Y-7268379D01*
X18831922Y-5462384D02*
X18871922Y-5502384D01*
X18871922Y-5462384D02*
X18831922Y-5502384D01*
X18831922Y-7597616D02*
X18871922Y-7637616D01*
X18871922Y-7597616D02*
X18831922Y-7637616D01*
X18882258Y-5837509D02*
X18922258Y-5877509D01*
X18922258Y-5837509D02*
X18882258Y-5877509D01*
X18882258Y-7222491D02*
X18922258Y-7262491D01*
X18922258Y-7222491D02*
X18882258Y-7262491D01*
X18983664Y-5480705D02*
X19023664Y-5520705D01*
X19023664Y-5480705D02*
X18983664Y-5520705D01*
X18983664Y-7579295D02*
X19023664Y-7619295D01*
X19023664Y-7579295D02*
X18983664Y-7619295D01*
X19027432Y-5875189D02*
X19067432Y-5915189D01*
X19067432Y-5875189D02*
X19027432Y-5915189D01*
X19027432Y-7184811D02*
X19067432Y-7224811D01*
X19067432Y-7184811D02*
X19027432Y-7224811D01*
X19131242Y-5520481D02*
X19171242Y-5560481D01*
X19171242Y-5520481D02*
X19131242Y-5560481D01*
X19131242Y-7539519D02*
X19171242Y-7579519D01*
X19171242Y-7539519D02*
X19131242Y-7579519D01*
X19161247Y-5942931D02*
X19201247Y-5982931D01*
X19201247Y-5942931D02*
X19161247Y-5982931D01*
X19161247Y-7117069D02*
X19201247Y-7157069D01*
X19201247Y-7117069D02*
X19161247Y-7157069D01*
X19271637Y-5580899D02*
X19311637Y-5620899D01*
X19311637Y-5580899D02*
X19271637Y-5620899D01*
X19271637Y-7479101D02*
X19311637Y-7519101D01*
X19311637Y-7479101D02*
X19271637Y-7519101D01*
X19277560Y-6037624D02*
X19317560Y-6077624D01*
X19317560Y-6037624D02*
X19277560Y-6077624D01*
X19277560Y-7022376D02*
X19317560Y-7062376D01*
X19317560Y-7022376D02*
X19277560Y-7062376D01*
X19371030Y-6154921D02*
X19411030Y-6194921D01*
X19411030Y-6154921D02*
X19371030Y-6194921D01*
X19371030Y-6905079D02*
X19411030Y-6945079D01*
X19411030Y-6905079D02*
X19371030Y-6945079D01*
X19401980Y-5660724D02*
X19441980Y-5700724D01*
X19441980Y-5660724D02*
X19401980Y-5700724D01*
X19401980Y-7399276D02*
X19441980Y-7439276D01*
X19441980Y-7399276D02*
X19401980Y-7439276D01*
X19437366Y-6289438D02*
X19477366Y-6329438D01*
X19477366Y-6289438D02*
X19437366Y-6329438D01*
X19437366Y-6770562D02*
X19477366Y-6810562D01*
X19477366Y-6770562D02*
X19437366Y-6810562D01*
X19473524Y-6434999D02*
X19513524Y-6474999D01*
X19513524Y-6434999D02*
X19473524Y-6474999D01*
X19473524Y-6625001D02*
X19513524Y-6665001D01*
X19513524Y-6625001D02*
X19473524Y-6665001D01*
X19519605Y-5758324D02*
X19559605Y-5798324D01*
X19559605Y-5758324D02*
X19519605Y-5798324D01*
X19519605Y-7301676D02*
X19559605Y-7341676D01*
X19559605Y-7301676D02*
X19519605Y-7341676D01*
X19622107Y-5871702D02*
X19662107Y-5911702D01*
X19662107Y-5871702D02*
X19622107Y-5911702D01*
X19622107Y-7188298D02*
X19662107Y-7228298D01*
X19662107Y-7188298D02*
X19622107Y-7228298D01*
X19707390Y-5998541D02*
X19747390Y-6038541D01*
X19747390Y-5998541D02*
X19707390Y-6038541D01*
X19707390Y-7061459D02*
X19747390Y-7101459D01*
X19747390Y-7061459D02*
X19707390Y-7101459D01*
X19773710Y-6136247D02*
X19813710Y-6176247D01*
X19813710Y-6136247D02*
X19773710Y-6176247D01*
X19773710Y-6923752D02*
X19813710Y-6963752D01*
X19813710Y-6923752D02*
X19773710Y-6963752D01*
X19819711Y-6282005D02*
X19859711Y-6322005D01*
X19859711Y-6282005D02*
X19819711Y-6322005D01*
X19819711Y-6777995D02*
X19859711Y-6817995D01*
X19859711Y-6777995D02*
X19819711Y-6817995D01*
X19844452Y-6432833D02*
X19884452Y-6472833D01*
X19884452Y-6432833D02*
X19844452Y-6472833D01*
X19844452Y-6627167D02*
X19884452Y-6667167D01*
X19884452Y-6627167D02*
X19844452Y-6667167D01*
X10270000Y-6217500D02*
G75*
G03*
X10270000Y-6217500I-20000J0D01*
G01*
X10270000Y-6882500D02*
G75*
G03*
X10270000Y-6882500I-20000J0D01*
G01*
D11*
X10240119Y-8020024D02*
X10240119Y-7820024D01*
X10240119Y-7820024D02*
X10287738Y-7820024D01*
X10287738Y-7820024D02*
X10316310Y-7829548D01*
X10316310Y-7829548D02*
X10335357Y-7848595D01*
X10335357Y-7848595D02*
X10344881Y-7867643D01*
X10344881Y-7867643D02*
X10354405Y-7905738D01*
X10354405Y-7905738D02*
X10354405Y-7934309D01*
X10354405Y-7934309D02*
X10344881Y-7972405D01*
X10344881Y-7972405D02*
X10335357Y-7991452D01*
X10335357Y-7991452D02*
X10316310Y-8010500D01*
X10316310Y-8010500D02*
X10287738Y-8020024D01*
X10287738Y-8020024D02*
X10240119Y-8020024D01*
X10440119Y-8020024D02*
X10440119Y-7886690D01*
X10440119Y-7924786D02*
X10449643Y-7905738D01*
X10449643Y-7905738D02*
X10459167Y-7896214D01*
X10459167Y-7896214D02*
X10478214Y-7886690D01*
X10478214Y-7886690D02*
X10497262Y-7886690D01*
X10563929Y-8020024D02*
X10563929Y-7886690D01*
X10563929Y-7820024D02*
X10554405Y-7829548D01*
X10554405Y-7829548D02*
X10563929Y-7839071D01*
X10563929Y-7839071D02*
X10573452Y-7829548D01*
X10573452Y-7829548D02*
X10563929Y-7820024D01*
X10563929Y-7820024D02*
X10563929Y-7839071D01*
X10687738Y-8020024D02*
X10668690Y-8010500D01*
X10668690Y-8010500D02*
X10659167Y-7991452D01*
X10659167Y-7991452D02*
X10659167Y-7820024D01*
X10792500Y-8020024D02*
X10773452Y-8010500D01*
X10773452Y-8010500D02*
X10763929Y-7991452D01*
X10763929Y-7991452D02*
X10763929Y-7820024D01*
X11021071Y-8020024D02*
X11021071Y-7820024D01*
X11021071Y-7820024D02*
X11087738Y-7962881D01*
X11087738Y-7962881D02*
X11154405Y-7820024D01*
X11154405Y-7820024D02*
X11154405Y-8020024D01*
X11335357Y-8020024D02*
X11335357Y-7915262D01*
X11335357Y-7915262D02*
X11325833Y-7896214D01*
X11325833Y-7896214D02*
X11306786Y-7886690D01*
X11306786Y-7886690D02*
X11268690Y-7886690D01*
X11268690Y-7886690D02*
X11249643Y-7896214D01*
X11335357Y-8010500D02*
X11316309Y-8020024D01*
X11316309Y-8020024D02*
X11268690Y-8020024D01*
X11268690Y-8020024D02*
X11249643Y-8010500D01*
X11249643Y-8010500D02*
X11240119Y-7991452D01*
X11240119Y-7991452D02*
X11240119Y-7972405D01*
X11240119Y-7972405D02*
X11249643Y-7953357D01*
X11249643Y-7953357D02*
X11268690Y-7943833D01*
X11268690Y-7943833D02*
X11316309Y-7943833D01*
X11316309Y-7943833D02*
X11335357Y-7934309D01*
X11430595Y-7886690D02*
X11430595Y-8086690D01*
X11430595Y-7896214D02*
X11449643Y-7886690D01*
X11449643Y-7886690D02*
X11487738Y-7886690D01*
X11487738Y-7886690D02*
X11506786Y-7896214D01*
X11506786Y-7896214D02*
X11516309Y-7905738D01*
X11516309Y-7905738D02*
X11525833Y-7924786D01*
X11525833Y-7924786D02*
X11525833Y-7981928D01*
X11525833Y-7981928D02*
X11516309Y-8000976D01*
X11516309Y-8000976D02*
X11506786Y-8010500D01*
X11506786Y-8010500D02*
X11487738Y-8020024D01*
X11487738Y-8020024D02*
X11449643Y-8020024D01*
X11449643Y-8020024D02*
X11430595Y-8010500D01*
X11611548Y-8000976D02*
X11621071Y-8010500D01*
X11621071Y-8010500D02*
X11611548Y-8020024D01*
X11611548Y-8020024D02*
X11602024Y-8010500D01*
X11602024Y-8010500D02*
X11611548Y-8000976D01*
X11611548Y-8000976D02*
X11611548Y-8020024D01*
X11611548Y-7896214D02*
X11621071Y-7905738D01*
X11621071Y-7905738D02*
X11611548Y-7915262D01*
X11611548Y-7915262D02*
X11602024Y-7905738D01*
X11602024Y-7905738D02*
X11611548Y-7896214D01*
X11611548Y-7896214D02*
X11611548Y-7915262D01*
D12*
X9952500Y-8327500D02*
X9992500Y-8367500D01*
X9992500Y-8327500D02*
X9952500Y-8367500D01*
D11*
X10278214Y-8240024D02*
X10297262Y-8240024D01*
X10297262Y-8240024D02*
X10316310Y-8249548D01*
X10316310Y-8249548D02*
X10325833Y-8259071D01*
X10325833Y-8259071D02*
X10335357Y-8278119D01*
X10335357Y-8278119D02*
X10344881Y-8316214D01*
X10344881Y-8316214D02*
X10344881Y-8363833D01*
X10344881Y-8363833D02*
X10335357Y-8401929D01*
X10335357Y-8401929D02*
X10325833Y-8420976D01*
X10325833Y-8420976D02*
X10316310Y-8430500D01*
X10316310Y-8430500D02*
X10297262Y-8440024D01*
X10297262Y-8440024D02*
X10278214Y-8440024D01*
X10278214Y-8440024D02*
X10259167Y-8430500D01*
X10259167Y-8430500D02*
X10249643Y-8420976D01*
X10249643Y-8420976D02*
X10240119Y-8401929D01*
X10240119Y-8401929D02*
X10230595Y-8363833D01*
X10230595Y-8363833D02*
X10230595Y-8316214D01*
X10230595Y-8316214D02*
X10240119Y-8278119D01*
X10240119Y-8278119D02*
X10249643Y-8259071D01*
X10249643Y-8259071D02*
X10259167Y-8249548D01*
X10259167Y-8249548D02*
X10278214Y-8240024D01*
X10430595Y-8420976D02*
X10440119Y-8430500D01*
X10440119Y-8430500D02*
X10430595Y-8440024D01*
X10430595Y-8440024D02*
X10421071Y-8430500D01*
X10421071Y-8430500D02*
X10430595Y-8420976D01*
X10430595Y-8420976D02*
X10430595Y-8440024D01*
X10611548Y-8306690D02*
X10611548Y-8440024D01*
X10563929Y-8230500D02*
X10516310Y-8373357D01*
X10516310Y-8373357D02*
X10640119Y-8373357D01*
X10754405Y-8240024D02*
X10773452Y-8240024D01*
X10773452Y-8240024D02*
X10792500Y-8249548D01*
X10792500Y-8249548D02*
X10802024Y-8259071D01*
X10802024Y-8259071D02*
X10811548Y-8278119D01*
X10811548Y-8278119D02*
X10821071Y-8316214D01*
X10821071Y-8316214D02*
X10821071Y-8363833D01*
X10821071Y-8363833D02*
X10811548Y-8401929D01*
X10811548Y-8401929D02*
X10802024Y-8420976D01*
X10802024Y-8420976D02*
X10792500Y-8430500D01*
X10792500Y-8430500D02*
X10773452Y-8440024D01*
X10773452Y-8440024D02*
X10754405Y-8440024D01*
X10754405Y-8440024D02*
X10735357Y-8430500D01*
X10735357Y-8430500D02*
X10725833Y-8420976D01*
X10725833Y-8420976D02*
X10716310Y-8401929D01*
X10716310Y-8401929D02*
X10706786Y-8363833D01*
X10706786Y-8363833D02*
X10706786Y-8316214D01*
X10706786Y-8316214D02*
X10716310Y-8278119D01*
X10716310Y-8278119D02*
X10725833Y-8259071D01*
X10725833Y-8259071D02*
X10735357Y-8249548D01*
X10735357Y-8249548D02*
X10754405Y-8240024D01*
X10944881Y-8240024D02*
X10963929Y-8240024D01*
X10963929Y-8240024D02*
X10982976Y-8249548D01*
X10982976Y-8249548D02*
X10992500Y-8259071D01*
X10992500Y-8259071D02*
X11002024Y-8278119D01*
X11002024Y-8278119D02*
X11011548Y-8316214D01*
X11011548Y-8316214D02*
X11011548Y-8363833D01*
X11011548Y-8363833D02*
X11002024Y-8401929D01*
X11002024Y-8401929D02*
X10992500Y-8420976D01*
X10992500Y-8420976D02*
X10982976Y-8430500D01*
X10982976Y-8430500D02*
X10963929Y-8440024D01*
X10963929Y-8440024D02*
X10944881Y-8440024D01*
X10944881Y-8440024D02*
X10925833Y-8430500D01*
X10925833Y-8430500D02*
X10916310Y-8420976D01*
X10916310Y-8420976D02*
X10906786Y-8401929D01*
X10906786Y-8401929D02*
X10897262Y-8363833D01*
X10897262Y-8363833D02*
X10897262Y-8316214D01*
X10897262Y-8316214D02*
X10906786Y-8278119D01*
X10906786Y-8278119D02*
X10916310Y-8259071D01*
X10916310Y-8259071D02*
X10925833Y-8249548D01*
X10925833Y-8249548D02*
X10944881Y-8240024D01*
X11097262Y-8440024D02*
X11097262Y-8306690D01*
X11097262Y-8325738D02*
X11106786Y-8316214D01*
X11106786Y-8316214D02*
X11125833Y-8306690D01*
X11125833Y-8306690D02*
X11154405Y-8306690D01*
X11154405Y-8306690D02*
X11173452Y-8316214D01*
X11173452Y-8316214D02*
X11182976Y-8335262D01*
X11182976Y-8335262D02*
X11182976Y-8440024D01*
X11182976Y-8335262D02*
X11192500Y-8316214D01*
X11192500Y-8316214D02*
X11211548Y-8306690D01*
X11211548Y-8306690D02*
X11240119Y-8306690D01*
X11240119Y-8306690D02*
X11259167Y-8316214D01*
X11259167Y-8316214D02*
X11268690Y-8335262D01*
X11268690Y-8335262D02*
X11268690Y-8440024D01*
X11363929Y-8440024D02*
X11363929Y-8306690D01*
X11363929Y-8325738D02*
X11373452Y-8316214D01*
X11373452Y-8316214D02*
X11392500Y-8306690D01*
X11392500Y-8306690D02*
X11421071Y-8306690D01*
X11421071Y-8306690D02*
X11440119Y-8316214D01*
X11440119Y-8316214D02*
X11449643Y-8335262D01*
X11449643Y-8335262D02*
X11449643Y-8440024D01*
X11449643Y-8335262D02*
X11459167Y-8316214D01*
X11459167Y-8316214D02*
X11478214Y-8306690D01*
X11478214Y-8306690D02*
X11506786Y-8306690D01*
X11506786Y-8306690D02*
X11525833Y-8316214D01*
X11525833Y-8316214D02*
X11535357Y-8335262D01*
X11535357Y-8335262D02*
X11535357Y-8440024D01*
X11925833Y-8230500D02*
X11754405Y-8487643D01*
X12182976Y-8240024D02*
X12202024Y-8240024D01*
X12202024Y-8240024D02*
X12221072Y-8249548D01*
X12221072Y-8249548D02*
X12230595Y-8259071D01*
X12230595Y-8259071D02*
X12240119Y-8278119D01*
X12240119Y-8278119D02*
X12249643Y-8316214D01*
X12249643Y-8316214D02*
X12249643Y-8363833D01*
X12249643Y-8363833D02*
X12240119Y-8401929D01*
X12240119Y-8401929D02*
X12230595Y-8420976D01*
X12230595Y-8420976D02*
X12221072Y-8430500D01*
X12221072Y-8430500D02*
X12202024Y-8440024D01*
X12202024Y-8440024D02*
X12182976Y-8440024D01*
X12182976Y-8440024D02*
X12163929Y-8430500D01*
X12163929Y-8430500D02*
X12154405Y-8420976D01*
X12154405Y-8420976D02*
X12144881Y-8401929D01*
X12144881Y-8401929D02*
X12135357Y-8363833D01*
X12135357Y-8363833D02*
X12135357Y-8316214D01*
X12135357Y-8316214D02*
X12144881Y-8278119D01*
X12144881Y-8278119D02*
X12154405Y-8259071D01*
X12154405Y-8259071D02*
X12163929Y-8249548D01*
X12163929Y-8249548D02*
X12182976Y-8240024D01*
X12335357Y-8420976D02*
X12344881Y-8430500D01*
X12344881Y-8430500D02*
X12335357Y-8440024D01*
X12335357Y-8440024D02*
X12325833Y-8430500D01*
X12325833Y-8430500D02*
X12335357Y-8420976D01*
X12335357Y-8420976D02*
X12335357Y-8440024D01*
X12468691Y-8240024D02*
X12487738Y-8240024D01*
X12487738Y-8240024D02*
X12506786Y-8249548D01*
X12506786Y-8249548D02*
X12516310Y-8259071D01*
X12516310Y-8259071D02*
X12525833Y-8278119D01*
X12525833Y-8278119D02*
X12535357Y-8316214D01*
X12535357Y-8316214D02*
X12535357Y-8363833D01*
X12535357Y-8363833D02*
X12525833Y-8401929D01*
X12525833Y-8401929D02*
X12516310Y-8420976D01*
X12516310Y-8420976D02*
X12506786Y-8430500D01*
X12506786Y-8430500D02*
X12487738Y-8440024D01*
X12487738Y-8440024D02*
X12468691Y-8440024D01*
X12468691Y-8440024D02*
X12449643Y-8430500D01*
X12449643Y-8430500D02*
X12440119Y-8420976D01*
X12440119Y-8420976D02*
X12430595Y-8401929D01*
X12430595Y-8401929D02*
X12421072Y-8363833D01*
X12421072Y-8363833D02*
X12421072Y-8316214D01*
X12421072Y-8316214D02*
X12430595Y-8278119D01*
X12430595Y-8278119D02*
X12440119Y-8259071D01*
X12440119Y-8259071D02*
X12449643Y-8249548D01*
X12449643Y-8249548D02*
X12468691Y-8240024D01*
X12725833Y-8440024D02*
X12611548Y-8440024D01*
X12668691Y-8440024D02*
X12668691Y-8240024D01*
X12668691Y-8240024D02*
X12649643Y-8268595D01*
X12649643Y-8268595D02*
X12630595Y-8287643D01*
X12630595Y-8287643D02*
X12611548Y-8297167D01*
X12906786Y-8240024D02*
X12811548Y-8240024D01*
X12811548Y-8240024D02*
X12802024Y-8335262D01*
X12802024Y-8335262D02*
X12811548Y-8325738D01*
X12811548Y-8325738D02*
X12830595Y-8316214D01*
X12830595Y-8316214D02*
X12878214Y-8316214D01*
X12878214Y-8316214D02*
X12897262Y-8325738D01*
X12897262Y-8325738D02*
X12906786Y-8335262D01*
X12906786Y-8335262D02*
X12916310Y-8354309D01*
X12916310Y-8354309D02*
X12916310Y-8401929D01*
X12916310Y-8401929D02*
X12906786Y-8420976D01*
X12906786Y-8420976D02*
X12897262Y-8430500D01*
X12897262Y-8430500D02*
X12878214Y-8440024D01*
X12878214Y-8440024D02*
X12830595Y-8440024D01*
X12830595Y-8440024D02*
X12811548Y-8430500D01*
X12811548Y-8430500D02*
X12802024Y-8420976D01*
X12982976Y-8240024D02*
X13116310Y-8240024D01*
X13116310Y-8240024D02*
X13030595Y-8440024D01*
X13182976Y-8240024D02*
X13182976Y-8278119D01*
X13259167Y-8240024D02*
X13259167Y-8278119D01*
X13554405Y-8516214D02*
X13544881Y-8506690D01*
X13544881Y-8506690D02*
X13525834Y-8478119D01*
X13525834Y-8478119D02*
X13516310Y-8459071D01*
X13516310Y-8459071D02*
X13506786Y-8430500D01*
X13506786Y-8430500D02*
X13497262Y-8382881D01*
X13497262Y-8382881D02*
X13497262Y-8344786D01*
X13497262Y-8344786D02*
X13506786Y-8297167D01*
X13506786Y-8297167D02*
X13516310Y-8268595D01*
X13516310Y-8268595D02*
X13525834Y-8249548D01*
X13525834Y-8249548D02*
X13544881Y-8220976D01*
X13544881Y-8220976D02*
X13554405Y-8211452D01*
X13735357Y-8440024D02*
X13621072Y-8440024D01*
X13678214Y-8440024D02*
X13678214Y-8240024D01*
X13678214Y-8240024D02*
X13659167Y-8268595D01*
X13659167Y-8268595D02*
X13640119Y-8287643D01*
X13640119Y-8287643D02*
X13621072Y-8297167D01*
X13849643Y-8325738D02*
X13830595Y-8316214D01*
X13830595Y-8316214D02*
X13821072Y-8306690D01*
X13821072Y-8306690D02*
X13811548Y-8287643D01*
X13811548Y-8287643D02*
X13811548Y-8278119D01*
X13811548Y-8278119D02*
X13821072Y-8259071D01*
X13821072Y-8259071D02*
X13830595Y-8249548D01*
X13830595Y-8249548D02*
X13849643Y-8240024D01*
X13849643Y-8240024D02*
X13887738Y-8240024D01*
X13887738Y-8240024D02*
X13906786Y-8249548D01*
X13906786Y-8249548D02*
X13916310Y-8259071D01*
X13916310Y-8259071D02*
X13925834Y-8278119D01*
X13925834Y-8278119D02*
X13925834Y-8287643D01*
X13925834Y-8287643D02*
X13916310Y-8306690D01*
X13916310Y-8306690D02*
X13906786Y-8316214D01*
X13906786Y-8316214D02*
X13887738Y-8325738D01*
X13887738Y-8325738D02*
X13849643Y-8325738D01*
X13849643Y-8325738D02*
X13830595Y-8335262D01*
X13830595Y-8335262D02*
X13821072Y-8344786D01*
X13821072Y-8344786D02*
X13811548Y-8363833D01*
X13811548Y-8363833D02*
X13811548Y-8401929D01*
X13811548Y-8401929D02*
X13821072Y-8420976D01*
X13821072Y-8420976D02*
X13830595Y-8430500D01*
X13830595Y-8430500D02*
X13849643Y-8440024D01*
X13849643Y-8440024D02*
X13887738Y-8440024D01*
X13887738Y-8440024D02*
X13906786Y-8430500D01*
X13906786Y-8430500D02*
X13916310Y-8420976D01*
X13916310Y-8420976D02*
X13925834Y-8401929D01*
X13925834Y-8401929D02*
X13925834Y-8363833D01*
X13925834Y-8363833D02*
X13916310Y-8344786D01*
X13916310Y-8344786D02*
X13906786Y-8335262D01*
X13906786Y-8335262D02*
X13887738Y-8325738D01*
X14040119Y-8325738D02*
X14021072Y-8316214D01*
X14021072Y-8316214D02*
X14011548Y-8306690D01*
X14011548Y-8306690D02*
X14002024Y-8287643D01*
X14002024Y-8287643D02*
X14002024Y-8278119D01*
X14002024Y-8278119D02*
X14011548Y-8259071D01*
X14011548Y-8259071D02*
X14021072Y-8249548D01*
X14021072Y-8249548D02*
X14040119Y-8240024D01*
X14040119Y-8240024D02*
X14078215Y-8240024D01*
X14078215Y-8240024D02*
X14097262Y-8249548D01*
X14097262Y-8249548D02*
X14106786Y-8259071D01*
X14106786Y-8259071D02*
X14116310Y-8278119D01*
X14116310Y-8278119D02*
X14116310Y-8287643D01*
X14116310Y-8287643D02*
X14106786Y-8306690D01*
X14106786Y-8306690D02*
X14097262Y-8316214D01*
X14097262Y-8316214D02*
X14078215Y-8325738D01*
X14078215Y-8325738D02*
X14040119Y-8325738D01*
X14040119Y-8325738D02*
X14021072Y-8335262D01*
X14021072Y-8335262D02*
X14011548Y-8344786D01*
X14011548Y-8344786D02*
X14002024Y-8363833D01*
X14002024Y-8363833D02*
X14002024Y-8401929D01*
X14002024Y-8401929D02*
X14011548Y-8420976D01*
X14011548Y-8420976D02*
X14021072Y-8430500D01*
X14021072Y-8430500D02*
X14040119Y-8440024D01*
X14040119Y-8440024D02*
X14078215Y-8440024D01*
X14078215Y-8440024D02*
X14097262Y-8430500D01*
X14097262Y-8430500D02*
X14106786Y-8420976D01*
X14106786Y-8420976D02*
X14116310Y-8401929D01*
X14116310Y-8401929D02*
X14116310Y-8363833D01*
X14116310Y-8363833D02*
X14106786Y-8344786D01*
X14106786Y-8344786D02*
X14097262Y-8335262D01*
X14097262Y-8335262D02*
X14078215Y-8325738D01*
X14354405Y-8440024D02*
X14354405Y-8240024D01*
X14440119Y-8440024D02*
X14440119Y-8335262D01*
X14440119Y-8335262D02*
X14430596Y-8316214D01*
X14430596Y-8316214D02*
X14411548Y-8306690D01*
X14411548Y-8306690D02*
X14382976Y-8306690D01*
X14382976Y-8306690D02*
X14363929Y-8316214D01*
X14363929Y-8316214D02*
X14354405Y-8325738D01*
X14563929Y-8440024D02*
X14544881Y-8430500D01*
X14544881Y-8430500D02*
X14535357Y-8420976D01*
X14535357Y-8420976D02*
X14525834Y-8401929D01*
X14525834Y-8401929D02*
X14525834Y-8344786D01*
X14525834Y-8344786D02*
X14535357Y-8325738D01*
X14535357Y-8325738D02*
X14544881Y-8316214D01*
X14544881Y-8316214D02*
X14563929Y-8306690D01*
X14563929Y-8306690D02*
X14592500Y-8306690D01*
X14592500Y-8306690D02*
X14611548Y-8316214D01*
X14611548Y-8316214D02*
X14621072Y-8325738D01*
X14621072Y-8325738D02*
X14630596Y-8344786D01*
X14630596Y-8344786D02*
X14630596Y-8401929D01*
X14630596Y-8401929D02*
X14621072Y-8420976D01*
X14621072Y-8420976D02*
X14611548Y-8430500D01*
X14611548Y-8430500D02*
X14592500Y-8440024D01*
X14592500Y-8440024D02*
X14563929Y-8440024D01*
X14744881Y-8440024D02*
X14725834Y-8430500D01*
X14725834Y-8430500D02*
X14716310Y-8411452D01*
X14716310Y-8411452D02*
X14716310Y-8240024D01*
X14897262Y-8430500D02*
X14878215Y-8440024D01*
X14878215Y-8440024D02*
X14840119Y-8440024D01*
X14840119Y-8440024D02*
X14821072Y-8430500D01*
X14821072Y-8430500D02*
X14811548Y-8411452D01*
X14811548Y-8411452D02*
X14811548Y-8335262D01*
X14811548Y-8335262D02*
X14821072Y-8316214D01*
X14821072Y-8316214D02*
X14840119Y-8306690D01*
X14840119Y-8306690D02*
X14878215Y-8306690D01*
X14878215Y-8306690D02*
X14897262Y-8316214D01*
X14897262Y-8316214D02*
X14906786Y-8335262D01*
X14906786Y-8335262D02*
X14906786Y-8354309D01*
X14906786Y-8354309D02*
X14811548Y-8373357D01*
X14982977Y-8430500D02*
X15002024Y-8440024D01*
X15002024Y-8440024D02*
X15040119Y-8440024D01*
X15040119Y-8440024D02*
X15059167Y-8430500D01*
X15059167Y-8430500D02*
X15068691Y-8411452D01*
X15068691Y-8411452D02*
X15068691Y-8401929D01*
X15068691Y-8401929D02*
X15059167Y-8382881D01*
X15059167Y-8382881D02*
X15040119Y-8373357D01*
X15040119Y-8373357D02*
X15011548Y-8373357D01*
X15011548Y-8373357D02*
X14992500Y-8363833D01*
X14992500Y-8363833D02*
X14982977Y-8344786D01*
X14982977Y-8344786D02*
X14982977Y-8335262D01*
X14982977Y-8335262D02*
X14992500Y-8316214D01*
X14992500Y-8316214D02*
X15011548Y-8306690D01*
X15011548Y-8306690D02*
X15040119Y-8306690D01*
X15040119Y-8306690D02*
X15059167Y-8316214D01*
X15135358Y-8516214D02*
X15144881Y-8506690D01*
X15144881Y-8506690D02*
X15163929Y-8478119D01*
X15163929Y-8478119D02*
X15173453Y-8459071D01*
X15173453Y-8459071D02*
X15182977Y-8430500D01*
X15182977Y-8430500D02*
X15192500Y-8382881D01*
X15192500Y-8382881D02*
X15192500Y-8344786D01*
X15192500Y-8344786D02*
X15182977Y-8297167D01*
X15182977Y-8297167D02*
X15173453Y-8268595D01*
X15173453Y-8268595D02*
X15163929Y-8249548D01*
X15163929Y-8249548D02*
X15144881Y-8220976D01*
X15144881Y-8220976D02*
X15135358Y-8211452D01*
D12*
X9992500Y-8611500D02*
G75*
G03*
X9992500Y-8611500I-20000J0D01*
G01*
D11*
X10278214Y-8504024D02*
X10297262Y-8504024D01*
X10297262Y-8504024D02*
X10316310Y-8513548D01*
X10316310Y-8513548D02*
X10325833Y-8523071D01*
X10325833Y-8523071D02*
X10335357Y-8542119D01*
X10335357Y-8542119D02*
X10344881Y-8580214D01*
X10344881Y-8580214D02*
X10344881Y-8627833D01*
X10344881Y-8627833D02*
X10335357Y-8665929D01*
X10335357Y-8665929D02*
X10325833Y-8684976D01*
X10325833Y-8684976D02*
X10316310Y-8694500D01*
X10316310Y-8694500D02*
X10297262Y-8704024D01*
X10297262Y-8704024D02*
X10278214Y-8704024D01*
X10278214Y-8704024D02*
X10259167Y-8694500D01*
X10259167Y-8694500D02*
X10249643Y-8684976D01*
X10249643Y-8684976D02*
X10240119Y-8665929D01*
X10240119Y-8665929D02*
X10230595Y-8627833D01*
X10230595Y-8627833D02*
X10230595Y-8580214D01*
X10230595Y-8580214D02*
X10240119Y-8542119D01*
X10240119Y-8542119D02*
X10249643Y-8523071D01*
X10249643Y-8523071D02*
X10259167Y-8513548D01*
X10259167Y-8513548D02*
X10278214Y-8504024D01*
X10430595Y-8684976D02*
X10440119Y-8694500D01*
X10440119Y-8694500D02*
X10430595Y-8704024D01*
X10430595Y-8704024D02*
X10421071Y-8694500D01*
X10421071Y-8694500D02*
X10430595Y-8684976D01*
X10430595Y-8684976D02*
X10430595Y-8704024D01*
X10611548Y-8570690D02*
X10611548Y-8704024D01*
X10563929Y-8494500D02*
X10516310Y-8637357D01*
X10516310Y-8637357D02*
X10640119Y-8637357D01*
X10754405Y-8504024D02*
X10773452Y-8504024D01*
X10773452Y-8504024D02*
X10792500Y-8513548D01*
X10792500Y-8513548D02*
X10802024Y-8523071D01*
X10802024Y-8523071D02*
X10811548Y-8542119D01*
X10811548Y-8542119D02*
X10821071Y-8580214D01*
X10821071Y-8580214D02*
X10821071Y-8627833D01*
X10821071Y-8627833D02*
X10811548Y-8665929D01*
X10811548Y-8665929D02*
X10802024Y-8684976D01*
X10802024Y-8684976D02*
X10792500Y-8694500D01*
X10792500Y-8694500D02*
X10773452Y-8704024D01*
X10773452Y-8704024D02*
X10754405Y-8704024D01*
X10754405Y-8704024D02*
X10735357Y-8694500D01*
X10735357Y-8694500D02*
X10725833Y-8684976D01*
X10725833Y-8684976D02*
X10716310Y-8665929D01*
X10716310Y-8665929D02*
X10706786Y-8627833D01*
X10706786Y-8627833D02*
X10706786Y-8580214D01*
X10706786Y-8580214D02*
X10716310Y-8542119D01*
X10716310Y-8542119D02*
X10725833Y-8523071D01*
X10725833Y-8523071D02*
X10735357Y-8513548D01*
X10735357Y-8513548D02*
X10754405Y-8504024D01*
X10944881Y-8504024D02*
X10963929Y-8504024D01*
X10963929Y-8504024D02*
X10982976Y-8513548D01*
X10982976Y-8513548D02*
X10992500Y-8523071D01*
X10992500Y-8523071D02*
X11002024Y-8542119D01*
X11002024Y-8542119D02*
X11011548Y-8580214D01*
X11011548Y-8580214D02*
X11011548Y-8627833D01*
X11011548Y-8627833D02*
X11002024Y-8665929D01*
X11002024Y-8665929D02*
X10992500Y-8684976D01*
X10992500Y-8684976D02*
X10982976Y-8694500D01*
X10982976Y-8694500D02*
X10963929Y-8704024D01*
X10963929Y-8704024D02*
X10944881Y-8704024D01*
X10944881Y-8704024D02*
X10925833Y-8694500D01*
X10925833Y-8694500D02*
X10916310Y-8684976D01*
X10916310Y-8684976D02*
X10906786Y-8665929D01*
X10906786Y-8665929D02*
X10897262Y-8627833D01*
X10897262Y-8627833D02*
X10897262Y-8580214D01*
X10897262Y-8580214D02*
X10906786Y-8542119D01*
X10906786Y-8542119D02*
X10916310Y-8523071D01*
X10916310Y-8523071D02*
X10925833Y-8513548D01*
X10925833Y-8513548D02*
X10944881Y-8504024D01*
X11097262Y-8704024D02*
X11097262Y-8570690D01*
X11097262Y-8589738D02*
X11106786Y-8580214D01*
X11106786Y-8580214D02*
X11125833Y-8570690D01*
X11125833Y-8570690D02*
X11154405Y-8570690D01*
X11154405Y-8570690D02*
X11173452Y-8580214D01*
X11173452Y-8580214D02*
X11182976Y-8599262D01*
X11182976Y-8599262D02*
X11182976Y-8704024D01*
X11182976Y-8599262D02*
X11192500Y-8580214D01*
X11192500Y-8580214D02*
X11211548Y-8570690D01*
X11211548Y-8570690D02*
X11240119Y-8570690D01*
X11240119Y-8570690D02*
X11259167Y-8580214D01*
X11259167Y-8580214D02*
X11268690Y-8599262D01*
X11268690Y-8599262D02*
X11268690Y-8704024D01*
X11363929Y-8704024D02*
X11363929Y-8570690D01*
X11363929Y-8589738D02*
X11373452Y-8580214D01*
X11373452Y-8580214D02*
X11392500Y-8570690D01*
X11392500Y-8570690D02*
X11421071Y-8570690D01*
X11421071Y-8570690D02*
X11440119Y-8580214D01*
X11440119Y-8580214D02*
X11449643Y-8599262D01*
X11449643Y-8599262D02*
X11449643Y-8704024D01*
X11449643Y-8599262D02*
X11459167Y-8580214D01*
X11459167Y-8580214D02*
X11478214Y-8570690D01*
X11478214Y-8570690D02*
X11506786Y-8570690D01*
X11506786Y-8570690D02*
X11525833Y-8580214D01*
X11525833Y-8580214D02*
X11535357Y-8599262D01*
X11535357Y-8599262D02*
X11535357Y-8704024D01*
X11925833Y-8494500D02*
X11754405Y-8751643D01*
X12182976Y-8504024D02*
X12202024Y-8504024D01*
X12202024Y-8504024D02*
X12221072Y-8513548D01*
X12221072Y-8513548D02*
X12230595Y-8523071D01*
X12230595Y-8523071D02*
X12240119Y-8542119D01*
X12240119Y-8542119D02*
X12249643Y-8580214D01*
X12249643Y-8580214D02*
X12249643Y-8627833D01*
X12249643Y-8627833D02*
X12240119Y-8665929D01*
X12240119Y-8665929D02*
X12230595Y-8684976D01*
X12230595Y-8684976D02*
X12221072Y-8694500D01*
X12221072Y-8694500D02*
X12202024Y-8704024D01*
X12202024Y-8704024D02*
X12182976Y-8704024D01*
X12182976Y-8704024D02*
X12163929Y-8694500D01*
X12163929Y-8694500D02*
X12154405Y-8684976D01*
X12154405Y-8684976D02*
X12144881Y-8665929D01*
X12144881Y-8665929D02*
X12135357Y-8627833D01*
X12135357Y-8627833D02*
X12135357Y-8580214D01*
X12135357Y-8580214D02*
X12144881Y-8542119D01*
X12144881Y-8542119D02*
X12154405Y-8523071D01*
X12154405Y-8523071D02*
X12163929Y-8513548D01*
X12163929Y-8513548D02*
X12182976Y-8504024D01*
X12335357Y-8684976D02*
X12344881Y-8694500D01*
X12344881Y-8694500D02*
X12335357Y-8704024D01*
X12335357Y-8704024D02*
X12325833Y-8694500D01*
X12325833Y-8694500D02*
X12335357Y-8684976D01*
X12335357Y-8684976D02*
X12335357Y-8704024D01*
X12468691Y-8504024D02*
X12487738Y-8504024D01*
X12487738Y-8504024D02*
X12506786Y-8513548D01*
X12506786Y-8513548D02*
X12516310Y-8523071D01*
X12516310Y-8523071D02*
X12525833Y-8542119D01*
X12525833Y-8542119D02*
X12535357Y-8580214D01*
X12535357Y-8580214D02*
X12535357Y-8627833D01*
X12535357Y-8627833D02*
X12525833Y-8665929D01*
X12525833Y-8665929D02*
X12516310Y-8684976D01*
X12516310Y-8684976D02*
X12506786Y-8694500D01*
X12506786Y-8694500D02*
X12487738Y-8704024D01*
X12487738Y-8704024D02*
X12468691Y-8704024D01*
X12468691Y-8704024D02*
X12449643Y-8694500D01*
X12449643Y-8694500D02*
X12440119Y-8684976D01*
X12440119Y-8684976D02*
X12430595Y-8665929D01*
X12430595Y-8665929D02*
X12421072Y-8627833D01*
X12421072Y-8627833D02*
X12421072Y-8580214D01*
X12421072Y-8580214D02*
X12430595Y-8542119D01*
X12430595Y-8542119D02*
X12440119Y-8523071D01*
X12440119Y-8523071D02*
X12449643Y-8513548D01*
X12449643Y-8513548D02*
X12468691Y-8504024D01*
X12725833Y-8704024D02*
X12611548Y-8704024D01*
X12668691Y-8704024D02*
X12668691Y-8504024D01*
X12668691Y-8504024D02*
X12649643Y-8532595D01*
X12649643Y-8532595D02*
X12630595Y-8551643D01*
X12630595Y-8551643D02*
X12611548Y-8561167D01*
X12906786Y-8504024D02*
X12811548Y-8504024D01*
X12811548Y-8504024D02*
X12802024Y-8599262D01*
X12802024Y-8599262D02*
X12811548Y-8589738D01*
X12811548Y-8589738D02*
X12830595Y-8580214D01*
X12830595Y-8580214D02*
X12878214Y-8580214D01*
X12878214Y-8580214D02*
X12897262Y-8589738D01*
X12897262Y-8589738D02*
X12906786Y-8599262D01*
X12906786Y-8599262D02*
X12916310Y-8618310D01*
X12916310Y-8618310D02*
X12916310Y-8665929D01*
X12916310Y-8665929D02*
X12906786Y-8684976D01*
X12906786Y-8684976D02*
X12897262Y-8694500D01*
X12897262Y-8694500D02*
X12878214Y-8704024D01*
X12878214Y-8704024D02*
X12830595Y-8704024D01*
X12830595Y-8704024D02*
X12811548Y-8694500D01*
X12811548Y-8694500D02*
X12802024Y-8684976D01*
X12982976Y-8504024D02*
X13116310Y-8504024D01*
X13116310Y-8504024D02*
X13030595Y-8704024D01*
X13182976Y-8504024D02*
X13182976Y-8542119D01*
X13259167Y-8504024D02*
X13259167Y-8542119D01*
X13554405Y-8780214D02*
X13544881Y-8770690D01*
X13544881Y-8770690D02*
X13525834Y-8742119D01*
X13525834Y-8742119D02*
X13516310Y-8723071D01*
X13516310Y-8723071D02*
X13506786Y-8694500D01*
X13506786Y-8694500D02*
X13497262Y-8646881D01*
X13497262Y-8646881D02*
X13497262Y-8608786D01*
X13497262Y-8608786D02*
X13506786Y-8561167D01*
X13506786Y-8561167D02*
X13516310Y-8532595D01*
X13516310Y-8532595D02*
X13525834Y-8513548D01*
X13525834Y-8513548D02*
X13544881Y-8484976D01*
X13544881Y-8484976D02*
X13554405Y-8475452D01*
X13621072Y-8523071D02*
X13630595Y-8513548D01*
X13630595Y-8513548D02*
X13649643Y-8504024D01*
X13649643Y-8504024D02*
X13697262Y-8504024D01*
X13697262Y-8504024D02*
X13716310Y-8513548D01*
X13716310Y-8513548D02*
X13725834Y-8523071D01*
X13725834Y-8523071D02*
X13735357Y-8542119D01*
X13735357Y-8542119D02*
X13735357Y-8561167D01*
X13735357Y-8561167D02*
X13725834Y-8589738D01*
X13725834Y-8589738D02*
X13611548Y-8704024D01*
X13611548Y-8704024D02*
X13735357Y-8704024D01*
X13973453Y-8704024D02*
X13973453Y-8504024D01*
X14059167Y-8704024D02*
X14059167Y-8599262D01*
X14059167Y-8599262D02*
X14049643Y-8580214D01*
X14049643Y-8580214D02*
X14030596Y-8570690D01*
X14030596Y-8570690D02*
X14002024Y-8570690D01*
X14002024Y-8570690D02*
X13982976Y-8580214D01*
X13982976Y-8580214D02*
X13973453Y-8589738D01*
X14182976Y-8704024D02*
X14163929Y-8694500D01*
X14163929Y-8694500D02*
X14154405Y-8684976D01*
X14154405Y-8684976D02*
X14144881Y-8665929D01*
X14144881Y-8665929D02*
X14144881Y-8608786D01*
X14144881Y-8608786D02*
X14154405Y-8589738D01*
X14154405Y-8589738D02*
X14163929Y-8580214D01*
X14163929Y-8580214D02*
X14182976Y-8570690D01*
X14182976Y-8570690D02*
X14211548Y-8570690D01*
X14211548Y-8570690D02*
X14230596Y-8580214D01*
X14230596Y-8580214D02*
X14240119Y-8589738D01*
X14240119Y-8589738D02*
X14249643Y-8608786D01*
X14249643Y-8608786D02*
X14249643Y-8665929D01*
X14249643Y-8665929D02*
X14240119Y-8684976D01*
X14240119Y-8684976D02*
X14230596Y-8694500D01*
X14230596Y-8694500D02*
X14211548Y-8704024D01*
X14211548Y-8704024D02*
X14182976Y-8704024D01*
X14363929Y-8704024D02*
X14344881Y-8694500D01*
X14344881Y-8694500D02*
X14335357Y-8675452D01*
X14335357Y-8675452D02*
X14335357Y-8504024D01*
X14516310Y-8694500D02*
X14497262Y-8704024D01*
X14497262Y-8704024D02*
X14459167Y-8704024D01*
X14459167Y-8704024D02*
X14440119Y-8694500D01*
X14440119Y-8694500D02*
X14430596Y-8675452D01*
X14430596Y-8675452D02*
X14430596Y-8599262D01*
X14430596Y-8599262D02*
X14440119Y-8580214D01*
X14440119Y-8580214D02*
X14459167Y-8570690D01*
X14459167Y-8570690D02*
X14497262Y-8570690D01*
X14497262Y-8570690D02*
X14516310Y-8580214D01*
X14516310Y-8580214D02*
X14525834Y-8599262D01*
X14525834Y-8599262D02*
X14525834Y-8618310D01*
X14525834Y-8618310D02*
X14430596Y-8637357D01*
X14602024Y-8694500D02*
X14621072Y-8704024D01*
X14621072Y-8704024D02*
X14659167Y-8704024D01*
X14659167Y-8704024D02*
X14678215Y-8694500D01*
X14678215Y-8694500D02*
X14687738Y-8675452D01*
X14687738Y-8675452D02*
X14687738Y-8665929D01*
X14687738Y-8665929D02*
X14678215Y-8646881D01*
X14678215Y-8646881D02*
X14659167Y-8637357D01*
X14659167Y-8637357D02*
X14630596Y-8637357D01*
X14630596Y-8637357D02*
X14611548Y-8627833D01*
X14611548Y-8627833D02*
X14602024Y-8608786D01*
X14602024Y-8608786D02*
X14602024Y-8599262D01*
X14602024Y-8599262D02*
X14611548Y-8580214D01*
X14611548Y-8580214D02*
X14630596Y-8570690D01*
X14630596Y-8570690D02*
X14659167Y-8570690D01*
X14659167Y-8570690D02*
X14678215Y-8580214D01*
X14754405Y-8780214D02*
X14763929Y-8770690D01*
X14763929Y-8770690D02*
X14782977Y-8742119D01*
X14782977Y-8742119D02*
X14792500Y-8723071D01*
X14792500Y-8723071D02*
X14802024Y-8694500D01*
X14802024Y-8694500D02*
X14811548Y-8646881D01*
X14811548Y-8646881D02*
X14811548Y-8608786D01*
X14811548Y-8608786D02*
X14802024Y-8561167D01*
X14802024Y-8561167D02*
X14792500Y-8532595D01*
X14792500Y-8532595D02*
X14782977Y-8513548D01*
X14782977Y-8513548D02*
X14763929Y-8484976D01*
X14763929Y-8484976D02*
X14754405Y-8475452D01*
M02*
