%TF.GenerationSoftware,KiCad,Pcbnew,7.0.1*%
%TF.CreationDate,2023-05-15T14:11:47-06:00*%
%TF.ProjectId,H-field_RF_probe,482d6669-656c-4645-9f52-465f70726f62,rev?*%
%TF.SameCoordinates,Original*%
%TF.FileFunction,Drillmap*%
%TF.FilePolarity,Positive*%
%FSLAX45Y45*%
G04 Gerber Fmt 4.5, Leading zero omitted, Abs format (unit mm)*
G04 Created by KiCad (PCBNEW 7.0.1) date 2023-05-15 14:11:47*
%MOMM*%
%LPD*%
G01*
G04 APERTURE LIST*
%ADD10C,0.150000*%
%ADD11C,0.200000*%
%ADD12C,0.320000*%
G04 APERTURE END LIST*
D10*
X18800000Y-5400000D02*
X10000000Y-5400000D01*
X19367961Y-6550000D02*
G75*
G03*
X19367961Y-6550000I-567961J0D01*
G01*
X18800000Y-7700000D02*
G75*
G03*
X18800000Y-5400000I0J1150000D01*
G01*
X18800000Y-7700000D02*
X10000000Y-7700000D01*
X10000000Y-7700000D02*
X10000000Y-5400000D01*
D11*
D12*
X10640000Y-5640000D02*
X10960000Y-5960000D01*
X10960000Y-5640000D02*
X10640000Y-5960000D01*
X10640000Y-7140000D02*
X10960000Y-7460000D01*
X10960000Y-7140000D02*
X10640000Y-7460000D01*
X14040000Y-5640000D02*
X14360000Y-5960000D01*
X14360000Y-5640000D02*
X14040000Y-5960000D01*
X14040000Y-7140000D02*
X14360000Y-7460000D01*
X14360000Y-7140000D02*
X14040000Y-7460000D01*
X17340000Y-5640000D02*
X17660000Y-5960000D01*
X17660000Y-5640000D02*
X17340000Y-5960000D01*
X17340000Y-7140000D02*
X17660000Y-7460000D01*
X17660000Y-7140000D02*
X17340000Y-7460000D01*
D11*
X10240119Y-8020024D02*
X10240119Y-7820024D01*
X10240119Y-7820024D02*
X10287738Y-7820024D01*
X10287738Y-7820024D02*
X10316310Y-7829548D01*
X10316310Y-7829548D02*
X10335357Y-7848595D01*
X10335357Y-7848595D02*
X10344881Y-7867643D01*
X10344881Y-7867643D02*
X10354405Y-7905738D01*
X10354405Y-7905738D02*
X10354405Y-7934309D01*
X10354405Y-7934309D02*
X10344881Y-7972405D01*
X10344881Y-7972405D02*
X10335357Y-7991452D01*
X10335357Y-7991452D02*
X10316310Y-8010500D01*
X10316310Y-8010500D02*
X10287738Y-8020024D01*
X10287738Y-8020024D02*
X10240119Y-8020024D01*
X10440119Y-8020024D02*
X10440119Y-7886690D01*
X10440119Y-7924786D02*
X10449643Y-7905738D01*
X10449643Y-7905738D02*
X10459167Y-7896214D01*
X10459167Y-7896214D02*
X10478214Y-7886690D01*
X10478214Y-7886690D02*
X10497262Y-7886690D01*
X10563929Y-8020024D02*
X10563929Y-7886690D01*
X10563929Y-7820024D02*
X10554405Y-7829548D01*
X10554405Y-7829548D02*
X10563929Y-7839071D01*
X10563929Y-7839071D02*
X10573452Y-7829548D01*
X10573452Y-7829548D02*
X10563929Y-7820024D01*
X10563929Y-7820024D02*
X10563929Y-7839071D01*
X10687738Y-8020024D02*
X10668690Y-8010500D01*
X10668690Y-8010500D02*
X10659167Y-7991452D01*
X10659167Y-7991452D02*
X10659167Y-7820024D01*
X10792500Y-8020024D02*
X10773452Y-8010500D01*
X10773452Y-8010500D02*
X10763929Y-7991452D01*
X10763929Y-7991452D02*
X10763929Y-7820024D01*
X11021071Y-8020024D02*
X11021071Y-7820024D01*
X11021071Y-7820024D02*
X11087738Y-7962881D01*
X11087738Y-7962881D02*
X11154405Y-7820024D01*
X11154405Y-7820024D02*
X11154405Y-8020024D01*
X11335357Y-8020024D02*
X11335357Y-7915262D01*
X11335357Y-7915262D02*
X11325833Y-7896214D01*
X11325833Y-7896214D02*
X11306786Y-7886690D01*
X11306786Y-7886690D02*
X11268690Y-7886690D01*
X11268690Y-7886690D02*
X11249643Y-7896214D01*
X11335357Y-8010500D02*
X11316309Y-8020024D01*
X11316309Y-8020024D02*
X11268690Y-8020024D01*
X11268690Y-8020024D02*
X11249643Y-8010500D01*
X11249643Y-8010500D02*
X11240119Y-7991452D01*
X11240119Y-7991452D02*
X11240119Y-7972405D01*
X11240119Y-7972405D02*
X11249643Y-7953357D01*
X11249643Y-7953357D02*
X11268690Y-7943833D01*
X11268690Y-7943833D02*
X11316309Y-7943833D01*
X11316309Y-7943833D02*
X11335357Y-7934309D01*
X11430595Y-7886690D02*
X11430595Y-8086690D01*
X11430595Y-7896214D02*
X11449643Y-7886690D01*
X11449643Y-7886690D02*
X11487738Y-7886690D01*
X11487738Y-7886690D02*
X11506786Y-7896214D01*
X11506786Y-7896214D02*
X11516309Y-7905738D01*
X11516309Y-7905738D02*
X11525833Y-7924786D01*
X11525833Y-7924786D02*
X11525833Y-7981928D01*
X11525833Y-7981928D02*
X11516309Y-8000976D01*
X11516309Y-8000976D02*
X11506786Y-8010500D01*
X11506786Y-8010500D02*
X11487738Y-8020024D01*
X11487738Y-8020024D02*
X11449643Y-8020024D01*
X11449643Y-8020024D02*
X11430595Y-8010500D01*
X11611548Y-8000976D02*
X11621071Y-8010500D01*
X11621071Y-8010500D02*
X11611548Y-8020024D01*
X11611548Y-8020024D02*
X11602024Y-8010500D01*
X11602024Y-8010500D02*
X11611548Y-8000976D01*
X11611548Y-8000976D02*
X11611548Y-8020024D01*
X11611548Y-7896214D02*
X11621071Y-7905738D01*
X11621071Y-7905738D02*
X11611548Y-7915262D01*
X11611548Y-7915262D02*
X11602024Y-7905738D01*
X11602024Y-7905738D02*
X11611548Y-7896214D01*
X11611548Y-7896214D02*
X11611548Y-7915262D01*
X9792500Y-8247500D02*
X9992500Y-8447500D01*
X9992500Y-8247500D02*
X9792500Y-8447500D01*
X10221071Y-8240024D02*
X10344881Y-8240024D01*
X10344881Y-8240024D02*
X10278214Y-8316214D01*
X10278214Y-8316214D02*
X10306786Y-8316214D01*
X10306786Y-8316214D02*
X10325833Y-8325738D01*
X10325833Y-8325738D02*
X10335357Y-8335262D01*
X10335357Y-8335262D02*
X10344881Y-8354309D01*
X10344881Y-8354309D02*
X10344881Y-8401929D01*
X10344881Y-8401929D02*
X10335357Y-8420976D01*
X10335357Y-8420976D02*
X10325833Y-8430500D01*
X10325833Y-8430500D02*
X10306786Y-8440024D01*
X10306786Y-8440024D02*
X10249643Y-8440024D01*
X10249643Y-8440024D02*
X10230595Y-8430500D01*
X10230595Y-8430500D02*
X10221071Y-8420976D01*
X10430595Y-8420976D02*
X10440119Y-8430500D01*
X10440119Y-8430500D02*
X10430595Y-8440024D01*
X10430595Y-8440024D02*
X10421071Y-8430500D01*
X10421071Y-8430500D02*
X10430595Y-8420976D01*
X10430595Y-8420976D02*
X10430595Y-8440024D01*
X10516310Y-8259071D02*
X10525833Y-8249548D01*
X10525833Y-8249548D02*
X10544881Y-8240024D01*
X10544881Y-8240024D02*
X10592500Y-8240024D01*
X10592500Y-8240024D02*
X10611548Y-8249548D01*
X10611548Y-8249548D02*
X10621071Y-8259071D01*
X10621071Y-8259071D02*
X10630595Y-8278119D01*
X10630595Y-8278119D02*
X10630595Y-8297167D01*
X10630595Y-8297167D02*
X10621071Y-8325738D01*
X10621071Y-8325738D02*
X10506786Y-8440024D01*
X10506786Y-8440024D02*
X10630595Y-8440024D01*
X10754405Y-8240024D02*
X10773452Y-8240024D01*
X10773452Y-8240024D02*
X10792500Y-8249548D01*
X10792500Y-8249548D02*
X10802024Y-8259071D01*
X10802024Y-8259071D02*
X10811548Y-8278119D01*
X10811548Y-8278119D02*
X10821071Y-8316214D01*
X10821071Y-8316214D02*
X10821071Y-8363833D01*
X10821071Y-8363833D02*
X10811548Y-8401929D01*
X10811548Y-8401929D02*
X10802024Y-8420976D01*
X10802024Y-8420976D02*
X10792500Y-8430500D01*
X10792500Y-8430500D02*
X10773452Y-8440024D01*
X10773452Y-8440024D02*
X10754405Y-8440024D01*
X10754405Y-8440024D02*
X10735357Y-8430500D01*
X10735357Y-8430500D02*
X10725833Y-8420976D01*
X10725833Y-8420976D02*
X10716310Y-8401929D01*
X10716310Y-8401929D02*
X10706786Y-8363833D01*
X10706786Y-8363833D02*
X10706786Y-8316214D01*
X10706786Y-8316214D02*
X10716310Y-8278119D01*
X10716310Y-8278119D02*
X10725833Y-8259071D01*
X10725833Y-8259071D02*
X10735357Y-8249548D01*
X10735357Y-8249548D02*
X10754405Y-8240024D01*
X10944881Y-8240024D02*
X10963929Y-8240024D01*
X10963929Y-8240024D02*
X10982976Y-8249548D01*
X10982976Y-8249548D02*
X10992500Y-8259071D01*
X10992500Y-8259071D02*
X11002024Y-8278119D01*
X11002024Y-8278119D02*
X11011548Y-8316214D01*
X11011548Y-8316214D02*
X11011548Y-8363833D01*
X11011548Y-8363833D02*
X11002024Y-8401929D01*
X11002024Y-8401929D02*
X10992500Y-8420976D01*
X10992500Y-8420976D02*
X10982976Y-8430500D01*
X10982976Y-8430500D02*
X10963929Y-8440024D01*
X10963929Y-8440024D02*
X10944881Y-8440024D01*
X10944881Y-8440024D02*
X10925833Y-8430500D01*
X10925833Y-8430500D02*
X10916310Y-8420976D01*
X10916310Y-8420976D02*
X10906786Y-8401929D01*
X10906786Y-8401929D02*
X10897262Y-8363833D01*
X10897262Y-8363833D02*
X10897262Y-8316214D01*
X10897262Y-8316214D02*
X10906786Y-8278119D01*
X10906786Y-8278119D02*
X10916310Y-8259071D01*
X10916310Y-8259071D02*
X10925833Y-8249548D01*
X10925833Y-8249548D02*
X10944881Y-8240024D01*
X11097262Y-8440024D02*
X11097262Y-8306690D01*
X11097262Y-8325738D02*
X11106786Y-8316214D01*
X11106786Y-8316214D02*
X11125833Y-8306690D01*
X11125833Y-8306690D02*
X11154405Y-8306690D01*
X11154405Y-8306690D02*
X11173452Y-8316214D01*
X11173452Y-8316214D02*
X11182976Y-8335262D01*
X11182976Y-8335262D02*
X11182976Y-8440024D01*
X11182976Y-8335262D02*
X11192500Y-8316214D01*
X11192500Y-8316214D02*
X11211548Y-8306690D01*
X11211548Y-8306690D02*
X11240119Y-8306690D01*
X11240119Y-8306690D02*
X11259167Y-8316214D01*
X11259167Y-8316214D02*
X11268690Y-8335262D01*
X11268690Y-8335262D02*
X11268690Y-8440024D01*
X11363929Y-8440024D02*
X11363929Y-8306690D01*
X11363929Y-8325738D02*
X11373452Y-8316214D01*
X11373452Y-8316214D02*
X11392500Y-8306690D01*
X11392500Y-8306690D02*
X11421071Y-8306690D01*
X11421071Y-8306690D02*
X11440119Y-8316214D01*
X11440119Y-8316214D02*
X11449643Y-8335262D01*
X11449643Y-8335262D02*
X11449643Y-8440024D01*
X11449643Y-8335262D02*
X11459167Y-8316214D01*
X11459167Y-8316214D02*
X11478214Y-8306690D01*
X11478214Y-8306690D02*
X11506786Y-8306690D01*
X11506786Y-8306690D02*
X11525833Y-8316214D01*
X11525833Y-8316214D02*
X11535357Y-8335262D01*
X11535357Y-8335262D02*
X11535357Y-8440024D01*
X11925833Y-8230500D02*
X11754405Y-8487643D01*
X12182976Y-8240024D02*
X12202024Y-8240024D01*
X12202024Y-8240024D02*
X12221072Y-8249548D01*
X12221072Y-8249548D02*
X12230595Y-8259071D01*
X12230595Y-8259071D02*
X12240119Y-8278119D01*
X12240119Y-8278119D02*
X12249643Y-8316214D01*
X12249643Y-8316214D02*
X12249643Y-8363833D01*
X12249643Y-8363833D02*
X12240119Y-8401929D01*
X12240119Y-8401929D02*
X12230595Y-8420976D01*
X12230595Y-8420976D02*
X12221072Y-8430500D01*
X12221072Y-8430500D02*
X12202024Y-8440024D01*
X12202024Y-8440024D02*
X12182976Y-8440024D01*
X12182976Y-8440024D02*
X12163929Y-8430500D01*
X12163929Y-8430500D02*
X12154405Y-8420976D01*
X12154405Y-8420976D02*
X12144881Y-8401929D01*
X12144881Y-8401929D02*
X12135357Y-8363833D01*
X12135357Y-8363833D02*
X12135357Y-8316214D01*
X12135357Y-8316214D02*
X12144881Y-8278119D01*
X12144881Y-8278119D02*
X12154405Y-8259071D01*
X12154405Y-8259071D02*
X12163929Y-8249548D01*
X12163929Y-8249548D02*
X12182976Y-8240024D01*
X12335357Y-8420976D02*
X12344881Y-8430500D01*
X12344881Y-8430500D02*
X12335357Y-8440024D01*
X12335357Y-8440024D02*
X12325833Y-8430500D01*
X12325833Y-8430500D02*
X12335357Y-8420976D01*
X12335357Y-8420976D02*
X12335357Y-8440024D01*
X12535357Y-8440024D02*
X12421072Y-8440024D01*
X12478214Y-8440024D02*
X12478214Y-8240024D01*
X12478214Y-8240024D02*
X12459167Y-8268595D01*
X12459167Y-8268595D02*
X12440119Y-8287643D01*
X12440119Y-8287643D02*
X12421072Y-8297167D01*
X12611548Y-8259071D02*
X12621072Y-8249548D01*
X12621072Y-8249548D02*
X12640119Y-8240024D01*
X12640119Y-8240024D02*
X12687738Y-8240024D01*
X12687738Y-8240024D02*
X12706786Y-8249548D01*
X12706786Y-8249548D02*
X12716310Y-8259071D01*
X12716310Y-8259071D02*
X12725833Y-8278119D01*
X12725833Y-8278119D02*
X12725833Y-8297167D01*
X12725833Y-8297167D02*
X12716310Y-8325738D01*
X12716310Y-8325738D02*
X12602024Y-8440024D01*
X12602024Y-8440024D02*
X12725833Y-8440024D01*
X12897262Y-8240024D02*
X12859167Y-8240024D01*
X12859167Y-8240024D02*
X12840119Y-8249548D01*
X12840119Y-8249548D02*
X12830595Y-8259071D01*
X12830595Y-8259071D02*
X12811548Y-8287643D01*
X12811548Y-8287643D02*
X12802024Y-8325738D01*
X12802024Y-8325738D02*
X12802024Y-8401929D01*
X12802024Y-8401929D02*
X12811548Y-8420976D01*
X12811548Y-8420976D02*
X12821072Y-8430500D01*
X12821072Y-8430500D02*
X12840119Y-8440024D01*
X12840119Y-8440024D02*
X12878214Y-8440024D01*
X12878214Y-8440024D02*
X12897262Y-8430500D01*
X12897262Y-8430500D02*
X12906786Y-8420976D01*
X12906786Y-8420976D02*
X12916310Y-8401929D01*
X12916310Y-8401929D02*
X12916310Y-8354309D01*
X12916310Y-8354309D02*
X12906786Y-8335262D01*
X12906786Y-8335262D02*
X12897262Y-8325738D01*
X12897262Y-8325738D02*
X12878214Y-8316214D01*
X12878214Y-8316214D02*
X12840119Y-8316214D01*
X12840119Y-8316214D02*
X12821072Y-8325738D01*
X12821072Y-8325738D02*
X12811548Y-8335262D01*
X12811548Y-8335262D02*
X12802024Y-8354309D01*
X13040119Y-8240024D02*
X13059167Y-8240024D01*
X13059167Y-8240024D02*
X13078214Y-8249548D01*
X13078214Y-8249548D02*
X13087738Y-8259071D01*
X13087738Y-8259071D02*
X13097262Y-8278119D01*
X13097262Y-8278119D02*
X13106786Y-8316214D01*
X13106786Y-8316214D02*
X13106786Y-8363833D01*
X13106786Y-8363833D02*
X13097262Y-8401929D01*
X13097262Y-8401929D02*
X13087738Y-8420976D01*
X13087738Y-8420976D02*
X13078214Y-8430500D01*
X13078214Y-8430500D02*
X13059167Y-8440024D01*
X13059167Y-8440024D02*
X13040119Y-8440024D01*
X13040119Y-8440024D02*
X13021072Y-8430500D01*
X13021072Y-8430500D02*
X13011548Y-8420976D01*
X13011548Y-8420976D02*
X13002024Y-8401929D01*
X13002024Y-8401929D02*
X12992500Y-8363833D01*
X12992500Y-8363833D02*
X12992500Y-8316214D01*
X12992500Y-8316214D02*
X13002024Y-8278119D01*
X13002024Y-8278119D02*
X13011548Y-8259071D01*
X13011548Y-8259071D02*
X13021072Y-8249548D01*
X13021072Y-8249548D02*
X13040119Y-8240024D01*
X13182976Y-8240024D02*
X13182976Y-8278119D01*
X13259167Y-8240024D02*
X13259167Y-8278119D01*
X13554405Y-8516214D02*
X13544881Y-8506690D01*
X13544881Y-8506690D02*
X13525834Y-8478119D01*
X13525834Y-8478119D02*
X13516310Y-8459071D01*
X13516310Y-8459071D02*
X13506786Y-8430500D01*
X13506786Y-8430500D02*
X13497262Y-8382881D01*
X13497262Y-8382881D02*
X13497262Y-8344786D01*
X13497262Y-8344786D02*
X13506786Y-8297167D01*
X13506786Y-8297167D02*
X13516310Y-8268595D01*
X13516310Y-8268595D02*
X13525834Y-8249548D01*
X13525834Y-8249548D02*
X13544881Y-8220976D01*
X13544881Y-8220976D02*
X13554405Y-8211452D01*
X13716310Y-8240024D02*
X13678214Y-8240024D01*
X13678214Y-8240024D02*
X13659167Y-8249548D01*
X13659167Y-8249548D02*
X13649643Y-8259071D01*
X13649643Y-8259071D02*
X13630595Y-8287643D01*
X13630595Y-8287643D02*
X13621072Y-8325738D01*
X13621072Y-8325738D02*
X13621072Y-8401929D01*
X13621072Y-8401929D02*
X13630595Y-8420976D01*
X13630595Y-8420976D02*
X13640119Y-8430500D01*
X13640119Y-8430500D02*
X13659167Y-8440024D01*
X13659167Y-8440024D02*
X13697262Y-8440024D01*
X13697262Y-8440024D02*
X13716310Y-8430500D01*
X13716310Y-8430500D02*
X13725834Y-8420976D01*
X13725834Y-8420976D02*
X13735357Y-8401929D01*
X13735357Y-8401929D02*
X13735357Y-8354309D01*
X13735357Y-8354309D02*
X13725834Y-8335262D01*
X13725834Y-8335262D02*
X13716310Y-8325738D01*
X13716310Y-8325738D02*
X13697262Y-8316214D01*
X13697262Y-8316214D02*
X13659167Y-8316214D01*
X13659167Y-8316214D02*
X13640119Y-8325738D01*
X13640119Y-8325738D02*
X13630595Y-8335262D01*
X13630595Y-8335262D02*
X13621072Y-8354309D01*
X13973453Y-8440024D02*
X13973453Y-8240024D01*
X14059167Y-8440024D02*
X14059167Y-8335262D01*
X14059167Y-8335262D02*
X14049643Y-8316214D01*
X14049643Y-8316214D02*
X14030596Y-8306690D01*
X14030596Y-8306690D02*
X14002024Y-8306690D01*
X14002024Y-8306690D02*
X13982976Y-8316214D01*
X13982976Y-8316214D02*
X13973453Y-8325738D01*
X14182976Y-8440024D02*
X14163929Y-8430500D01*
X14163929Y-8430500D02*
X14154405Y-8420976D01*
X14154405Y-8420976D02*
X14144881Y-8401929D01*
X14144881Y-8401929D02*
X14144881Y-8344786D01*
X14144881Y-8344786D02*
X14154405Y-8325738D01*
X14154405Y-8325738D02*
X14163929Y-8316214D01*
X14163929Y-8316214D02*
X14182976Y-8306690D01*
X14182976Y-8306690D02*
X14211548Y-8306690D01*
X14211548Y-8306690D02*
X14230596Y-8316214D01*
X14230596Y-8316214D02*
X14240119Y-8325738D01*
X14240119Y-8325738D02*
X14249643Y-8344786D01*
X14249643Y-8344786D02*
X14249643Y-8401929D01*
X14249643Y-8401929D02*
X14240119Y-8420976D01*
X14240119Y-8420976D02*
X14230596Y-8430500D01*
X14230596Y-8430500D02*
X14211548Y-8440024D01*
X14211548Y-8440024D02*
X14182976Y-8440024D01*
X14363929Y-8440024D02*
X14344881Y-8430500D01*
X14344881Y-8430500D02*
X14335357Y-8411452D01*
X14335357Y-8411452D02*
X14335357Y-8240024D01*
X14516310Y-8430500D02*
X14497262Y-8440024D01*
X14497262Y-8440024D02*
X14459167Y-8440024D01*
X14459167Y-8440024D02*
X14440119Y-8430500D01*
X14440119Y-8430500D02*
X14430596Y-8411452D01*
X14430596Y-8411452D02*
X14430596Y-8335262D01*
X14430596Y-8335262D02*
X14440119Y-8316214D01*
X14440119Y-8316214D02*
X14459167Y-8306690D01*
X14459167Y-8306690D02*
X14497262Y-8306690D01*
X14497262Y-8306690D02*
X14516310Y-8316214D01*
X14516310Y-8316214D02*
X14525834Y-8335262D01*
X14525834Y-8335262D02*
X14525834Y-8354309D01*
X14525834Y-8354309D02*
X14430596Y-8373357D01*
X14602024Y-8430500D02*
X14621072Y-8440024D01*
X14621072Y-8440024D02*
X14659167Y-8440024D01*
X14659167Y-8440024D02*
X14678215Y-8430500D01*
X14678215Y-8430500D02*
X14687738Y-8411452D01*
X14687738Y-8411452D02*
X14687738Y-8401929D01*
X14687738Y-8401929D02*
X14678215Y-8382881D01*
X14678215Y-8382881D02*
X14659167Y-8373357D01*
X14659167Y-8373357D02*
X14630596Y-8373357D01*
X14630596Y-8373357D02*
X14611548Y-8363833D01*
X14611548Y-8363833D02*
X14602024Y-8344786D01*
X14602024Y-8344786D02*
X14602024Y-8335262D01*
X14602024Y-8335262D02*
X14611548Y-8316214D01*
X14611548Y-8316214D02*
X14630596Y-8306690D01*
X14630596Y-8306690D02*
X14659167Y-8306690D01*
X14659167Y-8306690D02*
X14678215Y-8316214D01*
X14754405Y-8516214D02*
X14763929Y-8506690D01*
X14763929Y-8506690D02*
X14782977Y-8478119D01*
X14782977Y-8478119D02*
X14792500Y-8459071D01*
X14792500Y-8459071D02*
X14802024Y-8430500D01*
X14802024Y-8430500D02*
X14811548Y-8382881D01*
X14811548Y-8382881D02*
X14811548Y-8344786D01*
X14811548Y-8344786D02*
X14802024Y-8297167D01*
X14802024Y-8297167D02*
X14792500Y-8268595D01*
X14792500Y-8268595D02*
X14782977Y-8249548D01*
X14782977Y-8249548D02*
X14763929Y-8220976D01*
X14763929Y-8220976D02*
X14754405Y-8211452D01*
X15116310Y-8516214D02*
X15106786Y-8506690D01*
X15106786Y-8506690D02*
X15087738Y-8478119D01*
X15087738Y-8478119D02*
X15078215Y-8459071D01*
X15078215Y-8459071D02*
X15068691Y-8430500D01*
X15068691Y-8430500D02*
X15059167Y-8382881D01*
X15059167Y-8382881D02*
X15059167Y-8344786D01*
X15059167Y-8344786D02*
X15068691Y-8297167D01*
X15068691Y-8297167D02*
X15078215Y-8268595D01*
X15078215Y-8268595D02*
X15087738Y-8249548D01*
X15087738Y-8249548D02*
X15106786Y-8220976D01*
X15106786Y-8220976D02*
X15116310Y-8211452D01*
X15192500Y-8306690D02*
X15192500Y-8440024D01*
X15192500Y-8325738D02*
X15202024Y-8316214D01*
X15202024Y-8316214D02*
X15221072Y-8306690D01*
X15221072Y-8306690D02*
X15249643Y-8306690D01*
X15249643Y-8306690D02*
X15268691Y-8316214D01*
X15268691Y-8316214D02*
X15278215Y-8335262D01*
X15278215Y-8335262D02*
X15278215Y-8440024D01*
X15402024Y-8440024D02*
X15382977Y-8430500D01*
X15382977Y-8430500D02*
X15373453Y-8420976D01*
X15373453Y-8420976D02*
X15363929Y-8401929D01*
X15363929Y-8401929D02*
X15363929Y-8344786D01*
X15363929Y-8344786D02*
X15373453Y-8325738D01*
X15373453Y-8325738D02*
X15382977Y-8316214D01*
X15382977Y-8316214D02*
X15402024Y-8306690D01*
X15402024Y-8306690D02*
X15430596Y-8306690D01*
X15430596Y-8306690D02*
X15449643Y-8316214D01*
X15449643Y-8316214D02*
X15459167Y-8325738D01*
X15459167Y-8325738D02*
X15468691Y-8344786D01*
X15468691Y-8344786D02*
X15468691Y-8401929D01*
X15468691Y-8401929D02*
X15459167Y-8420976D01*
X15459167Y-8420976D02*
X15449643Y-8430500D01*
X15449643Y-8430500D02*
X15430596Y-8440024D01*
X15430596Y-8440024D02*
X15402024Y-8440024D01*
X15525834Y-8306690D02*
X15602024Y-8306690D01*
X15554405Y-8240024D02*
X15554405Y-8411452D01*
X15554405Y-8411452D02*
X15563929Y-8430500D01*
X15563929Y-8430500D02*
X15582977Y-8440024D01*
X15582977Y-8440024D02*
X15602024Y-8440024D01*
X15821072Y-8306690D02*
X15821072Y-8506690D01*
X15821072Y-8316214D02*
X15840119Y-8306690D01*
X15840119Y-8306690D02*
X15878215Y-8306690D01*
X15878215Y-8306690D02*
X15897262Y-8316214D01*
X15897262Y-8316214D02*
X15906786Y-8325738D01*
X15906786Y-8325738D02*
X15916310Y-8344786D01*
X15916310Y-8344786D02*
X15916310Y-8401929D01*
X15916310Y-8401929D02*
X15906786Y-8420976D01*
X15906786Y-8420976D02*
X15897262Y-8430500D01*
X15897262Y-8430500D02*
X15878215Y-8440024D01*
X15878215Y-8440024D02*
X15840119Y-8440024D01*
X15840119Y-8440024D02*
X15821072Y-8430500D01*
X16030596Y-8440024D02*
X16011548Y-8430500D01*
X16011548Y-8430500D02*
X16002024Y-8411452D01*
X16002024Y-8411452D02*
X16002024Y-8240024D01*
X16192500Y-8440024D02*
X16192500Y-8335262D01*
X16192500Y-8335262D02*
X16182977Y-8316214D01*
X16182977Y-8316214D02*
X16163929Y-8306690D01*
X16163929Y-8306690D02*
X16125834Y-8306690D01*
X16125834Y-8306690D02*
X16106786Y-8316214D01*
X16192500Y-8430500D02*
X16173453Y-8440024D01*
X16173453Y-8440024D02*
X16125834Y-8440024D01*
X16125834Y-8440024D02*
X16106786Y-8430500D01*
X16106786Y-8430500D02*
X16097262Y-8411452D01*
X16097262Y-8411452D02*
X16097262Y-8392405D01*
X16097262Y-8392405D02*
X16106786Y-8373357D01*
X16106786Y-8373357D02*
X16125834Y-8363833D01*
X16125834Y-8363833D02*
X16173453Y-8363833D01*
X16173453Y-8363833D02*
X16192500Y-8354309D01*
X16259167Y-8306690D02*
X16335358Y-8306690D01*
X16287739Y-8240024D02*
X16287739Y-8411452D01*
X16287739Y-8411452D02*
X16297262Y-8430500D01*
X16297262Y-8430500D02*
X16316310Y-8440024D01*
X16316310Y-8440024D02*
X16335358Y-8440024D01*
X16478215Y-8430500D02*
X16459167Y-8440024D01*
X16459167Y-8440024D02*
X16421072Y-8440024D01*
X16421072Y-8440024D02*
X16402024Y-8430500D01*
X16402024Y-8430500D02*
X16392500Y-8411452D01*
X16392500Y-8411452D02*
X16392500Y-8335262D01*
X16392500Y-8335262D02*
X16402024Y-8316214D01*
X16402024Y-8316214D02*
X16421072Y-8306690D01*
X16421072Y-8306690D02*
X16459167Y-8306690D01*
X16459167Y-8306690D02*
X16478215Y-8316214D01*
X16478215Y-8316214D02*
X16487739Y-8335262D01*
X16487739Y-8335262D02*
X16487739Y-8354309D01*
X16487739Y-8354309D02*
X16392500Y-8373357D01*
X16659167Y-8440024D02*
X16659167Y-8240024D01*
X16659167Y-8430500D02*
X16640120Y-8440024D01*
X16640120Y-8440024D02*
X16602024Y-8440024D01*
X16602024Y-8440024D02*
X16582977Y-8430500D01*
X16582977Y-8430500D02*
X16573453Y-8420976D01*
X16573453Y-8420976D02*
X16563929Y-8401929D01*
X16563929Y-8401929D02*
X16563929Y-8344786D01*
X16563929Y-8344786D02*
X16573453Y-8325738D01*
X16573453Y-8325738D02*
X16582977Y-8316214D01*
X16582977Y-8316214D02*
X16602024Y-8306690D01*
X16602024Y-8306690D02*
X16640120Y-8306690D01*
X16640120Y-8306690D02*
X16659167Y-8316214D01*
X16735358Y-8516214D02*
X16744881Y-8506690D01*
X16744881Y-8506690D02*
X16763929Y-8478119D01*
X16763929Y-8478119D02*
X16773453Y-8459071D01*
X16773453Y-8459071D02*
X16782977Y-8430500D01*
X16782977Y-8430500D02*
X16792501Y-8382881D01*
X16792501Y-8382881D02*
X16792501Y-8344786D01*
X16792501Y-8344786D02*
X16782977Y-8297167D01*
X16782977Y-8297167D02*
X16773453Y-8268595D01*
X16773453Y-8268595D02*
X16763929Y-8249548D01*
X16763929Y-8249548D02*
X16744881Y-8220976D01*
X16744881Y-8220976D02*
X16735358Y-8211452D01*
M02*
