G04 #@! TF.GenerationSoftware,KiCad,Pcbnew,(5.1.0)-1*
G04 #@! TF.CreationDate,2019-04-08T15:48:48-06:00*
G04 #@! TF.ProjectId,H-probe_poly_panelized,482d7072-6f62-4655-9f70-6f6c795f7061,rev?*
G04 #@! TF.SameCoordinates,Original*
G04 #@! TF.FileFunction,Soldermask,Bot*
G04 #@! TF.FilePolarity,Negative*
%FSLAX46Y46*%
G04 Gerber Fmt 4.6, Leading zero omitted, Abs format (unit mm)*
G04 Created by KiCad (PCBNEW (5.1.0)-1) date 2019-04-08 15:48:48*
%MOMM*%
%LPD*%
G04 APERTURE LIST*
%ADD10C,0.100000*%
G04 APERTURE END LIST*
D10*
G36*
X108134239Y-138811467D02*
G01*
X108448282Y-138873934D01*
X109039926Y-139119001D01*
X109572392Y-139474784D01*
X110025216Y-139927608D01*
X110380999Y-140460074D01*
X110626066Y-141051718D01*
X110626066Y-141051719D01*
X110751000Y-141679803D01*
X110751000Y-142320197D01*
X110688533Y-142634239D01*
X110626066Y-142948282D01*
X110380999Y-143539926D01*
X110025216Y-144072392D01*
X109572392Y-144525216D01*
X109039926Y-144880999D01*
X108448282Y-145126066D01*
X108134239Y-145188533D01*
X107820197Y-145251000D01*
X107179803Y-145251000D01*
X106865761Y-145188533D01*
X106551718Y-145126066D01*
X105960074Y-144880999D01*
X105427608Y-144525216D01*
X104974784Y-144072392D01*
X104619001Y-143539926D01*
X104373934Y-142948282D01*
X104311467Y-142634239D01*
X104249000Y-142320197D01*
X104249000Y-141679803D01*
X104373934Y-141051719D01*
X104373934Y-141051718D01*
X104619001Y-140460074D01*
X104974784Y-139927608D01*
X105427608Y-139474784D01*
X105960074Y-139119001D01*
X106551718Y-138873934D01*
X106865761Y-138811467D01*
X107179803Y-138749000D01*
X107820197Y-138749000D01*
X108134239Y-138811467D01*
X108134239Y-138811467D01*
G37*
G36*
X176134239Y-138811467D02*
G01*
X176448282Y-138873934D01*
X177039926Y-139119001D01*
X177572392Y-139474784D01*
X178025216Y-139927608D01*
X178380999Y-140460074D01*
X178626066Y-141051718D01*
X178626066Y-141051719D01*
X178751000Y-141679803D01*
X178751000Y-142320197D01*
X178688533Y-142634239D01*
X178626066Y-142948282D01*
X178380999Y-143539926D01*
X178025216Y-144072392D01*
X177572392Y-144525216D01*
X177039926Y-144880999D01*
X176448282Y-145126066D01*
X176134239Y-145188533D01*
X175820197Y-145251000D01*
X175179803Y-145251000D01*
X174865761Y-145188533D01*
X174551718Y-145126066D01*
X173960074Y-144880999D01*
X173427608Y-144525216D01*
X172974784Y-144072392D01*
X172619001Y-143539926D01*
X172373934Y-142948282D01*
X172311467Y-142634239D01*
X172249000Y-142320197D01*
X172249000Y-141679803D01*
X172373934Y-141051719D01*
X172373934Y-141051718D01*
X172619001Y-140460074D01*
X172974784Y-139927608D01*
X173427608Y-139474784D01*
X173960074Y-139119001D01*
X174551718Y-138873934D01*
X174865761Y-138811467D01*
X175179803Y-138749000D01*
X175820197Y-138749000D01*
X176134239Y-138811467D01*
X176134239Y-138811467D01*
G37*
G36*
X142134239Y-138811467D02*
G01*
X142448282Y-138873934D01*
X143039926Y-139119001D01*
X143572392Y-139474784D01*
X144025216Y-139927608D01*
X144380999Y-140460074D01*
X144626066Y-141051718D01*
X144626066Y-141051719D01*
X144751000Y-141679803D01*
X144751000Y-142320197D01*
X144688533Y-142634239D01*
X144626066Y-142948282D01*
X144380999Y-143539926D01*
X144025216Y-144072392D01*
X143572392Y-144525216D01*
X143039926Y-144880999D01*
X142448282Y-145126066D01*
X142134239Y-145188533D01*
X141820197Y-145251000D01*
X141179803Y-145251000D01*
X140865761Y-145188533D01*
X140551718Y-145126066D01*
X139960074Y-144880999D01*
X139427608Y-144525216D01*
X138974784Y-144072392D01*
X138619001Y-143539926D01*
X138373934Y-142948282D01*
X138311467Y-142634239D01*
X138249000Y-142320197D01*
X138249000Y-141679803D01*
X138373934Y-141051719D01*
X138373934Y-141051718D01*
X138619001Y-140460074D01*
X138974784Y-139927608D01*
X139427608Y-139474784D01*
X139960074Y-139119001D01*
X140551718Y-138873934D01*
X140865761Y-138811467D01*
X141179803Y-138749000D01*
X141820197Y-138749000D01*
X142134239Y-138811467D01*
X142134239Y-138811467D01*
G37*
G36*
X104646000Y-139376000D02*
G01*
X100354000Y-139376000D01*
X100354000Y-136274000D01*
X104646000Y-136274000D01*
X104646000Y-139376000D01*
X104646000Y-139376000D01*
G37*
G36*
X104646000Y-132726000D02*
G01*
X100354000Y-132726000D01*
X100354000Y-129624000D01*
X104646000Y-129624000D01*
X104646000Y-132726000D01*
X104646000Y-132726000D01*
G37*
G36*
X108134239Y-123811467D02*
G01*
X108448282Y-123873934D01*
X109039926Y-124119001D01*
X109572392Y-124474784D01*
X110025216Y-124927608D01*
X110380999Y-125460074D01*
X110626066Y-126051718D01*
X110626066Y-126051719D01*
X110751000Y-126679803D01*
X110751000Y-127320197D01*
X110688533Y-127634239D01*
X110626066Y-127948282D01*
X110380999Y-128539926D01*
X110025216Y-129072392D01*
X109572392Y-129525216D01*
X109039926Y-129880999D01*
X108448282Y-130126066D01*
X108134239Y-130188533D01*
X107820197Y-130251000D01*
X107179803Y-130251000D01*
X106865761Y-130188533D01*
X106551718Y-130126066D01*
X105960074Y-129880999D01*
X105427608Y-129525216D01*
X104974784Y-129072392D01*
X104619001Y-128539926D01*
X104373934Y-127948282D01*
X104311467Y-127634239D01*
X104249000Y-127320197D01*
X104249000Y-126679803D01*
X104373934Y-126051719D01*
X104373934Y-126051718D01*
X104619001Y-125460074D01*
X104974784Y-124927608D01*
X105427608Y-124474784D01*
X105960074Y-124119001D01*
X106551718Y-123873934D01*
X106865761Y-123811467D01*
X107179803Y-123749000D01*
X107820197Y-123749000D01*
X108134239Y-123811467D01*
X108134239Y-123811467D01*
G37*
G36*
X142134239Y-123811467D02*
G01*
X142448282Y-123873934D01*
X143039926Y-124119001D01*
X143572392Y-124474784D01*
X144025216Y-124927608D01*
X144380999Y-125460074D01*
X144626066Y-126051718D01*
X144626066Y-126051719D01*
X144751000Y-126679803D01*
X144751000Y-127320197D01*
X144688533Y-127634239D01*
X144626066Y-127948282D01*
X144380999Y-128539926D01*
X144025216Y-129072392D01*
X143572392Y-129525216D01*
X143039926Y-129880999D01*
X142448282Y-130126066D01*
X142134239Y-130188533D01*
X141820197Y-130251000D01*
X141179803Y-130251000D01*
X140865761Y-130188533D01*
X140551718Y-130126066D01*
X139960074Y-129880999D01*
X139427608Y-129525216D01*
X138974784Y-129072392D01*
X138619001Y-128539926D01*
X138373934Y-127948282D01*
X138311467Y-127634239D01*
X138249000Y-127320197D01*
X138249000Y-126679803D01*
X138373934Y-126051719D01*
X138373934Y-126051718D01*
X138619001Y-125460074D01*
X138974784Y-124927608D01*
X139427608Y-124474784D01*
X139960074Y-124119001D01*
X140551718Y-123873934D01*
X140865761Y-123811467D01*
X141179803Y-123749000D01*
X141820197Y-123749000D01*
X142134239Y-123811467D01*
X142134239Y-123811467D01*
G37*
G36*
X176134239Y-123811467D02*
G01*
X176448282Y-123873934D01*
X177039926Y-124119001D01*
X177572392Y-124474784D01*
X178025216Y-124927608D01*
X178380999Y-125460074D01*
X178626066Y-126051718D01*
X178626066Y-126051719D01*
X178751000Y-126679803D01*
X178751000Y-127320197D01*
X178688533Y-127634239D01*
X178626066Y-127948282D01*
X178380999Y-128539926D01*
X178025216Y-129072392D01*
X177572392Y-129525216D01*
X177039926Y-129880999D01*
X176448282Y-130126066D01*
X176134239Y-130188533D01*
X175820197Y-130251000D01*
X175179803Y-130251000D01*
X174865761Y-130188533D01*
X174551718Y-130126066D01*
X173960074Y-129880999D01*
X173427608Y-129525216D01*
X172974784Y-129072392D01*
X172619001Y-128539926D01*
X172373934Y-127948282D01*
X172311467Y-127634239D01*
X172249000Y-127320197D01*
X172249000Y-126679803D01*
X172373934Y-126051719D01*
X172373934Y-126051718D01*
X172619001Y-125460074D01*
X172974784Y-124927608D01*
X173427608Y-124474784D01*
X173960074Y-124119001D01*
X174551718Y-123873934D01*
X174865761Y-123811467D01*
X175179803Y-123749000D01*
X175820197Y-123749000D01*
X176134239Y-123811467D01*
X176134239Y-123811467D01*
G37*
G36*
X142134239Y-115811467D02*
G01*
X142448282Y-115873934D01*
X143039926Y-116119001D01*
X143572392Y-116474784D01*
X144025216Y-116927608D01*
X144380999Y-117460074D01*
X144626066Y-118051718D01*
X144626066Y-118051719D01*
X144751000Y-118679803D01*
X144751000Y-119320197D01*
X144688533Y-119634239D01*
X144626066Y-119948282D01*
X144380999Y-120539926D01*
X144025216Y-121072392D01*
X143572392Y-121525216D01*
X143039926Y-121880999D01*
X142448282Y-122126066D01*
X142134239Y-122188533D01*
X141820197Y-122251000D01*
X141179803Y-122251000D01*
X140865761Y-122188533D01*
X140551718Y-122126066D01*
X139960074Y-121880999D01*
X139427608Y-121525216D01*
X138974784Y-121072392D01*
X138619001Y-120539926D01*
X138373934Y-119948282D01*
X138311467Y-119634239D01*
X138249000Y-119320197D01*
X138249000Y-118679803D01*
X138373934Y-118051719D01*
X138373934Y-118051718D01*
X138619001Y-117460074D01*
X138974784Y-116927608D01*
X139427608Y-116474784D01*
X139960074Y-116119001D01*
X140551718Y-115873934D01*
X140865761Y-115811467D01*
X141179803Y-115749000D01*
X141820197Y-115749000D01*
X142134239Y-115811467D01*
X142134239Y-115811467D01*
G37*
G36*
X108134239Y-115811467D02*
G01*
X108448282Y-115873934D01*
X109039926Y-116119001D01*
X109572392Y-116474784D01*
X110025216Y-116927608D01*
X110380999Y-117460074D01*
X110626066Y-118051718D01*
X110626066Y-118051719D01*
X110751000Y-118679803D01*
X110751000Y-119320197D01*
X110688533Y-119634239D01*
X110626066Y-119948282D01*
X110380999Y-120539926D01*
X110025216Y-121072392D01*
X109572392Y-121525216D01*
X109039926Y-121880999D01*
X108448282Y-122126066D01*
X108134239Y-122188533D01*
X107820197Y-122251000D01*
X107179803Y-122251000D01*
X106865761Y-122188533D01*
X106551718Y-122126066D01*
X105960074Y-121880999D01*
X105427608Y-121525216D01*
X104974784Y-121072392D01*
X104619001Y-120539926D01*
X104373934Y-119948282D01*
X104311467Y-119634239D01*
X104249000Y-119320197D01*
X104249000Y-118679803D01*
X104373934Y-118051719D01*
X104373934Y-118051718D01*
X104619001Y-117460074D01*
X104974784Y-116927608D01*
X105427608Y-116474784D01*
X105960074Y-116119001D01*
X106551718Y-115873934D01*
X106865761Y-115811467D01*
X107179803Y-115749000D01*
X107820197Y-115749000D01*
X108134239Y-115811467D01*
X108134239Y-115811467D01*
G37*
G36*
X176134239Y-115811467D02*
G01*
X176448282Y-115873934D01*
X177039926Y-116119001D01*
X177572392Y-116474784D01*
X178025216Y-116927608D01*
X178380999Y-117460074D01*
X178626066Y-118051718D01*
X178626066Y-118051719D01*
X178751000Y-118679803D01*
X178751000Y-119320197D01*
X178688533Y-119634239D01*
X178626066Y-119948282D01*
X178380999Y-120539926D01*
X178025216Y-121072392D01*
X177572392Y-121525216D01*
X177039926Y-121880999D01*
X176448282Y-122126066D01*
X176134239Y-122188533D01*
X175820197Y-122251000D01*
X175179803Y-122251000D01*
X174865761Y-122188533D01*
X174551718Y-122126066D01*
X173960074Y-121880999D01*
X173427608Y-121525216D01*
X172974784Y-121072392D01*
X172619001Y-120539926D01*
X172373934Y-119948282D01*
X172311467Y-119634239D01*
X172249000Y-119320197D01*
X172249000Y-118679803D01*
X172373934Y-118051719D01*
X172373934Y-118051718D01*
X172619001Y-117460074D01*
X172974784Y-116927608D01*
X173427608Y-116474784D01*
X173960074Y-116119001D01*
X174551718Y-115873934D01*
X174865761Y-115811467D01*
X175179803Y-115749000D01*
X175820197Y-115749000D01*
X176134239Y-115811467D01*
X176134239Y-115811467D01*
G37*
G36*
X104646000Y-116376000D02*
G01*
X100354000Y-116376000D01*
X100354000Y-113274000D01*
X104646000Y-113274000D01*
X104646000Y-116376000D01*
X104646000Y-116376000D01*
G37*
G36*
X104646000Y-109726000D02*
G01*
X100354000Y-109726000D01*
X100354000Y-106624000D01*
X104646000Y-106624000D01*
X104646000Y-109726000D01*
X104646000Y-109726000D01*
G37*
G36*
X176134239Y-100811467D02*
G01*
X176448282Y-100873934D01*
X177039926Y-101119001D01*
X177572392Y-101474784D01*
X178025216Y-101927608D01*
X178380999Y-102460074D01*
X178626066Y-103051718D01*
X178626066Y-103051719D01*
X178751000Y-103679803D01*
X178751000Y-104320197D01*
X178688533Y-104634239D01*
X178626066Y-104948282D01*
X178380999Y-105539926D01*
X178025216Y-106072392D01*
X177572392Y-106525216D01*
X177039926Y-106880999D01*
X176448282Y-107126066D01*
X176134239Y-107188533D01*
X175820197Y-107251000D01*
X175179803Y-107251000D01*
X174865761Y-107188533D01*
X174551718Y-107126066D01*
X173960074Y-106880999D01*
X173427608Y-106525216D01*
X172974784Y-106072392D01*
X172619001Y-105539926D01*
X172373934Y-104948282D01*
X172311467Y-104634239D01*
X172249000Y-104320197D01*
X172249000Y-103679803D01*
X172373934Y-103051719D01*
X172373934Y-103051718D01*
X172619001Y-102460074D01*
X172974784Y-101927608D01*
X173427608Y-101474784D01*
X173960074Y-101119001D01*
X174551718Y-100873934D01*
X174865761Y-100811467D01*
X175179803Y-100749000D01*
X175820197Y-100749000D01*
X176134239Y-100811467D01*
X176134239Y-100811467D01*
G37*
G36*
X142134239Y-100811467D02*
G01*
X142448282Y-100873934D01*
X143039926Y-101119001D01*
X143572392Y-101474784D01*
X144025216Y-101927608D01*
X144380999Y-102460074D01*
X144626066Y-103051718D01*
X144626066Y-103051719D01*
X144751000Y-103679803D01*
X144751000Y-104320197D01*
X144688533Y-104634239D01*
X144626066Y-104948282D01*
X144380999Y-105539926D01*
X144025216Y-106072392D01*
X143572392Y-106525216D01*
X143039926Y-106880999D01*
X142448282Y-107126066D01*
X142134239Y-107188533D01*
X141820197Y-107251000D01*
X141179803Y-107251000D01*
X140865761Y-107188533D01*
X140551718Y-107126066D01*
X139960074Y-106880999D01*
X139427608Y-106525216D01*
X138974784Y-106072392D01*
X138619001Y-105539926D01*
X138373934Y-104948282D01*
X138311467Y-104634239D01*
X138249000Y-104320197D01*
X138249000Y-103679803D01*
X138373934Y-103051719D01*
X138373934Y-103051718D01*
X138619001Y-102460074D01*
X138974784Y-101927608D01*
X139427608Y-101474784D01*
X139960074Y-101119001D01*
X140551718Y-100873934D01*
X140865761Y-100811467D01*
X141179803Y-100749000D01*
X141820197Y-100749000D01*
X142134239Y-100811467D01*
X142134239Y-100811467D01*
G37*
G36*
X108134239Y-100811467D02*
G01*
X108448282Y-100873934D01*
X109039926Y-101119001D01*
X109572392Y-101474784D01*
X110025216Y-101927608D01*
X110380999Y-102460074D01*
X110626066Y-103051718D01*
X110626066Y-103051719D01*
X110751000Y-103679803D01*
X110751000Y-104320197D01*
X110688533Y-104634239D01*
X110626066Y-104948282D01*
X110380999Y-105539926D01*
X110025216Y-106072392D01*
X109572392Y-106525216D01*
X109039926Y-106880999D01*
X108448282Y-107126066D01*
X108134239Y-107188533D01*
X107820197Y-107251000D01*
X107179803Y-107251000D01*
X106865761Y-107188533D01*
X106551718Y-107126066D01*
X105960074Y-106880999D01*
X105427608Y-106525216D01*
X104974784Y-106072392D01*
X104619001Y-105539926D01*
X104373934Y-104948282D01*
X104311467Y-104634239D01*
X104249000Y-104320197D01*
X104249000Y-103679803D01*
X104373934Y-103051719D01*
X104373934Y-103051718D01*
X104619001Y-102460074D01*
X104974784Y-101927608D01*
X105427608Y-101474784D01*
X105960074Y-101119001D01*
X106551718Y-100873934D01*
X106865761Y-100811467D01*
X107179803Y-100749000D01*
X107820197Y-100749000D01*
X108134239Y-100811467D01*
X108134239Y-100811467D01*
G37*
G36*
X108134239Y-92811467D02*
G01*
X108448282Y-92873934D01*
X109039926Y-93119001D01*
X109572392Y-93474784D01*
X110025216Y-93927608D01*
X110380999Y-94460074D01*
X110626066Y-95051718D01*
X110626066Y-95051719D01*
X110751000Y-95679803D01*
X110751000Y-96320197D01*
X110688533Y-96634239D01*
X110626066Y-96948282D01*
X110380999Y-97539926D01*
X110025216Y-98072392D01*
X109572392Y-98525216D01*
X109039926Y-98880999D01*
X108448282Y-99126066D01*
X108134239Y-99188533D01*
X107820197Y-99251000D01*
X107179803Y-99251000D01*
X106865761Y-99188533D01*
X106551718Y-99126066D01*
X105960074Y-98880999D01*
X105427608Y-98525216D01*
X104974784Y-98072392D01*
X104619001Y-97539926D01*
X104373934Y-96948282D01*
X104311467Y-96634239D01*
X104249000Y-96320197D01*
X104249000Y-95679803D01*
X104373934Y-95051719D01*
X104373934Y-95051718D01*
X104619001Y-94460074D01*
X104974784Y-93927608D01*
X105427608Y-93474784D01*
X105960074Y-93119001D01*
X106551718Y-92873934D01*
X106865761Y-92811467D01*
X107179803Y-92749000D01*
X107820197Y-92749000D01*
X108134239Y-92811467D01*
X108134239Y-92811467D01*
G37*
G36*
X176134239Y-92811467D02*
G01*
X176448282Y-92873934D01*
X177039926Y-93119001D01*
X177572392Y-93474784D01*
X178025216Y-93927608D01*
X178380999Y-94460074D01*
X178626066Y-95051718D01*
X178626066Y-95051719D01*
X178751000Y-95679803D01*
X178751000Y-96320197D01*
X178688533Y-96634239D01*
X178626066Y-96948282D01*
X178380999Y-97539926D01*
X178025216Y-98072392D01*
X177572392Y-98525216D01*
X177039926Y-98880999D01*
X176448282Y-99126066D01*
X176134239Y-99188533D01*
X175820197Y-99251000D01*
X175179803Y-99251000D01*
X174865761Y-99188533D01*
X174551718Y-99126066D01*
X173960074Y-98880999D01*
X173427608Y-98525216D01*
X172974784Y-98072392D01*
X172619001Y-97539926D01*
X172373934Y-96948282D01*
X172311467Y-96634239D01*
X172249000Y-96320197D01*
X172249000Y-95679803D01*
X172373934Y-95051719D01*
X172373934Y-95051718D01*
X172619001Y-94460074D01*
X172974784Y-93927608D01*
X173427608Y-93474784D01*
X173960074Y-93119001D01*
X174551718Y-92873934D01*
X174865761Y-92811467D01*
X175179803Y-92749000D01*
X175820197Y-92749000D01*
X176134239Y-92811467D01*
X176134239Y-92811467D01*
G37*
G36*
X142134239Y-92811467D02*
G01*
X142448282Y-92873934D01*
X143039926Y-93119001D01*
X143572392Y-93474784D01*
X144025216Y-93927608D01*
X144380999Y-94460074D01*
X144626066Y-95051718D01*
X144626066Y-95051719D01*
X144751000Y-95679803D01*
X144751000Y-96320197D01*
X144688533Y-96634239D01*
X144626066Y-96948282D01*
X144380999Y-97539926D01*
X144025216Y-98072392D01*
X143572392Y-98525216D01*
X143039926Y-98880999D01*
X142448282Y-99126066D01*
X142134239Y-99188533D01*
X141820197Y-99251000D01*
X141179803Y-99251000D01*
X140865761Y-99188533D01*
X140551718Y-99126066D01*
X139960074Y-98880999D01*
X139427608Y-98525216D01*
X138974784Y-98072392D01*
X138619001Y-97539926D01*
X138373934Y-96948282D01*
X138311467Y-96634239D01*
X138249000Y-96320197D01*
X138249000Y-95679803D01*
X138373934Y-95051719D01*
X138373934Y-95051718D01*
X138619001Y-94460074D01*
X138974784Y-93927608D01*
X139427608Y-93474784D01*
X139960074Y-93119001D01*
X140551718Y-92873934D01*
X140865761Y-92811467D01*
X141179803Y-92749000D01*
X141820197Y-92749000D01*
X142134239Y-92811467D01*
X142134239Y-92811467D01*
G37*
G36*
X104646000Y-93376000D02*
G01*
X100354000Y-93376000D01*
X100354000Y-90274000D01*
X104646000Y-90274000D01*
X104646000Y-93376000D01*
X104646000Y-93376000D01*
G37*
G36*
X104646000Y-86726000D02*
G01*
X100354000Y-86726000D01*
X100354000Y-83624000D01*
X104646000Y-83624000D01*
X104646000Y-86726000D01*
X104646000Y-86726000D01*
G37*
G36*
X176134239Y-77811467D02*
G01*
X176448282Y-77873934D01*
X177039926Y-78119001D01*
X177572392Y-78474784D01*
X178025216Y-78927608D01*
X178380999Y-79460074D01*
X178626066Y-80051718D01*
X178626066Y-80051719D01*
X178751000Y-80679803D01*
X178751000Y-81320197D01*
X178688533Y-81634239D01*
X178626066Y-81948282D01*
X178380999Y-82539926D01*
X178025216Y-83072392D01*
X177572392Y-83525216D01*
X177039926Y-83880999D01*
X176448282Y-84126066D01*
X176134239Y-84188533D01*
X175820197Y-84251000D01*
X175179803Y-84251000D01*
X174865761Y-84188533D01*
X174551718Y-84126066D01*
X173960074Y-83880999D01*
X173427608Y-83525216D01*
X172974784Y-83072392D01*
X172619001Y-82539926D01*
X172373934Y-81948282D01*
X172311467Y-81634239D01*
X172249000Y-81320197D01*
X172249000Y-80679803D01*
X172373934Y-80051719D01*
X172373934Y-80051718D01*
X172619001Y-79460074D01*
X172974784Y-78927608D01*
X173427608Y-78474784D01*
X173960074Y-78119001D01*
X174551718Y-77873934D01*
X174865761Y-77811467D01*
X175179803Y-77749000D01*
X175820197Y-77749000D01*
X176134239Y-77811467D01*
X176134239Y-77811467D01*
G37*
G36*
X142134239Y-77811467D02*
G01*
X142448282Y-77873934D01*
X143039926Y-78119001D01*
X143572392Y-78474784D01*
X144025216Y-78927608D01*
X144380999Y-79460074D01*
X144626066Y-80051718D01*
X144626066Y-80051719D01*
X144751000Y-80679803D01*
X144751000Y-81320197D01*
X144688533Y-81634239D01*
X144626066Y-81948282D01*
X144380999Y-82539926D01*
X144025216Y-83072392D01*
X143572392Y-83525216D01*
X143039926Y-83880999D01*
X142448282Y-84126066D01*
X142134239Y-84188533D01*
X141820197Y-84251000D01*
X141179803Y-84251000D01*
X140865761Y-84188533D01*
X140551718Y-84126066D01*
X139960074Y-83880999D01*
X139427608Y-83525216D01*
X138974784Y-83072392D01*
X138619001Y-82539926D01*
X138373934Y-81948282D01*
X138311467Y-81634239D01*
X138249000Y-81320197D01*
X138249000Y-80679803D01*
X138373934Y-80051719D01*
X138373934Y-80051718D01*
X138619001Y-79460074D01*
X138974784Y-78927608D01*
X139427608Y-78474784D01*
X139960074Y-78119001D01*
X140551718Y-77873934D01*
X140865761Y-77811467D01*
X141179803Y-77749000D01*
X141820197Y-77749000D01*
X142134239Y-77811467D01*
X142134239Y-77811467D01*
G37*
G36*
X108134239Y-77811467D02*
G01*
X108448282Y-77873934D01*
X109039926Y-78119001D01*
X109572392Y-78474784D01*
X110025216Y-78927608D01*
X110380999Y-79460074D01*
X110626066Y-80051718D01*
X110626066Y-80051719D01*
X110751000Y-80679803D01*
X110751000Y-81320197D01*
X110688533Y-81634239D01*
X110626066Y-81948282D01*
X110380999Y-82539926D01*
X110025216Y-83072392D01*
X109572392Y-83525216D01*
X109039926Y-83880999D01*
X108448282Y-84126066D01*
X108134239Y-84188533D01*
X107820197Y-84251000D01*
X107179803Y-84251000D01*
X106865761Y-84188533D01*
X106551718Y-84126066D01*
X105960074Y-83880999D01*
X105427608Y-83525216D01*
X104974784Y-83072392D01*
X104619001Y-82539926D01*
X104373934Y-81948282D01*
X104311467Y-81634239D01*
X104249000Y-81320197D01*
X104249000Y-80679803D01*
X104373934Y-80051719D01*
X104373934Y-80051718D01*
X104619001Y-79460074D01*
X104974784Y-78927608D01*
X105427608Y-78474784D01*
X105960074Y-78119001D01*
X106551718Y-77873934D01*
X106865761Y-77811467D01*
X107179803Y-77749000D01*
X107820197Y-77749000D01*
X108134239Y-77811467D01*
X108134239Y-77811467D01*
G37*
G36*
X108134239Y-69811467D02*
G01*
X108448282Y-69873934D01*
X109039926Y-70119001D01*
X109572392Y-70474784D01*
X110025216Y-70927608D01*
X110380999Y-71460074D01*
X110626066Y-72051718D01*
X110626066Y-72051719D01*
X110751000Y-72679803D01*
X110751000Y-73320197D01*
X110688533Y-73634239D01*
X110626066Y-73948282D01*
X110380999Y-74539926D01*
X110025216Y-75072392D01*
X109572392Y-75525216D01*
X109039926Y-75880999D01*
X108448282Y-76126066D01*
X108134239Y-76188533D01*
X107820197Y-76251000D01*
X107179803Y-76251000D01*
X106865761Y-76188533D01*
X106551718Y-76126066D01*
X105960074Y-75880999D01*
X105427608Y-75525216D01*
X104974784Y-75072392D01*
X104619001Y-74539926D01*
X104373934Y-73948282D01*
X104311467Y-73634239D01*
X104249000Y-73320197D01*
X104249000Y-72679803D01*
X104373934Y-72051719D01*
X104373934Y-72051718D01*
X104619001Y-71460074D01*
X104974784Y-70927608D01*
X105427608Y-70474784D01*
X105960074Y-70119001D01*
X106551718Y-69873934D01*
X106865761Y-69811467D01*
X107179803Y-69749000D01*
X107820197Y-69749000D01*
X108134239Y-69811467D01*
X108134239Y-69811467D01*
G37*
G36*
X142134239Y-69811467D02*
G01*
X142448282Y-69873934D01*
X143039926Y-70119001D01*
X143572392Y-70474784D01*
X144025216Y-70927608D01*
X144380999Y-71460074D01*
X144626066Y-72051718D01*
X144626066Y-72051719D01*
X144751000Y-72679803D01*
X144751000Y-73320197D01*
X144688533Y-73634239D01*
X144626066Y-73948282D01*
X144380999Y-74539926D01*
X144025216Y-75072392D01*
X143572392Y-75525216D01*
X143039926Y-75880999D01*
X142448282Y-76126066D01*
X142134239Y-76188533D01*
X141820197Y-76251000D01*
X141179803Y-76251000D01*
X140865761Y-76188533D01*
X140551718Y-76126066D01*
X139960074Y-75880999D01*
X139427608Y-75525216D01*
X138974784Y-75072392D01*
X138619001Y-74539926D01*
X138373934Y-73948282D01*
X138311467Y-73634239D01*
X138249000Y-73320197D01*
X138249000Y-72679803D01*
X138373934Y-72051719D01*
X138373934Y-72051718D01*
X138619001Y-71460074D01*
X138974784Y-70927608D01*
X139427608Y-70474784D01*
X139960074Y-70119001D01*
X140551718Y-69873934D01*
X140865761Y-69811467D01*
X141179803Y-69749000D01*
X141820197Y-69749000D01*
X142134239Y-69811467D01*
X142134239Y-69811467D01*
G37*
G36*
X176134239Y-69811467D02*
G01*
X176448282Y-69873934D01*
X177039926Y-70119001D01*
X177572392Y-70474784D01*
X178025216Y-70927608D01*
X178380999Y-71460074D01*
X178626066Y-72051718D01*
X178626066Y-72051719D01*
X178751000Y-72679803D01*
X178751000Y-73320197D01*
X178688533Y-73634239D01*
X178626066Y-73948282D01*
X178380999Y-74539926D01*
X178025216Y-75072392D01*
X177572392Y-75525216D01*
X177039926Y-75880999D01*
X176448282Y-76126066D01*
X176134239Y-76188533D01*
X175820197Y-76251000D01*
X175179803Y-76251000D01*
X174865761Y-76188533D01*
X174551718Y-76126066D01*
X173960074Y-75880999D01*
X173427608Y-75525216D01*
X172974784Y-75072392D01*
X172619001Y-74539926D01*
X172373934Y-73948282D01*
X172311467Y-73634239D01*
X172249000Y-73320197D01*
X172249000Y-72679803D01*
X172373934Y-72051719D01*
X172373934Y-72051718D01*
X172619001Y-71460074D01*
X172974784Y-70927608D01*
X173427608Y-70474784D01*
X173960074Y-70119001D01*
X174551718Y-69873934D01*
X174865761Y-69811467D01*
X175179803Y-69749000D01*
X175820197Y-69749000D01*
X176134239Y-69811467D01*
X176134239Y-69811467D01*
G37*
G36*
X104646000Y-70376000D02*
G01*
X100354000Y-70376000D01*
X100354000Y-67274000D01*
X104646000Y-67274000D01*
X104646000Y-70376000D01*
X104646000Y-70376000D01*
G37*
G36*
X104646000Y-63726000D02*
G01*
X100354000Y-63726000D01*
X100354000Y-60624000D01*
X104646000Y-60624000D01*
X104646000Y-63726000D01*
X104646000Y-63726000D01*
G37*
G36*
X176134239Y-54811467D02*
G01*
X176448282Y-54873934D01*
X177039926Y-55119001D01*
X177572392Y-55474784D01*
X178025216Y-55927608D01*
X178380999Y-56460074D01*
X178626066Y-57051718D01*
X178626066Y-57051719D01*
X178751000Y-57679803D01*
X178751000Y-58320197D01*
X178688533Y-58634239D01*
X178626066Y-58948282D01*
X178380999Y-59539926D01*
X178025216Y-60072392D01*
X177572392Y-60525216D01*
X177039926Y-60880999D01*
X176448282Y-61126066D01*
X176134239Y-61188533D01*
X175820197Y-61251000D01*
X175179803Y-61251000D01*
X174865761Y-61188533D01*
X174551718Y-61126066D01*
X173960074Y-60880999D01*
X173427608Y-60525216D01*
X172974784Y-60072392D01*
X172619001Y-59539926D01*
X172373934Y-58948282D01*
X172311467Y-58634239D01*
X172249000Y-58320197D01*
X172249000Y-57679803D01*
X172373934Y-57051719D01*
X172373934Y-57051718D01*
X172619001Y-56460074D01*
X172974784Y-55927608D01*
X173427608Y-55474784D01*
X173960074Y-55119001D01*
X174551718Y-54873934D01*
X174865761Y-54811467D01*
X175179803Y-54749000D01*
X175820197Y-54749000D01*
X176134239Y-54811467D01*
X176134239Y-54811467D01*
G37*
G36*
X108134239Y-54811467D02*
G01*
X108448282Y-54873934D01*
X109039926Y-55119001D01*
X109572392Y-55474784D01*
X110025216Y-55927608D01*
X110380999Y-56460074D01*
X110626066Y-57051718D01*
X110626066Y-57051719D01*
X110751000Y-57679803D01*
X110751000Y-58320197D01*
X110688533Y-58634239D01*
X110626066Y-58948282D01*
X110380999Y-59539926D01*
X110025216Y-60072392D01*
X109572392Y-60525216D01*
X109039926Y-60880999D01*
X108448282Y-61126066D01*
X108134239Y-61188533D01*
X107820197Y-61251000D01*
X107179803Y-61251000D01*
X106865761Y-61188533D01*
X106551718Y-61126066D01*
X105960074Y-60880999D01*
X105427608Y-60525216D01*
X104974784Y-60072392D01*
X104619001Y-59539926D01*
X104373934Y-58948282D01*
X104311467Y-58634239D01*
X104249000Y-58320197D01*
X104249000Y-57679803D01*
X104373934Y-57051719D01*
X104373934Y-57051718D01*
X104619001Y-56460074D01*
X104974784Y-55927608D01*
X105427608Y-55474784D01*
X105960074Y-55119001D01*
X106551718Y-54873934D01*
X106865761Y-54811467D01*
X107179803Y-54749000D01*
X107820197Y-54749000D01*
X108134239Y-54811467D01*
X108134239Y-54811467D01*
G37*
G36*
X142134239Y-54811467D02*
G01*
X142448282Y-54873934D01*
X143039926Y-55119001D01*
X143572392Y-55474784D01*
X144025216Y-55927608D01*
X144380999Y-56460074D01*
X144626066Y-57051718D01*
X144626066Y-57051719D01*
X144751000Y-57679803D01*
X144751000Y-58320197D01*
X144688533Y-58634239D01*
X144626066Y-58948282D01*
X144380999Y-59539926D01*
X144025216Y-60072392D01*
X143572392Y-60525216D01*
X143039926Y-60880999D01*
X142448282Y-61126066D01*
X142134239Y-61188533D01*
X141820197Y-61251000D01*
X141179803Y-61251000D01*
X140865761Y-61188533D01*
X140551718Y-61126066D01*
X139960074Y-60880999D01*
X139427608Y-60525216D01*
X138974784Y-60072392D01*
X138619001Y-59539926D01*
X138373934Y-58948282D01*
X138311467Y-58634239D01*
X138249000Y-58320197D01*
X138249000Y-57679803D01*
X138373934Y-57051719D01*
X138373934Y-57051718D01*
X138619001Y-56460074D01*
X138974784Y-55927608D01*
X139427608Y-55474784D01*
X139960074Y-55119001D01*
X140551718Y-54873934D01*
X140865761Y-54811467D01*
X141179803Y-54749000D01*
X141820197Y-54749000D01*
X142134239Y-54811467D01*
X142134239Y-54811467D01*
G37*
M02*
