M48
; DRILL file {KiCad 7.0.1} date Mon May 15 13:54:48 2023
; FORMAT={-:-/ absolute / inch / decimal}
; #@! TF.CreationDate,2023-05-15T13:54:48-06:00
; #@! TF.GenerationSoftware,Kicad,Pcbnew,7.0.1
; #@! TF.FileFunction,Plated,1,4,PTH
FMAT,2
INCH
; #@! TA.AperFunction,Plated,PTH,ViaDrill
T1C0.0157
; #@! TA.AperFunction,Plated,PTH,ComponentDrill
T2C0.0157
%
G90
G05
T1
X3.9764Y-2.4016
X3.9764Y-2.5
X3.9764Y-2.5787
X3.9764Y-2.6575
X3.9764Y-2.7559
X4.0354Y-2.4016
X4.0354Y-2.5
X4.0354Y-2.5788
X4.0354Y-2.6575
X4.0354Y-2.7559
X4.0945Y-2.4016
X4.0945Y-2.5
X4.0945Y-2.5787
X4.0945Y-2.6575
X4.0945Y-2.7559
X4.0948Y-2.4504
X4.0948Y-2.7068
X4.1535Y-2.5
X4.1535Y-2.6575
X4.2126Y-2.5
X4.2126Y-2.6575
X4.2717Y-2.5
X4.2717Y-2.6575
X4.3307Y-2.5
X4.3307Y-2.6575
X4.3898Y-2.5
X4.3898Y-2.6575
X4.4488Y-2.5
X4.4488Y-2.6575
X4.5079Y-2.5
X4.5079Y-2.6575
X4.5669Y-2.5
X4.5669Y-2.6575
X4.626Y-2.5
X4.626Y-2.6575
X4.685Y-2.5
X4.685Y-2.6575
X4.7441Y-2.5
X4.7441Y-2.6575
X4.8031Y-2.5
X4.8031Y-2.6575
X4.8622Y-2.5
X4.8622Y-2.6575
X4.9213Y-2.5
X4.9213Y-2.6575
X4.9803Y-2.5
X4.9803Y-2.6575
X5.0394Y-2.5
X5.0394Y-2.6575
X5.0984Y-2.5
X5.0984Y-2.6575
X5.1575Y-2.5
X5.1575Y-2.6575
X5.2165Y-2.5
X5.2165Y-2.6575
X5.2756Y-2.5
X5.2756Y-2.6575
X5.3346Y-2.5
X5.3346Y-2.6575
X5.3937Y-2.5
X5.3937Y-2.6575
X5.4528Y-2.5
X5.4528Y-2.6575
X5.5118Y-2.5
X5.5118Y-2.6575
X5.5709Y-2.5
X5.5709Y-2.6575
X5.6299Y-2.5
X5.6299Y-2.6575
X5.689Y-2.5
X5.689Y-2.6575
X5.748Y-2.5
X5.748Y-2.6575
X5.8071Y-2.5
X5.8071Y-2.6575
X5.8661Y-2.5
X5.8661Y-2.6575
X5.9252Y-2.5
X5.9252Y-2.6575
X5.9843Y-2.5
X5.9843Y-2.5
X5.9843Y-2.6575
X5.9843Y-2.6575
X6.0433Y-2.5
X6.0433Y-2.6575
X6.1024Y-2.5
X6.1024Y-2.6575
X6.1614Y-2.5
X6.1614Y-2.6575
X6.2205Y-2.5
X6.2205Y-2.6575
X6.2795Y-2.5
X6.2795Y-2.6575
X6.3386Y-2.5
X6.3386Y-2.6575
X6.3976Y-2.5
X6.3976Y-2.6575
X6.4567Y-2.5
X6.4567Y-2.6575
X6.5157Y-2.5
X6.5157Y-2.6575
X6.5748Y-2.5
X6.5748Y-2.6575
X6.6339Y-2.5
X6.6339Y-2.6575
X6.6929Y-2.5
X6.6929Y-2.6575
X6.752Y-2.5
X6.752Y-2.6575
X6.811Y-2.5
X6.811Y-2.6575
X6.8701Y-2.5
X6.8701Y-2.6575
X6.9291Y-2.5
X6.9291Y-2.6575
X6.9882Y-2.5
X6.9882Y-2.6575
X7.0036Y-2.4418
X7.0036Y-2.7156
X7.0272Y-2.3865
X7.0272Y-2.771
X7.0472Y-2.5
X7.0585Y-2.3351
X7.0585Y-2.8224
X7.0866Y-2.5
X7.0968Y-2.2886
X7.0968Y-2.8689
X7.126Y-2.5787
X7.1323Y-2.52
X7.1323Y-2.6374
X7.1412Y-2.2481
X7.1412Y-2.9094
X7.151Y-2.464
X7.151Y-2.6935
X7.1812Y-2.4133
X7.1812Y-2.7442
X7.1911Y-2.2144
X7.1911Y-2.9431
X7.2215Y-2.3701
X7.2215Y-2.7874
X7.2452Y-2.1881
X7.2452Y-2.9694
X7.2701Y-2.3365
X7.2701Y-2.8209
X7.3025Y-2.1697
X7.3025Y-2.9877
X7.3247Y-2.3141
X7.3247Y-2.8434
X7.3619Y-2.1598
X7.3619Y-2.9977
X7.3828Y-2.3038
X7.3828Y-2.8537
X7.422Y-2.1584
X7.422Y-2.9991
X7.4418Y-2.3061
X7.4418Y-2.8514
X7.4818Y-2.1656
X7.4818Y-2.9918
X7.499Y-2.3209
X7.499Y-2.8365
X7.5399Y-2.1813
X7.5399Y-2.9762
X7.5517Y-2.3476
X7.5517Y-2.8099
X7.5951Y-2.2051
X7.5951Y-2.9524
X7.5975Y-2.3849
X7.5975Y-2.7726
X7.6343Y-2.4311
X7.6343Y-2.7264
X7.6464Y-2.2365
X7.6464Y-2.921
X7.6604Y-2.484
X7.6604Y-2.6734
X7.6746Y-2.5413
X7.6746Y-2.6161
X7.6928Y-2.2749
X7.6928Y-2.8825
X7.7331Y-2.3196
X7.7331Y-2.8379
X7.7667Y-2.3695
X7.7667Y-2.788
X7.7928Y-2.4237
X7.7928Y-2.7338
X7.8109Y-2.4811
X7.8109Y-2.6764
X7.8207Y-2.5405
X7.8207Y-2.617
T2
X4.0354Y-2.4478
X4.0354Y-2.7096
T0
M30
