<?xml version="1.0" encoding="UTF-8" standalone="no"?>
<!-- Created with Inkscape (http://www.inkscape.org/) -->

<svg
   version="1.1"
   id="svg2"
   width="750.71997"
   height="172.64"
   viewBox="0 0 750.71997 172.64"
   sodipodi:docname="signal_layer.svg"
   inkscape:version="1.2.2 (732a01da63, 2022-12-09)"
   xmlns:inkscape="http://www.inkscape.org/namespaces/inkscape"
   xmlns:sodipodi="http://sodipodi.sourceforge.net/DTD/sodipodi-0.dtd"
   xmlns="http://www.w3.org/2000/svg"
   xmlns:svg="http://www.w3.org/2000/svg">
  <defs
     id="defs6">
    <clipPath
       clipPathUnits="userSpaceOnUse"
       id="clipPath18">
      <path
         d="M 0,792 H 612 V 0.03 H 0 Z"
         id="path16" />
    </clipPath>
  </defs>
  <sodipodi:namedview
     id="namedview4"
     pagecolor="#ffffff"
     bordercolor="#666666"
     borderopacity="1.0"
     inkscape:showpageshadow="2"
     inkscape:pageopacity="0.0"
     inkscape:pagecheckerboard="0"
     inkscape:deskcolor="#d1d1d1"
     showgrid="false"
     inkscape:zoom="0.81802549"
     inkscape:cx="440.08409"
     inkscape:cy="132.02523"
     inkscape:window-width="1680"
     inkscape:window-height="997"
     inkscape:window-x="-8"
     inkscape:window-y="357"
     inkscape:window-maximized="1"
     inkscape:current-layer="g10">
    <inkscape:page
       x="0"
       y="0"
       id="page8"
       width="750.71997"
       height="172.64" />
  </sodipodi:namedview>
  <g
     id="g10"
     inkscape:groupmode="layer"
     inkscape:label="Page 1"
     transform="matrix(0,1.3333333,1.3333333,0,-152.64,-321.67999)">
    <g
       id="g798"
       transform="translate(308.82,675.36)">
      <path
         d="M 0,0 0.06,0.12 0.12,0.6 V 0.78 L 0.36,1.26 0.48,1.44 0.78,1.86 0.96,2.04 1.2,2.16 H 1.5 L 4.68,1.92 H 4.74 L 8.4,1.38 8.46,1.32 c 7.406,-1.278 14.596,-3.84 21.06,-7.68 h 0.06 l 3.18,-1.92 v -0.06 l 3.06,-2.1 0.06,-0.06 c 3.038,-2.217 5.781,-4.743 8.4,-7.44 V -18 l 2.52,-2.76 v -0.06 l 2.34,-2.94 2.16,-3.06 v -0.06 L 53.28,-30 v -0.06 l 1.74,-3.3 h 0.06 l 1.56,-3.42 1.38,-3.48 v -0.06 c 1.7,-4.526 2.946,-9.838 3.48,-14.64 l 0.36,-3.66 v -0.06 l 0.06,-3.72 v -7.5 l -0.06,-0.48 -0.3,-2.22 -0.12,-0.9 -0.06,-0.06 -0.72,-3.6 -0.96,-3.6 -1.14,-3.48 v -0.06 l -1.38,-3.42 v -0.06 l -1.5,-3.3 -0.06,-0.06 -1.68,-3.24 -0.06,-0.06 -1.86,-3.12 -0.06,-0.06 c -2.661,-4.162 -5.871,-8.028 -9.42,-11.46 l -2.7,-2.46 -2.88,-2.34 -3,-2.16 v -0.06 l -1.2,-0.72 -1.92,-1.26 h -0.06 l -3.18,-1.8 v -0.06 l -3.3,-1.56 -0.06,-0.06 -3.42,-1.44 -3.42,-1.2 -0.06,-0.06 h -0.18 l -0.36,-0.36 v -0.12 l -0.06,-0.06 v -5.82 l 0.06,-0.06 v -0.24 l 0.24,-0.24 v -390.48 l 0.84,-0.84 9.6,-9.66 0.06,-0.06 0.36,-0.48 0.12,-0.12 0.24,-0.72 0.06,-0.42 0.06,-0.18 v -24.42 l -0.12,-0.6 -0.06,-0.18 -0.18,-0.48 -0.12,-0.18 -0.3,-0.42 -0.12,-0.18 -0.3,-0.18 -0.18,-0.12 H 7.08 l -0.24,0.12 -0.12,0.12 -0.12,0.06 -0.12,0.18 -0.36,0.42 -0.12,0.18 -0.18,0.48 -0.06,0.18 -0.06,0.6 v 439.38 l 0.06,0.36 0.18,0.24 0.3,0.12 3.3,0.66 3.48,0.84 3.36,1.14 c 5.644,1.994 10.846,4.894 15.6,8.52 l 1.98,1.68 0.36,0.24 0.36,0.36 2.64,2.46 2.4,2.58 c 12.87,14.523 17.373,34.711 11.94,53.34 l -1.08,3.42 -1.32,3.3 -1.5,3.24 c -4.369,8.44 -10.811,15.81 -18.66,21.18 l -3.06,1.86 -3.12,1.74 C 16.018,-8.372 8.395,-6.227 0.66,-5.82 L 0.36,-5.7 0.12,-5.46 0,-5.1 V 0"
         style="fill:#008500;fill-opacity:1;fill-rule:nonzero;stroke:none"
         id="path800" />
    </g>
    <g
       id="g802"
       transform="translate(261.78,613.92)">
      <path
         d="M 0,0 0.18,3.12 C 1.297,15.655 8.031,27.469 18.24,34.8 l 0.12,0.06 v 0.06 l 2.04,1.32 0.54,0.36 0.06,0.06 2.58,1.5 h 0.12 v 0.06 l 1.92,0.9 0.9,0.42 h 0.06 l 2.16,0.9 0.72,0.24 v 0.06 l 2.94,0.9 h 0.06 l 3,0.72 h 0.06 l 3.06,0.54 h 0.06 l 1.98,0.18 0.36,-0.06 0.3,-0.3 0.12,-0.36 V 32.16 L 41.28,31.86 41.1,31.56 40.74,31.44 38.82,31.2 36.18,30.66 34.92,30.3 33.6,29.88 33.36,29.76 31.74,29.16 31.08,28.92 C 18.357,23.269 10.501,10.241 11.7,-3.66 l 0.3,-2.7 0.54,-2.64 0.78,-2.58 c 12.356,-33.337 59.795,-27.282 63.42,7.92 l 0.12,2.64 -0.12,2.7 -0.3,2.7 L 75.96,6.6 75.9,7.02 C 72.671,19.567 62.413,29.088 49.62,31.2 l -1.92,0.24 -0.36,0.12 -0.18,0.3 -0.12,0.3 v 10.2 l 0.12,0.36 0.3,0.3 0.36,0.06 h 0.24 l 3.06,-0.36 h 0.06 l 3,-0.6 h 0.06 l 3,-0.84 h 0.06 l 2.88,-1.02 h 0.06 L 63.12,39 65.88,37.56 h 0.06 l 2.64,-1.62 h 0.06 l 2.46,-1.8 c 2.549,-1.903 4.798,-4.146 6.9,-6.54 l 1.92,-2.46 1.74,-2.58 V 22.5 l 1.56,-2.64 0.06,-0.06 1.32,-2.76 0.06,-0.06 1.14,-2.88 v -0.06 l 0.96,-2.94 0.78,-3.06 c 1.952,-9.191 0.764,-19.091 -3.18,-27.6 v -0.06 l -1.44,-2.76 v -0.06 l -1.56,-2.64 H 81.3 l -1.38,-1.98 C 73.19,-36.405 62.614,-42.93 51.18,-44.64 H 35.7 v -2.28 l -0.12,-0.18 c -0.715,-0.363 -1.049,-0.002 -1.26,0.66 l -0.54,1.02 -0.78,0.9 c -2.296,2.058 -5.675,2.126 -8.22,3.78 l -0.06,0.06 -2.76,1.44 v 0.06 l -2.64,1.62 -0.06,0.06 -2.46,1.8 -0.06,0.06 -2.34,1.98 -2.22,2.22 h -0.06 l -2.04,2.34 -0.06,0.06 -1.86,2.46 H 8.1 L 6.42,-24 v 0.06 c -1.614,2.694 -2.989,5.491 -4.02,8.46 v 0.06 l -0.9,2.94 v 0.06 l -0.72,3 v 0.06 L 0.3,-6.3 v 0.06 l -0.24,3.06 v 0.06 L 0,0"
         style="fill:#008500;fill-opacity:1;fill-rule:nonzero;stroke:none"
         id="path804" />
    </g>
    <g
       id="g806"
       transform="translate(241.26,612.96)">
      <path
         d="M 0,0 0.06,3.72 V 3.78 L 0.42,7.44 V 7.5 l 0.54,3.72 0.78,3.66 v 0.06 l 0.96,3.6 1.2,3.54 v 0.06 l 1.32,3.42 0.06,0.06 1.56,3.42 H 6.9 l 0.06,0.18 1.68,3.12 v 0.06 l 0.24,0.3 1.68,2.7 0.06,0.12 v 0.06 l 2.16,3.06 2.34,2.94 v 0.06 l 1.98,2.16 0.54,0.6 v 0.06 l 2.64,2.58 v 0.06 l 1.68,1.44 1.14,1.02 v 0.06 l 0.96,0.72 1.98,1.56 0.06,0.06 3.06,2.1 v 0.06 l 3.18,1.92 h 0.06 l 3.24,1.8 h 0.06 c 6.503,3.393 14.311,5.594 21.54,6.48 l 3.18,0.24 h 0.3 l 0.24,-0.12 0.18,-0.18 0.3,-0.42 0.12,-0.18 0.24,-0.48 V 63 l 0.06,-0.48 0.06,-0.12 V 57.3 L 61.8,56.94 61.56,56.7 61.26,56.58 59.4,56.46 57.18,56.16 55.86,56.04 C 27.56,51.36 7.197,26.931 8.04,-1.8 l 0.18,-3.6 0.48,-3.48 0.66,-3.54 0.9,-3.42 1.08,-3.42 C 16.063,-32.525 26.347,-44.345 39,-50.58 l 3.18,-1.5 3.36,-1.32 1.68,-0.6 0.54,-0.12 1.14,-0.18 1.14,0.06 1.14,0.3 1.08,0.48 0.9,0.66 0.84,0.78 0.18,0.3 0.48,0.66 0.18,0.54 0.24,0.3 0.36,0.12 0.42,-0.06 0.24,-0.3 0.12,-0.36 v -445.32 l -0.06,-0.6 -0.06,-0.18 -0.18,-0.48 -0.12,-0.18 -0.36,-0.42 -0.12,-0.18 -0.24,-0.18 -0.24,-0.12 H 34.98 l -0.18,0.12 -0.3,0.24 -0.12,0.12 -0.36,0.42 -0.06,0.18 -0.24,0.54 v 0.18 l -0.06,0.42 -0.06,0.18 v 0.12 l 0.36,17.04 0.18,7.2 v 0.06 l 0.06,0.6 0.06,0.18 0.18,0.48 0.12,0.12 0.3,0.48 0.06,0.06 2.76,2.88 7.2,7.62 v 390.72 l 0.06,0.18 v 0.06 L 45,-68.1 v 5.88 l -0.06,0.12 v 0.06 l -0.06,0.12 -0.18,0.18 -0.12,0.18 H 44.4 l -0.06,0.06 c -9.341,2.938 -18.121,8.311 -25.14,15.12 l -2.52,2.64 H 16.62 C 8.175,-34.491 2.609,-23.332 0.48,-10.98 L 0,-7.74 V 0"
         style="fill:#008500;fill-opacity:1;fill-rule:nonzero;stroke:none"
         id="path808" />
    </g>
    <g
       id="g24"
       transform="translate(297.48,573.24)">
      <path
         d="M 0,0 V -16.98 H -5.64 V 0 H 0"
         style="fill:none;stroke:#008500;stroke-width:0.54;stroke-linecap:round;stroke-linejoin:round;stroke-miterlimit:10;stroke-dasharray:none;stroke-opacity:1"
         id="path26" />
    </g>
    <path
       d="m 291.84,556.26 h 5.64 v 16.98 h -5.64 z"
       style="fill:#008500;fill-opacity:1;fill-rule:nonzero;stroke:none"
       id="path28" />
    <g
       id="g30"
       transform="translate(290.4,564.84)">
      <path
         d="m 0,0 c -16.26,5.28 -28.74,18.48 -33.18,34.98 -4.44,16.5 -0.18,34.14 11.22,46.8 C -10.5,94.5 6.6,100.56 23.46,97.86 40.32,95.22 54.72,84.18 61.68,68.58 68.64,52.92 67.2,34.86 57.9,20.52 48.6,6.18 32.64,-2.46 15.6,-2.46"
         style="fill:none;stroke:#008500;stroke-width:5.64;stroke-linecap:round;stroke-linejoin:round;stroke-miterlimit:10;stroke-dasharray:none;stroke-opacity:1"
         id="path32" />
    </g>
    <path
       d="m 316.32,116.34 h 17.04 v 23.76 h -17.04 z"
       style="fill:#008500;fill-opacity:1;fill-rule:nonzero;stroke:none"
       id="path34" />
    <path
       d="m 278.64,116.34 h 17.04 v 23.76 h -17.04 z"
       style="fill:#008500;fill-opacity:1;fill-rule:nonzero;stroke:none"
       id="path36" />
    <g
       id="g38"
       transform="translate(294.66,343.08)"
       style="fill:#000000;fill-opacity:1">
      <path
         d="M 0,0 C 1.26,0 2.28,-1.02 2.28,-2.28 2.28,-3.6 1.26,-4.62 0,-4.62 c -1.32,0 -2.34,1.02 -2.34,2.34 C -2.34,-1.02 -1.32,0 0,0"
         style="fill:#000000;fill-opacity:1;fill-rule:nonzero;stroke:none"
         id="path40" />
    </g>
    <g
       id="g42"
       transform="translate(294.66,334.56)"
       style="fill:#000000;fill-opacity:1">
      <path
         d="M 0,0 C 1.26,0 2.28,-1.02 2.28,-2.28 2.28,-3.6 1.26,-4.62 0,-4.62 c -1.32,0 -2.34,1.02 -2.34,2.34 C -2.34,-1.02 -1.32,0 0,0"
         style="fill:#000000;fill-opacity:1;fill-rule:nonzero;stroke:none"
         id="path44" />
    </g>
    <g
       id="g46"
       transform="translate(294.66,130.5)"
       style="fill:#000000;fill-opacity:1">
      <path
         d="M 0,0 C 1.26,0 2.28,-1.02 2.28,-2.28 2.28,-3.6 1.26,-4.62 0,-4.62 c -1.32,0 -2.34,1.02 -2.34,2.34 C -2.34,-1.02 -1.32,0 0,0"
         style="fill:#000000;fill-opacity:1;fill-rule:nonzero;stroke:none"
         id="path48" />
    </g>
    <g
       id="g50"
       transform="translate(294.66,164.52)"
       style="fill:#000000;fill-opacity:1">
      <path
         d="M 0,0 C 1.26,0 2.28,-1.02 2.28,-2.28 2.28,-3.6 1.26,-4.62 0,-4.62 c -1.32,0 -2.34,1.02 -2.34,2.34 C -2.34,-1.02 -1.32,0 0,0"
         style="fill:#000000;fill-opacity:1;fill-rule:nonzero;stroke:none"
         id="path52" />
    </g>
    <g
       id="g54"
       transform="translate(294.66,181.5)"
       style="fill:#000000;fill-opacity:1">
      <path
         d="M 0,0 C 1.26,0 2.28,-1.02 2.28,-2.28 2.28,-3.6 1.26,-4.62 0,-4.62 c -1.32,0 -2.34,1.02 -2.34,2.34 C -2.34,-1.02 -1.32,0 0,0"
         style="fill:#000000;fill-opacity:1;fill-rule:nonzero;stroke:none"
         id="path56" />
    </g>
    <g
       id="g58"
       transform="translate(294.66,283.56)"
       style="fill:#000000;fill-opacity:1">
      <path
         d="M 0,0 C 1.26,0 2.28,-1.02 2.28,-2.28 2.28,-3.6 1.26,-4.62 0,-4.62 c -1.32,0 -2.34,1.02 -2.34,2.34 C -2.34,-1.02 -1.32,0 0,0"
         style="fill:#000000;fill-opacity:1;fill-rule:nonzero;stroke:none"
         id="path60" />
    </g>
    <g
       id="g62"
       transform="translate(294.66,292.08)"
       style="fill:#000000;fill-opacity:1">
      <path
         d="M 0,0 C 1.26,0 2.28,-1.02 2.28,-2.28 2.28,-3.6 1.26,-4.62 0,-4.62 c -1.32,0 -2.34,1.02 -2.34,2.34 C -2.34,-1.02 -1.32,0 0,0"
         style="fill:#000000;fill-opacity:1;fill-rule:nonzero;stroke:none"
         id="path64" />
    </g>
    <g
       id="g66"
       transform="translate(294.66,300.54)"
       style="fill:#000000;fill-opacity:1">
      <path
         d="M 0,0 C 1.26,0 2.28,-1.02 2.28,-2.28 2.28,-3.6 1.26,-4.62 0,-4.62 c -1.32,0 -2.34,1.02 -2.34,2.34 C -2.34,-1.02 -1.32,0 0,0"
         style="fill:#000000;fill-opacity:1;fill-rule:nonzero;stroke:none"
         id="path68" />
    </g>
    <g
       id="g70"
       transform="translate(294.66,309.06)"
       style="fill:#000000;fill-opacity:1">
      <path
         d="M 0,0 C 1.26,0 2.28,-1.02 2.28,-2.28 2.28,-3.6 1.26,-4.62 0,-4.62 c -1.32,0 -2.34,1.02 -2.34,2.34 C -2.34,-1.02 -1.32,0 0,0"
         style="fill:#000000;fill-opacity:1;fill-rule:nonzero;stroke:none"
         id="path72" />
    </g>
    <g
       id="g74"
       transform="translate(294.66,266.52)"
       style="fill:#000000;fill-opacity:1">
      <path
         d="M 0,0 C 1.26,0 2.28,-1.02 2.28,-2.28 2.28,-3.6 1.26,-4.62 0,-4.62 c -1.32,0 -2.34,1.02 -2.34,2.34 C -2.34,-1.02 -1.32,0 0,0"
         style="fill:#000000;fill-opacity:1;fill-rule:nonzero;stroke:none"
         id="path76" />
    </g>
    <g
       id="g78"
       transform="translate(294.66,224.04)"
       style="fill:#000000;fill-opacity:1">
      <path
         d="M 0,0 C 1.26,0 2.28,-1.02 2.28,-2.28 2.28,-3.6 1.26,-4.62 0,-4.62 c -1.32,0 -2.34,1.02 -2.34,2.34 C -2.34,-1.02 -1.32,0 0,0"
         style="fill:#000000;fill-opacity:1;fill-rule:nonzero;stroke:none"
         id="path80" />
    </g>
    <g
       id="g82"
       transform="translate(294.66,215.52)"
       style="fill:#000000;fill-opacity:1">
      <path
         d="M 0,0 C 1.26,0 2.28,-1.02 2.28,-2.28 2.28,-3.6 1.26,-4.62 0,-4.62 c -1.32,0 -2.34,1.02 -2.34,2.34 C -2.34,-1.02 -1.32,0 0,0"
         style="fill:#000000;fill-opacity:1;fill-rule:nonzero;stroke:none"
         id="path84" />
    </g>
    <g
       id="g86"
       transform="translate(294.66,121.98)"
       style="fill:#000000;fill-opacity:1">
      <path
         d="M 0,0 C 1.26,0 2.28,-1.02 2.28,-2.28 2.28,-3.6 1.26,-4.62 0,-4.62 c -1.32,0 -2.34,1.02 -2.34,2.34 C -2.34,-1.02 -1.32,0 0,0"
         style="fill:#000000;fill-opacity:1;fill-rule:nonzero;stroke:none"
         id="path88" />
    </g>
    <g
       id="g90"
       transform="translate(294.66,156)"
       style="fill:#000000;fill-opacity:1">
      <path
         d="M 0,0 C 1.26,0 2.28,-1.02 2.28,-2.28 2.28,-3.6 1.26,-4.62 0,-4.62 c -1.32,0 -2.34,1.02 -2.34,2.34 C -2.34,-1.02 -1.32,0 0,0"
         style="fill:#000000;fill-opacity:1;fill-rule:nonzero;stroke:none"
         id="path92" />
    </g>
    <g
       id="g94"
       transform="translate(294.66,258.06)"
       style="fill:#000000;fill-opacity:1">
      <path
         d="M 0,0 C 1.26,0 2.28,-1.02 2.28,-2.28 2.28,-3.6 1.26,-4.62 0,-4.62 c -1.32,0 -2.34,1.02 -2.34,2.34 C -2.34,-1.02 -1.32,0 0,0"
         style="fill:#000000;fill-opacity:1;fill-rule:nonzero;stroke:none"
         id="path96" />
    </g>
    <g
       id="g98"
       transform="translate(294.66,326.1)"
       style="fill:#000000;fill-opacity:1">
      <path
         d="M 0,0 C 1.26,0 2.28,-1.02 2.28,-2.28 2.28,-3.6 1.26,-4.62 0,-4.62 c -1.32,0 -2.34,1.02 -2.34,2.34 C -2.34,-1.02 -1.32,0 0,0"
         style="fill:#000000;fill-opacity:1;fill-rule:nonzero;stroke:none"
         id="path100" />
    </g>
    <g
       id="g102"
       transform="translate(294.66,275.04)"
       style="fill:#000000;fill-opacity:1">
      <path
         d="M 0,0 C 1.26,0 2.28,-1.02 2.28,-2.28 2.28,-3.6 1.26,-4.62 0,-4.62 c -1.32,0 -2.34,1.02 -2.34,2.34 C -2.34,-1.02 -1.32,0 0,0"
         style="fill:#000000;fill-opacity:1;fill-rule:nonzero;stroke:none"
         id="path104" />
    </g>
    <g
       id="g106"
       transform="translate(294.66,207)"
       style="fill:#000000;fill-opacity:1">
      <path
         d="M 0,0 C 1.26,0 2.28,-1.02 2.28,-2.28 2.28,-3.6 1.26,-4.62 0,-4.62 c -1.32,0 -2.34,1.02 -2.34,2.34 C -2.34,-1.02 -1.32,0 0,0"
         style="fill:#000000;fill-opacity:1;fill-rule:nonzero;stroke:none"
         id="path108" />
    </g>
    <g
       id="g110"
       transform="translate(294.66,198.54)"
       style="fill:#000000;fill-opacity:1">
      <path
         d="M 0,0 C 1.26,0 2.28,-1.02 2.28,-2.28 2.28,-3.6 1.26,-4.62 0,-4.62 c -1.32,0 -2.34,1.02 -2.34,2.34 C -2.34,-1.02 -1.32,0 0,0"
         style="fill:#000000;fill-opacity:1;fill-rule:nonzero;stroke:none"
         id="path112" />
    </g>
    <g
       id="g114"
       transform="translate(294.66,249.54)"
       style="fill:#000000;fill-opacity:1">
      <path
         d="M 0,0 C 1.26,0 2.28,-1.02 2.28,-2.28 2.28,-3.6 1.26,-4.62 0,-4.62 c -1.32,0 -2.34,1.02 -2.34,2.34 C -2.34,-1.02 -1.32,0 0,0"
         style="fill:#000000;fill-opacity:1;fill-rule:nonzero;stroke:none"
         id="path116" />
    </g>
    <g
       id="g118"
       transform="translate(294.66,147.48)"
       style="fill:#000000;fill-opacity:1">
      <path
         d="M 0,0 C 1.26,0 2.28,-1.02 2.28,-2.28 2.28,-3.6 1.26,-4.62 0,-4.62 c -1.32,0 -2.34,1.02 -2.34,2.34 C -2.34,-1.02 -1.32,0 0,0"
         style="fill:#000000;fill-opacity:1;fill-rule:nonzero;stroke:none"
         id="path120" />
    </g>
    <g
       id="g122"
       transform="translate(294.66,172.98)"
       style="fill:#000000;fill-opacity:1">
      <path
         d="M 0,0 C 1.26,0 2.28,-1.02 2.28,-2.28 2.28,-3.6 1.26,-4.62 0,-4.62 c -1.32,0 -2.34,1.02 -2.34,2.34 C -2.34,-1.02 -1.32,0 0,0"
         style="fill:#000000;fill-opacity:1;fill-rule:nonzero;stroke:none"
         id="path124" />
    </g>
    <g
       id="g126"
       transform="translate(294.66,317.58)"
       style="fill:#000000;fill-opacity:1">
      <path
         d="M 0,0 C 1.26,0 2.28,-1.02 2.28,-2.28 2.28,-3.6 1.26,-4.62 0,-4.62 c -1.32,0 -2.34,1.02 -2.34,2.34 C -2.34,-1.02 -1.32,0 0,0"
         style="fill:#000000;fill-opacity:1;fill-rule:nonzero;stroke:none"
         id="path128" />
    </g>
    <g
       id="g130"
       transform="translate(294.66,190.02)"
       style="fill:#000000;fill-opacity:1">
      <path
         d="M 0,0 C 1.26,0 2.28,-1.02 2.28,-2.28 2.28,-3.6 1.26,-4.62 0,-4.62 c -1.32,0 -2.34,1.02 -2.34,2.34 C -2.34,-1.02 -1.32,0 0,0"
         style="fill:#000000;fill-opacity:1;fill-rule:nonzero;stroke:none"
         id="path132" />
    </g>
    <g
       id="g134"
       transform="translate(294.66,241.02)"
       style="fill:#000000;fill-opacity:1">
      <path
         d="M 0,0 C 1.26,0 2.28,-1.02 2.28,-2.28 2.28,-3.6 1.26,-4.62 0,-4.62 c -1.32,0 -2.34,1.02 -2.34,2.34 C -2.34,-1.02 -1.32,0 0,0"
         style="fill:#000000;fill-opacity:1;fill-rule:nonzero;stroke:none"
         id="path136" />
    </g>
    <g
       id="g138"
       transform="translate(294.66,138.96)"
       style="fill:#000000;fill-opacity:1">
      <path
         d="M 0,0 C 1.26,0 2.28,-1.02 2.28,-2.28 2.28,-3.6 1.26,-4.62 0,-4.62 c -1.32,0 -2.34,1.02 -2.34,2.34 C -2.34,-1.02 -1.32,0 0,0"
         style="fill:#000000;fill-opacity:1;fill-rule:nonzero;stroke:none"
         id="path140" />
    </g>
    <g
       id="g142"
       transform="translate(294.66,232.56)"
       style="fill:#000000;fill-opacity:1">
      <path
         d="M 0,0 C 1.26,0 2.28,-1.02 2.28,-2.28 2.28,-3.6 1.26,-4.62 0,-4.62 c -1.32,0 -2.34,1.02 -2.34,2.34 C -2.34,-1.02 -1.32,0 0,0"
         style="fill:#000000;fill-opacity:1;fill-rule:nonzero;stroke:none"
         id="path144" />
    </g>
    <g
       id="g146"
       transform="translate(294.66,351.6)"
       style="fill:#000000;fill-opacity:1">
      <path
         d="M 0,0 C 1.26,0 2.28,-1.02 2.28,-2.28 2.28,-3.6 1.26,-4.62 0,-4.62 c -1.32,0 -2.34,1.02 -2.34,2.34 C -2.34,-1.02 -1.32,0 0,0"
         style="fill:#000000;fill-opacity:1;fill-rule:nonzero;stroke:none"
         id="path148" />
    </g>
    <g
       id="g150"
       transform="translate(294.66,555.66)"
       style="fill:#000000;fill-opacity:1">
      <path
         d="M 0,0 C 1.26,0 2.28,-1.02 2.28,-2.28 2.28,-3.6 1.26,-4.62 0,-4.62 c -1.32,0 -2.34,1.02 -2.34,2.34 C -2.34,-1.02 -1.32,0 0,0"
         style="fill:#000000;fill-opacity:1;fill-rule:nonzero;stroke:none"
         id="path152" />
    </g>
    <g
       id="g154"
       transform="translate(294.66,547.2)"
       style="fill:#000000;fill-opacity:1">
      <path
         d="M 0,0 C 1.26,0 2.28,-1.02 2.28,-2.28 2.28,-3.6 1.26,-4.62 0,-4.62 c -1.32,0 -2.34,1.02 -2.34,2.34 C -2.34,-1.02 -1.32,0 0,0"
         style="fill:#000000;fill-opacity:1;fill-rule:nonzero;stroke:none"
         id="path156" />
    </g>
    <g
       id="g158"
       transform="translate(294.66,368.58)"
       style="fill:#000000;fill-opacity:1">
      <path
         d="M 0,0 C 1.26,0 2.28,-1.02 2.28,-2.28 2.28,-3.6 1.26,-4.62 0,-4.62 c -1.32,0 -2.34,1.02 -2.34,2.34 C -2.34,-1.02 -1.32,0 0,0"
         style="fill:#000000;fill-opacity:1;fill-rule:nonzero;stroke:none"
         id="path160" />
    </g>
    <g
       id="g162"
       transform="translate(294.66,360.12)"
       style="fill:#000000;fill-opacity:1">
      <path
         d="M 0,0 C 1.26,0 2.28,-1.02 2.28,-2.28 2.28,-3.6 1.26,-4.62 0,-4.62 c -1.32,0 -2.34,1.02 -2.34,2.34 C -2.34,-1.02 -1.32,0 0,0"
         style="fill:#000000;fill-opacity:1;fill-rule:nonzero;stroke:none"
         id="path164" />
    </g>
    <g
       id="g166"
       transform="translate(294.66,385.62)"
       style="fill:#000000;fill-opacity:1">
      <path
         d="M 0,0 C 1.26,0 2.28,-1.02 2.28,-2.28 2.28,-3.6 1.26,-4.62 0,-4.62 c -1.32,0 -2.34,1.02 -2.34,2.34 C -2.34,-1.02 -1.32,0 0,0"
         style="fill:#000000;fill-opacity:1;fill-rule:nonzero;stroke:none"
         id="path168" />
    </g>
    <g
       id="g170"
       transform="translate(294.66,402.6)"
       style="fill:#000000;fill-opacity:1">
      <path
         d="M 0,0 C 1.26,0 2.28,-1.02 2.28,-2.28 2.28,-3.6 1.26,-4.62 0,-4.62 c -1.32,0 -2.34,1.02 -2.34,2.34 C -2.34,-1.02 -1.32,0 0,0"
         style="fill:#000000;fill-opacity:1;fill-rule:nonzero;stroke:none"
         id="path172" />
    </g>
    <g
       id="g174"
       transform="translate(294.66,377.1)"
       style="fill:#000000;fill-opacity:1">
      <path
         d="M 0,0 C 1.26,0 2.28,-1.02 2.28,-2.28 2.28,-3.6 1.26,-4.62 0,-4.62 c -1.32,0 -2.34,1.02 -2.34,2.34 C -2.34,-1.02 -1.32,0 0,0"
         style="fill:#000000;fill-opacity:1;fill-rule:nonzero;stroke:none"
         id="path176" />
    </g>
    <g
       id="g178"
       transform="translate(294.66,394.08)"
       style="fill:#000000;fill-opacity:1">
      <path
         d="M 0,0 C 1.26,0 2.28,-1.02 2.28,-2.28 2.28,-3.6 1.26,-4.62 0,-4.62 c -1.32,0 -2.34,1.02 -2.34,2.34 C -2.34,-1.02 -1.32,0 0,0"
         style="fill:#000000;fill-opacity:1;fill-rule:nonzero;stroke:none"
         id="path180" />
    </g>
    <g
       id="g182"
       transform="translate(294.66,445.14)"
       style="fill:#000000;fill-opacity:1">
      <path
         d="M 0,0 C 1.26,0 2.28,-1.02 2.28,-2.28 2.28,-3.6 1.26,-4.62 0,-4.62 c -1.32,0 -2.34,1.02 -2.34,2.34 C -2.34,-1.02 -1.32,0 0,0"
         style="fill:#000000;fill-opacity:1;fill-rule:nonzero;stroke:none"
         id="path184" />
    </g>
    <g
       id="g186"
       transform="translate(294.66,411.12)"
       style="fill:#000000;fill-opacity:1">
      <path
         d="M 0,0 C 1.26,0 2.28,-1.02 2.28,-2.28 2.28,-3.6 1.26,-4.62 0,-4.62 c -1.32,0 -2.34,1.02 -2.34,2.34 C -2.34,-1.02 -1.32,0 0,0"
         style="fill:#000000;fill-opacity:1;fill-rule:nonzero;stroke:none"
         id="path188" />
    </g>
    <g
       id="g190"
       transform="translate(294.66,411.12)"
       style="fill:#000000;fill-opacity:1">
      <path
         d="M 0,0 C 1.26,0 2.28,-1.02 2.28,-2.28 2.28,-3.6 1.26,-4.62 0,-4.62 c -1.32,0 -2.34,1.02 -2.34,2.34 C -2.34,-1.02 -1.32,0 0,0"
         style="fill:#000000;fill-opacity:1;fill-rule:nonzero;stroke:none"
         id="path192" />
    </g>
    <g
       id="g194"
       transform="translate(294.66,419.64)"
       style="fill:#000000;fill-opacity:1">
      <path
         d="M 0,0 C 1.26,0 2.28,-1.02 2.28,-2.28 2.28,-3.6 1.26,-4.62 0,-4.62 c -1.32,0 -2.34,1.02 -2.34,2.34 C -2.34,-1.02 -1.32,0 0,0"
         style="fill:#000000;fill-opacity:1;fill-rule:nonzero;stroke:none"
         id="path196" />
    </g>
    <g
       id="g198"
       transform="translate(294.66,428.1)"
       style="fill:#000000;fill-opacity:1">
      <path
         d="M 0,0 C 1.26,0 2.28,-1.02 2.28,-2.28 2.28,-3.6 1.26,-4.62 0,-4.62 c -1.32,0 -2.34,1.02 -2.34,2.34 C -2.34,-1.02 -1.32,0 0,0"
         style="fill:#000000;fill-opacity:1;fill-rule:nonzero;stroke:none"
         id="path200" />
    </g>
    <g
       id="g202"
       transform="translate(294.66,436.62)"
       style="fill:#000000;fill-opacity:1">
      <path
         d="M 0,0 C 1.26,0 2.28,-1.02 2.28,-2.28 2.28,-3.6 1.26,-4.62 0,-4.62 c -1.32,0 -2.34,1.02 -2.34,2.34 C -2.34,-1.02 -1.32,0 0,0"
         style="fill:#000000;fill-opacity:1;fill-rule:nonzero;stroke:none"
         id="path204" />
    </g>
    <g
       id="g206"
       transform="translate(294.66,462.12)"
       style="fill:#000000;fill-opacity:1">
      <path
         d="M 0,0 C 1.26,0 2.28,-1.02 2.28,-2.28 2.28,-3.6 1.26,-4.62 0,-4.62 c -1.32,0 -2.34,1.02 -2.34,2.34 C -2.34,-1.02 -1.32,0 0,0"
         style="fill:#000000;fill-opacity:1;fill-rule:nonzero;stroke:none"
         id="path208" />
    </g>
    <g
       id="g210"
       transform="translate(294.66,453.66)"
       style="fill:#000000;fill-opacity:1">
      <path
         d="M 0,0 C 1.26,0 2.28,-1.02 2.28,-2.28 2.28,-3.6 1.26,-4.62 0,-4.62 c -1.32,0 -2.34,1.02 -2.34,2.34 C -2.34,-1.02 -1.32,0 0,0"
         style="fill:#000000;fill-opacity:1;fill-rule:nonzero;stroke:none"
         id="path212" />
    </g>
    <g
       id="g214"
       transform="translate(294.66,470.64)"
       style="fill:#000000;fill-opacity:1">
      <path
         d="M 0,0 C 1.26,0 2.28,-1.02 2.28,-2.28 2.28,-3.6 1.26,-4.62 0,-4.62 c -1.32,0 -2.34,1.02 -2.34,2.34 C -2.34,-1.02 -1.32,0 0,0"
         style="fill:#000000;fill-opacity:1;fill-rule:nonzero;stroke:none"
         id="path216" />
    </g>
    <g
       id="g218"
       transform="translate(294.66,479.16)"
       style="fill:#000000;fill-opacity:1">
      <path
         d="M 0,0 C 1.26,0 2.28,-1.02 2.28,-2.28 2.28,-3.6 1.26,-4.62 0,-4.62 c -1.32,0 -2.34,1.02 -2.34,2.34 C -2.34,-1.02 -1.32,0 0,0"
         style="fill:#000000;fill-opacity:1;fill-rule:nonzero;stroke:none"
         id="path220" />
    </g>
    <g
       id="g222"
       transform="translate(294.66,487.62)"
       style="fill:#000000;fill-opacity:1">
      <path
         d="M 0,0 C 1.26,0 2.28,-1.02 2.28,-2.28 2.28,-3.6 1.26,-4.62 0,-4.62 c -1.32,0 -2.34,1.02 -2.34,2.34 C -2.34,-1.02 -1.32,0 0,0"
         style="fill:#000000;fill-opacity:1;fill-rule:nonzero;stroke:none"
         id="path224" />
    </g>
    <g
       id="g226"
       transform="translate(294.66,496.14)"
       style="fill:#000000;fill-opacity:1">
      <path
         d="M 0,0 C 1.26,0 2.28,-1.02 2.28,-2.28 2.28,-3.6 1.26,-4.62 0,-4.62 c -1.32,0 -2.34,1.02 -2.34,2.34 C -2.34,-1.02 -1.32,0 0,0"
         style="fill:#000000;fill-opacity:1;fill-rule:nonzero;stroke:none"
         id="path228" />
    </g>
    <g
       id="g230"
       transform="translate(294.66,504.66)"
       style="fill:#000000;fill-opacity:1">
      <path
         d="M 0,0 C 1.26,0 2.28,-1.02 2.28,-2.28 2.28,-3.6 1.26,-4.62 0,-4.62 c -1.32,0 -2.34,1.02 -2.34,2.34 C -2.34,-1.02 -1.32,0 0,0"
         style="fill:#000000;fill-opacity:1;fill-rule:nonzero;stroke:none"
         id="path232" />
    </g>
    <g
       id="g234"
       transform="translate(294.66,513.18)"
       style="fill:#000000;fill-opacity:1">
      <path
         d="M 0,0 C 1.26,0 2.28,-1.02 2.28,-2.28 2.28,-3.6 1.26,-4.62 0,-4.62 c -1.32,0 -2.34,1.02 -2.34,2.34 C -2.34,-1.02 -1.32,0 0,0"
         style="fill:#000000;fill-opacity:1;fill-rule:nonzero;stroke:none"
         id="path236" />
    </g>
    <g
       id="g238"
       transform="translate(294.66,521.64)"
       style="fill:#000000;fill-opacity:1">
      <path
         d="M 0,0 C 1.26,0 2.28,-1.02 2.28,-2.28 2.28,-3.6 1.26,-4.62 0,-4.62 c -1.32,0 -2.34,1.02 -2.34,2.34 C -2.34,-1.02 -1.32,0 0,0"
         style="fill:#000000;fill-opacity:1;fill-rule:nonzero;stroke:none"
         id="path240" />
    </g>
    <g
       id="g242"
       transform="translate(294.66,530.16)"
       style="fill:#000000;fill-opacity:1">
      <path
         d="M 0,0 C 1.26,0 2.28,-1.02 2.28,-2.28 2.28,-3.6 1.26,-4.62 0,-4.62 c -1.32,0 -2.34,1.02 -2.34,2.34 C -2.34,-1.02 -1.32,0 0,0"
         style="fill:#000000;fill-opacity:1;fill-rule:nonzero;stroke:none"
         id="path244" />
    </g>
    <g
       id="g246"
       transform="translate(294.66,538.68)"
       style="fill:#000000;fill-opacity:1">
      <path
         d="M 0,0 C 1.26,0 2.28,-1.02 2.28,-2.28 2.28,-3.6 1.26,-4.62 0,-4.62 c -1.32,0 -2.34,1.02 -2.34,2.34 C -2.34,-1.02 -1.32,0 0,0"
         style="fill:#000000;fill-opacity:1;fill-rule:nonzero;stroke:none"
         id="path248" />
    </g>
    <g
       id="g250"
       transform="translate(314.46,576.42)"
       style="fill:#000000;fill-opacity:1">
      <path
         d="M 0,0 C 1.26,0 2.28,-1.02 2.28,-2.28 2.28,-3.6 1.26,-4.62 0,-4.62 c -1.32,0 -2.34,1.02 -2.34,2.34 C -2.34,-1.02 -1.32,0 0,0"
         style="fill:#000000;fill-opacity:1;fill-rule:nonzero;stroke:none"
         id="path252" />
    </g>
    <g
       id="g254"
       transform="translate(322.5,579.12)"
       style="fill:#000000;fill-opacity:1">
      <path
         d="M 0,0 C 1.26,0 2.28,-1.02 2.28,-2.28 2.28,-3.6 1.26,-4.62 0,-4.62 c -1.32,0 -2.34,1.02 -2.34,2.34 C -2.34,-1.02 -1.32,0 0,0"
         style="fill:#000000;fill-opacity:1;fill-rule:nonzero;stroke:none"
         id="path256" />
    </g>
    <g
       id="g258"
       transform="translate(329.82,583.5)"
       style="fill:#000000;fill-opacity:1">
      <path
         d="M 0,0 C 1.26,0 2.28,-1.02 2.28,-2.28 2.28,-3.6 1.26,-4.62 0,-4.62 c -1.32,0 -2.34,1.02 -2.34,2.34 C -2.34,-1.02 -1.32,0 0,0"
         style="fill:#000000;fill-opacity:1;fill-rule:nonzero;stroke:none"
         id="path260" />
    </g>
    <g
       id="g262"
       transform="translate(336.06,589.26)"
       style="fill:#000000;fill-opacity:1">
      <path
         d="M 0,0 C 1.26,0 2.28,-1.02 2.28,-2.28 2.28,-3.6 1.26,-4.62 0,-4.62 c -1.32,0 -2.34,1.02 -2.34,2.34 C -2.34,-1.02 -1.32,0 0,0"
         style="fill:#000000;fill-opacity:1;fill-rule:nonzero;stroke:none"
         id="path264" />
    </g>
    <g
       id="g266"
       transform="translate(340.86,596.28)"
       style="fill:#000000;fill-opacity:1">
      <path
         d="M 0,0 C 1.26,0 2.28,-1.02 2.28,-2.28 2.28,-3.6 1.26,-4.62 0,-4.62 c -1.32,0 -2.34,1.02 -2.34,2.34 C -2.34,-1.02 -1.32,0 0,0"
         style="fill:#000000;fill-opacity:1;fill-rule:nonzero;stroke:none"
         id="path268" />
    </g>
    <g
       id="g270"
       transform="translate(344.1,604.14)"
       style="fill:#000000;fill-opacity:1">
      <path
         d="M 0,0 C 1.26,0 2.28,-1.02 2.28,-2.28 2.28,-3.6 1.26,-4.62 0,-4.62 c -1.32,0 -2.34,1.02 -2.34,2.34 C -2.34,-1.02 -1.32,0 0,0"
         style="fill:#000000;fill-opacity:1;fill-rule:nonzero;stroke:none"
         id="path272" />
    </g>
    <g
       id="g274"
       transform="translate(345.6,612.48)"
       style="fill:#000000;fill-opacity:1">
      <path
         d="M 0,0 C 1.26,0 2.28,-1.02 2.28,-2.28 2.28,-3.6 1.26,-4.62 0,-4.62 c -1.32,0 -2.34,1.02 -2.34,2.34 C -2.34,-1.02 -1.32,0 0,0"
         style="fill:#000000;fill-opacity:1;fill-rule:nonzero;stroke:none"
         id="path276" />
    </g>
    <g
       id="g278"
       transform="translate(345.24,621)"
       style="fill:#000000;fill-opacity:1">
      <path
         d="M 0,0 C 1.26,0 2.28,-1.02 2.28,-2.28 2.28,-3.6 1.26,-4.62 0,-4.62 c -1.32,0 -2.34,1.02 -2.34,2.34 C -2.34,-1.02 -1.32,0 0,0"
         style="fill:#000000;fill-opacity:1;fill-rule:nonzero;stroke:none"
         id="path280" />
    </g>
    <g
       id="g282"
       transform="translate(343.14,629.22)"
       style="fill:#000000;fill-opacity:1">
      <path
         d="M 0,0 C 1.26,0 2.28,-1.02 2.28,-2.28 2.28,-3.6 1.26,-4.62 0,-4.62 c -1.32,0 -2.34,1.02 -2.34,2.34 C -2.34,-1.02 -1.32,0 0,0"
         style="fill:#000000;fill-opacity:1;fill-rule:nonzero;stroke:none"
         id="path284" />
    </g>
    <g
       id="g286"
       transform="translate(339.3,636.84)"
       style="fill:#000000;fill-opacity:1">
      <path
         d="M 0,0 C 1.26,0 2.28,-1.02 2.28,-2.28 2.28,-3.6 1.26,-4.62 0,-4.62 c -1.32,0 -2.34,1.02 -2.34,2.34 C -2.34,-1.02 -1.32,0 0,0"
         style="fill:#000000;fill-opacity:1;fill-rule:nonzero;stroke:none"
         id="path288" />
    </g>
    <g
       id="g290"
       transform="translate(333.9,643.44)"
       style="fill:#000000;fill-opacity:1">
      <path
         d="M 0,0 C 1.26,0 2.28,-1.02 2.28,-2.28 2.28,-3.6 1.26,-4.62 0,-4.62 c -1.32,0 -2.34,1.02 -2.34,2.34 C -2.34,-1.02 -1.32,0 0,0"
         style="fill:#000000;fill-opacity:1;fill-rule:nonzero;stroke:none"
         id="path292" />
    </g>
    <g
       id="g294"
       transform="translate(327.24,648.72)"
       style="fill:#000000;fill-opacity:1">
      <path
         d="M 0,0 C 1.26,0 2.28,-1.02 2.28,-2.28 2.28,-3.6 1.26,-4.62 0,-4.62 c -1.32,0 -2.34,1.02 -2.34,2.34 C -2.34,-1.02 -1.32,0 0,0"
         style="fill:#000000;fill-opacity:1;fill-rule:nonzero;stroke:none"
         id="path296" />
    </g>
    <g
       id="g298"
       transform="translate(319.62,652.5)"
       style="fill:#000000;fill-opacity:1">
      <path
         d="M 0,0 C 1.26,0 2.28,-1.02 2.28,-2.28 2.28,-3.6 1.26,-4.62 0,-4.62 c -1.32,0 -2.34,1.02 -2.34,2.34 C -2.34,-1.02 -1.32,0 0,0"
         style="fill:#000000;fill-opacity:1;fill-rule:nonzero;stroke:none"
         id="path300" />
    </g>
    <g
       id="g302"
       transform="translate(311.4,654.54)"
       style="fill:#000000;fill-opacity:1">
      <path
         d="M 0,0 C 1.26,0 2.28,-1.02 2.28,-2.28 2.28,-3.6 1.26,-4.62 0,-4.62 c -1.32,0 -2.34,1.02 -2.34,2.34 C -2.34,-1.02 -1.32,0 0,0"
         style="fill:#000000;fill-opacity:1;fill-rule:nonzero;stroke:none"
         id="path304" />
    </g>
    <g
       id="g306"
       transform="translate(297.54,576.42)"
       style="fill:#000000;fill-opacity:1">
      <path
         d="M 0,0 C 1.26,0 2.28,-1.02 2.28,-2.28 2.28,-3.6 1.26,-4.62 0,-4.62 c -1.32,0 -2.34,1.02 -2.34,2.34 C -2.34,-1.02 -1.32,0 0,0"
         style="fill:#000000;fill-opacity:1;fill-rule:nonzero;stroke:none"
         id="path308" />
    </g>
    <g
       id="g310"
       transform="translate(289.5,579.12)"
       style="fill:#000000;fill-opacity:1">
      <path
         d="M 0,0 C 1.26,0 2.28,-1.02 2.28,-2.28 2.28,-3.6 1.26,-4.62 0,-4.62 c -1.32,0 -2.34,1.02 -2.34,2.34 C -2.34,-1.02 -1.32,0 0,0"
         style="fill:#000000;fill-opacity:1;fill-rule:nonzero;stroke:none"
         id="path312" />
    </g>
    <g
       id="g314"
       transform="translate(282.18,583.5)"
       style="fill:#000000;fill-opacity:1">
      <path
         d="M 0,0 C 1.26,0 2.28,-1.02 2.28,-2.28 2.28,-3.6 1.26,-4.62 0,-4.62 c -1.32,0 -2.34,1.02 -2.34,2.34 C -2.34,-1.02 -1.32,0 0,0"
         style="fill:#000000;fill-opacity:1;fill-rule:nonzero;stroke:none"
         id="path316" />
    </g>
    <g
       id="g318"
       transform="translate(275.94,589.26)"
       style="fill:#000000;fill-opacity:1">
      <path
         d="M 0,0 C 1.26,0 2.28,-1.02 2.28,-2.28 2.28,-3.6 1.26,-4.62 0,-4.62 c -1.32,0 -2.34,1.02 -2.34,2.34 C -2.34,-1.02 -1.32,0 0,0"
         style="fill:#000000;fill-opacity:1;fill-rule:nonzero;stroke:none"
         id="path320" />
    </g>
    <g
       id="g322"
       transform="translate(271.14,596.28)"
       style="fill:#000000;fill-opacity:1">
      <path
         d="M 0,0 C 1.26,0 2.28,-1.02 2.28,-2.28 2.28,-3.6 1.26,-4.62 0,-4.62 c -1.32,0 -2.34,1.02 -2.34,2.34 C -2.34,-1.02 -1.32,0 0,0"
         style="fill:#000000;fill-opacity:1;fill-rule:nonzero;stroke:none"
         id="path324" />
    </g>
    <g
       id="g326"
       transform="translate(267.9,604.14)"
       style="fill:#000000;fill-opacity:1">
      <path
         d="M 0,0 C 1.26,0 2.28,-1.02 2.28,-2.28 2.28,-3.6 1.26,-4.62 0,-4.62 c -1.32,0 -2.34,1.02 -2.34,2.34 C -2.34,-1.02 -1.32,0 0,0"
         style="fill:#000000;fill-opacity:1;fill-rule:nonzero;stroke:none"
         id="path328" />
    </g>
    <g
       id="g330"
       transform="translate(266.4,612.48)"
       style="fill:#000000;fill-opacity:1">
      <path
         d="M 0,0 C 1.26,0 2.28,-1.02 2.28,-2.28 2.28,-3.6 1.26,-4.62 0,-4.62 c -1.32,0 -2.34,1.02 -2.34,2.34 C -2.34,-1.02 -1.32,0 0,0"
         style="fill:#000000;fill-opacity:1;fill-rule:nonzero;stroke:none"
         id="path332" />
    </g>
    <g
       id="g334"
       transform="translate(266.76,621)"
       style="fill:#000000;fill-opacity:1">
      <path
         d="M 0,0 C 1.26,0 2.28,-1.02 2.28,-2.28 2.28,-3.6 1.26,-4.62 0,-4.62 c -1.32,0 -2.34,1.02 -2.34,2.34 C -2.34,-1.02 -1.32,0 0,0"
         style="fill:#000000;fill-opacity:1;fill-rule:nonzero;stroke:none"
         id="path336" />
    </g>
    <g
       id="g338"
       transform="translate(268.86,629.22)"
       style="fill:#000000;fill-opacity:1">
      <path
         d="M 0,0 C 1.26,0 2.28,-1.02 2.28,-2.28 2.28,-3.6 1.26,-4.62 0,-4.62 c -1.32,0 -2.34,1.02 -2.34,2.34 C -2.34,-1.02 -1.32,0 0,0"
         style="fill:#000000;fill-opacity:1;fill-rule:nonzero;stroke:none"
         id="path340" />
    </g>
    <g
       id="g342"
       transform="translate(272.7,636.84)"
       style="fill:#000000;fill-opacity:1">
      <path
         d="M 0,0 C 1.26,0 2.28,-1.02 2.28,-2.28 2.28,-3.6 1.26,-4.62 0,-4.62 c -1.32,0 -2.34,1.02 -2.34,2.34 C -2.34,-1.02 -1.32,0 0,0"
         style="fill:#000000;fill-opacity:1;fill-rule:nonzero;stroke:none"
         id="path344" />
    </g>
    <g
       id="g346"
       transform="translate(278.1,643.44)"
       style="fill:#000000;fill-opacity:1">
      <path
         d="M 0,0 C 1.26,0 2.28,-1.02 2.28,-2.28 2.28,-3.6 1.26,-4.62 0,-4.62 c -1.32,0 -2.34,1.02 -2.34,2.34 C -2.34,-1.02 -1.32,0 0,0"
         style="fill:#000000;fill-opacity:1;fill-rule:nonzero;stroke:none"
         id="path348" />
    </g>
    <g
       id="g350"
       transform="translate(284.76,648.72)"
       style="fill:#000000;fill-opacity:1">
      <path
         d="M 0,0 C 1.26,0 2.28,-1.02 2.28,-2.28 2.28,-3.6 1.26,-4.62 0,-4.62 c -1.32,0 -2.34,1.02 -2.34,2.34 C -2.34,-1.02 -1.32,0 0,0"
         style="fill:#000000;fill-opacity:1;fill-rule:nonzero;stroke:none"
         id="path352" />
    </g>
    <g
       id="g354"
       transform="translate(292.38,652.5)"
       style="fill:#000000;fill-opacity:1">
      <path
         d="M 0,0 C 1.26,0 2.28,-1.02 2.28,-2.28 2.28,-3.6 1.26,-4.62 0,-4.62 c -1.32,0 -2.34,1.02 -2.34,2.34 C -2.34,-1.02 -1.32,0 0,0"
         style="fill:#000000;fill-opacity:1;fill-rule:nonzero;stroke:none"
         id="path356" />
    </g>
    <g
       id="g358"
       transform="translate(300.6,654.54)"
       style="fill:#000000;fill-opacity:1">
      <path
         d="M 0,0 C 1.26,0 2.28,-1.02 2.28,-2.28 2.28,-3.6 1.26,-4.62 0,-4.62 c -1.32,0 -2.34,1.02 -2.34,2.34 C -2.34,-1.02 -1.32,0 0,0"
         style="fill:#000000;fill-opacity:1;fill-rule:nonzero;stroke:none"
         id="path360" />
    </g>
    <g
       id="g362"
       transform="translate(325.74,557.88)"
       style="fill:#000000;fill-opacity:1">
      <path
         d="M 0,0 C 1.26,0 2.28,-1.02 2.28,-2.28 2.28,-3.6 1.26,-4.62 0,-4.62 c -1.32,0 -2.34,1.02 -2.34,2.34 C -2.34,-1.02 -1.32,0 0,0"
         style="fill:#000000;fill-opacity:1;fill-rule:nonzero;stroke:none"
         id="path364" />
    </g>
    <g
       id="g366"
       transform="translate(333.66,561.3)"
       style="fill:#000000;fill-opacity:1">
      <path
         d="M 0,0 C 1.26,0 2.28,-1.02 2.28,-2.28 2.28,-3.6 1.26,-4.62 0,-4.62 c -1.32,0 -2.34,1.02 -2.34,2.34 C -2.34,-1.02 -1.32,0 0,0"
         style="fill:#000000;fill-opacity:1;fill-rule:nonzero;stroke:none"
         id="path368" />
    </g>
    <g
       id="g370"
       transform="translate(341.1,565.8)"
       style="fill:#000000;fill-opacity:1">
      <path
         d="M 0,0 C 1.26,0 2.28,-1.02 2.28,-2.28 2.28,-3.6 1.26,-4.62 0,-4.62 c -1.32,0 -2.34,1.02 -2.34,2.34 C -2.34,-1.02 -1.32,0 0,0"
         style="fill:#000000;fill-opacity:1;fill-rule:nonzero;stroke:none"
         id="path372" />
    </g>
    <g
       id="g374"
       transform="translate(347.76,571.32)"
       style="fill:#000000;fill-opacity:1">
      <path
         d="M 0,0 C 1.26,0 2.28,-1.02 2.28,-2.28 2.28,-3.6 1.26,-4.62 0,-4.62 c -1.32,0 -2.34,1.02 -2.34,2.34 C -2.34,-1.02 -1.32,0 0,0"
         style="fill:#000000;fill-opacity:1;fill-rule:nonzero;stroke:none"
         id="path376" />
    </g>
    <g
       id="g378"
       transform="translate(353.64,577.74)"
       style="fill:#000000;fill-opacity:1">
      <path
         d="M 0,0 C 1.26,0 2.28,-1.02 2.28,-2.28 2.28,-3.6 1.26,-4.62 0,-4.62 c -1.32,0 -2.34,1.02 -2.34,2.34 C -2.34,-1.02 -1.32,0 0,0"
         style="fill:#000000;fill-opacity:1;fill-rule:nonzero;stroke:none"
         id="path380" />
    </g>
    <g
       id="g382"
       transform="translate(358.5,584.88)"
       style="fill:#000000;fill-opacity:1">
      <path
         d="M 0,0 C 1.26,0 2.28,-1.02 2.28,-2.28 2.28,-3.6 1.26,-4.62 0,-4.62 c -1.32,0 -2.34,1.02 -2.34,2.34 C -2.34,-1.02 -1.32,0 0,0"
         style="fill:#000000;fill-opacity:1;fill-rule:nonzero;stroke:none"
         id="path384" />
    </g>
    <g
       id="g386"
       transform="translate(362.28,592.68)"
       style="fill:#000000;fill-opacity:1">
      <path
         d="M 0,0 C 1.26,0 2.28,-1.02 2.28,-2.28 2.28,-3.6 1.26,-4.62 0,-4.62 c -1.32,0 -2.34,1.02 -2.34,2.34 C -2.34,-1.02 -1.32,0 0,0"
         style="fill:#000000;fill-opacity:1;fill-rule:nonzero;stroke:none"
         id="path388" />
    </g>
    <g
       id="g390"
       transform="translate(364.92,600.96)"
       style="fill:#000000;fill-opacity:1">
      <path
         d="M 0,0 C 1.26,0 2.28,-1.02 2.28,-2.28 2.28,-3.6 1.26,-4.62 0,-4.62 c -1.32,0 -2.34,1.02 -2.34,2.34 C -2.34,-1.02 -1.32,0 0,0"
         style="fill:#000000;fill-opacity:1;fill-rule:nonzero;stroke:none"
         id="path392" />
    </g>
    <g
       id="g394"
       transform="translate(366.3,609.48)"
       style="fill:#000000;fill-opacity:1">
      <path
         d="M 0,0 C 1.26,0 2.28,-1.02 2.28,-2.28 2.28,-3.6 1.26,-4.62 0,-4.62 c -1.32,0 -2.34,1.02 -2.34,2.34 C -2.34,-1.02 -1.32,0 0,0"
         style="fill:#000000;fill-opacity:1;fill-rule:nonzero;stroke:none"
         id="path396" />
    </g>
    <g
       id="g398"
       transform="translate(366.54,618.18)"
       style="fill:#000000;fill-opacity:1">
      <path
         d="M 0,0 C 1.26,0 2.28,-1.02 2.28,-2.28 2.28,-3.6 1.26,-4.62 0,-4.62 c -1.32,0 -2.34,1.02 -2.34,2.34 C -2.34,-1.02 -1.32,0 0,0"
         style="fill:#000000;fill-opacity:1;fill-rule:nonzero;stroke:none"
         id="path400" />
    </g>
    <g
       id="g402"
       transform="translate(365.46,626.76)"
       style="fill:#000000;fill-opacity:1">
      <path
         d="M 0,0 C 1.26,0 2.28,-1.02 2.28,-2.28 2.28,-3.6 1.26,-4.62 0,-4.62 c -1.32,0 -2.34,1.02 -2.34,2.34 C -2.34,-1.02 -1.32,0 0,0"
         style="fill:#000000;fill-opacity:1;fill-rule:nonzero;stroke:none"
         id="path404" />
    </g>
    <g
       id="g406"
       transform="translate(363.24,635.1)"
       style="fill:#000000;fill-opacity:1">
      <path
         d="M 0,0 C 1.26,0 2.28,-1.02 2.28,-2.28 2.28,-3.6 1.26,-4.62 0,-4.62 c -1.32,0 -2.34,1.02 -2.34,2.34 C -2.34,-1.02 -1.32,0 0,0"
         style="fill:#000000;fill-opacity:1;fill-rule:nonzero;stroke:none"
         id="path408" />
    </g>
    <g
       id="g410"
       transform="translate(359.82,643.08)"
       style="fill:#000000;fill-opacity:1">
      <path
         d="M 0,0 C 1.26,0 2.28,-1.02 2.28,-2.28 2.28,-3.6 1.26,-4.62 0,-4.62 c -1.32,0 -2.34,1.02 -2.34,2.34 C -2.34,-1.02 -1.32,0 0,0"
         style="fill:#000000;fill-opacity:1;fill-rule:nonzero;stroke:none"
         id="path412" />
    </g>
    <g
       id="g414"
       transform="translate(355.26,650.46)"
       style="fill:#000000;fill-opacity:1">
      <path
         d="M 0,0 C 1.26,0 2.28,-1.02 2.28,-2.28 2.28,-3.6 1.26,-4.62 0,-4.62 c -1.32,0 -2.34,1.02 -2.34,2.34 C -2.34,-1.02 -1.32,0 0,0"
         style="fill:#000000;fill-opacity:1;fill-rule:nonzero;stroke:none"
         id="path416" />
    </g>
    <g
       id="g418"
       transform="translate(349.74,657.12)"
       style="fill:#000000;fill-opacity:1">
      <path
         d="M 0,0 C 1.26,0 2.28,-1.02 2.28,-2.28 2.28,-3.6 1.26,-4.62 0,-4.62 c -1.32,0 -2.34,1.02 -2.34,2.34 C -2.34,-1.02 -1.32,0 0,0"
         style="fill:#000000;fill-opacity:1;fill-rule:nonzero;stroke:none"
         id="path420" />
    </g>
    <g
       id="g422"
       transform="translate(343.32,662.94)"
       style="fill:#000000;fill-opacity:1">
      <path
         d="M 0,0 C 1.26,0 2.28,-1.02 2.28,-2.28 2.28,-3.6 1.26,-4.62 0,-4.62 c -1.32,0 -2.34,1.02 -2.34,2.34 C -2.34,-1.02 -1.32,0 0,0"
         style="fill:#000000;fill-opacity:1;fill-rule:nonzero;stroke:none"
         id="path424" />
    </g>
    <g
       id="g426"
       transform="translate(336.12,667.8)"
       style="fill:#000000;fill-opacity:1">
      <path
         d="M 0,0 C 1.26,0 2.28,-1.02 2.28,-2.28 2.28,-3.6 1.26,-4.62 0,-4.62 c -1.32,0 -2.34,1.02 -2.34,2.34 C -2.34,-1.02 -1.32,0 0,0"
         style="fill:#000000;fill-opacity:1;fill-rule:nonzero;stroke:none"
         id="path428" />
    </g>
    <g
       id="g430"
       transform="translate(328.32,671.52)"
       style="fill:#000000;fill-opacity:1">
      <path
         d="M 0,0 C 1.26,0 2.28,-1.02 2.28,-2.28 2.28,-3.6 1.26,-4.62 0,-4.62 c -1.32,0 -2.34,1.02 -2.34,2.34 C -2.34,-1.02 -1.32,0 0,0"
         style="fill:#000000;fill-opacity:1;fill-rule:nonzero;stroke:none"
         id="path432" />
    </g>
    <g
       id="g434"
       transform="translate(320.04,674.16)"
       style="fill:#000000;fill-opacity:1">
      <path
         d="M 0,0 C 1.26,0 2.28,-1.02 2.28,-2.28 2.28,-3.6 1.26,-4.62 0,-4.62 c -1.32,0 -2.34,1.02 -2.34,2.34 C -2.34,-1.02 -1.32,0 0,0"
         style="fill:#000000;fill-opacity:1;fill-rule:nonzero;stroke:none"
         id="path436" />
    </g>
    <g
       id="g438"
       transform="translate(311.52,675.54)"
       style="fill:#000000;fill-opacity:1">
      <path
         d="M 0,0 C 1.26,0 2.28,-1.02 2.28,-2.28 2.28,-3.6 1.26,-4.62 0,-4.62 c -1.32,0 -2.34,1.02 -2.34,2.34 C -2.34,-1.02 -1.32,0 0,0"
         style="fill:#000000;fill-opacity:1;fill-rule:nonzero;stroke:none"
         id="path440" />
    </g>
    <g
       id="g442"
       transform="translate(286.26,557.88)"
       style="fill:#000000;fill-opacity:1">
      <path
         d="M 0,0 C 1.26,0 2.28,-1.02 2.28,-2.28 2.28,-3.6 1.26,-4.62 0,-4.62 c -1.32,0 -2.34,1.02 -2.34,2.34 C -2.34,-1.02 -1.32,0 0,0"
         style="fill:#000000;fill-opacity:1;fill-rule:nonzero;stroke:none"
         id="path444" />
    </g>
    <g
       id="g446"
       transform="translate(278.34,561.3)"
       style="fill:#000000;fill-opacity:1">
      <path
         d="M 0,0 C 1.26,0 2.28,-1.02 2.28,-2.28 2.28,-3.6 1.26,-4.62 0,-4.62 c -1.32,0 -2.34,1.02 -2.34,2.34 C -2.34,-1.02 -1.32,0 0,0"
         style="fill:#000000;fill-opacity:1;fill-rule:nonzero;stroke:none"
         id="path448" />
    </g>
    <g
       id="g450"
       transform="translate(270.9,565.8)"
       style="fill:#000000;fill-opacity:1">
      <path
         d="M 0,0 C 1.26,0 2.28,-1.02 2.28,-2.28 2.28,-3.6 1.26,-4.62 0,-4.62 c -1.32,0 -2.34,1.02 -2.34,2.34 C -2.34,-1.02 -1.32,0 0,0"
         style="fill:#000000;fill-opacity:1;fill-rule:nonzero;stroke:none"
         id="path452" />
    </g>
    <g
       id="g454"
       transform="translate(264.24,571.32)"
       style="fill:#000000;fill-opacity:1">
      <path
         d="M 0,0 C 1.26,0 2.28,-1.02 2.28,-2.28 2.28,-3.6 1.26,-4.62 0,-4.62 c -1.32,0 -2.34,1.02 -2.34,2.34 C -2.34,-1.02 -1.32,0 0,0"
         style="fill:#000000;fill-opacity:1;fill-rule:nonzero;stroke:none"
         id="path456" />
    </g>
    <g
       id="g458"
       transform="translate(258.36,577.74)"
       style="fill:#000000;fill-opacity:1">
      <path
         d="M 0,0 C 1.26,0 2.28,-1.02 2.28,-2.28 2.28,-3.6 1.26,-4.62 0,-4.62 c -1.32,0 -2.34,1.02 -2.34,2.34 C -2.34,-1.02 -1.32,0 0,0"
         style="fill:#000000;fill-opacity:1;fill-rule:nonzero;stroke:none"
         id="path460" />
    </g>
    <g
       id="g462"
       transform="translate(253.5,584.88)"
       style="fill:#000000;fill-opacity:1">
      <path
         d="M 0,0 C 1.26,0 2.28,-1.02 2.28,-2.28 2.28,-3.6 1.26,-4.62 0,-4.62 c -1.32,0 -2.34,1.02 -2.34,2.34 C -2.34,-1.02 -1.32,0 0,0"
         style="fill:#000000;fill-opacity:1;fill-rule:nonzero;stroke:none"
         id="path464" />
    </g>
    <g
       id="g466"
       transform="translate(249.72,592.68)"
       style="fill:#000000;fill-opacity:1">
      <path
         d="M 0,0 C 1.26,0 2.28,-1.02 2.28,-2.28 2.28,-3.6 1.26,-4.62 0,-4.62 c -1.32,0 -2.34,1.02 -2.34,2.34 C -2.34,-1.02 -1.32,0 0,0"
         style="fill:#000000;fill-opacity:1;fill-rule:nonzero;stroke:none"
         id="path468" />
    </g>
    <g
       id="g470"
       transform="translate(247.08,600.96)"
       style="fill:#000000;fill-opacity:1">
      <path
         d="M 0,0 C 1.26,0 2.28,-1.02 2.28,-2.28 2.28,-3.6 1.26,-4.62 0,-4.62 c -1.32,0 -2.34,1.02 -2.34,2.34 C -2.34,-1.02 -1.32,0 0,0"
         style="fill:#000000;fill-opacity:1;fill-rule:nonzero;stroke:none"
         id="path472" />
    </g>
    <g
       id="g474"
       transform="translate(245.7,609.48)"
       style="fill:#000000;fill-opacity:1">
      <path
         d="M 0,0 C 1.26,0 2.28,-1.02 2.28,-2.28 2.28,-3.6 1.26,-4.62 0,-4.62 c -1.32,0 -2.34,1.02 -2.34,2.34 C -2.34,-1.02 -1.32,0 0,0"
         style="fill:#000000;fill-opacity:1;fill-rule:nonzero;stroke:none"
         id="path476" />
    </g>
    <g
       id="g478"
       transform="translate(245.46,618.18)"
       style="fill:#000000;fill-opacity:1">
      <path
         d="M 0,0 C 1.26,0 2.28,-1.02 2.28,-2.28 2.28,-3.6 1.26,-4.62 0,-4.62 c -1.32,0 -2.34,1.02 -2.34,2.34 C -2.34,-1.02 -1.32,0 0,0"
         style="fill:#000000;fill-opacity:1;fill-rule:nonzero;stroke:none"
         id="path480" />
    </g>
    <g
       id="g482"
       transform="translate(246.54,626.76)"
       style="fill:#000000;fill-opacity:1">
      <path
         d="M 0,0 C 1.26,0 2.28,-1.02 2.28,-2.28 2.28,-3.6 1.26,-4.62 0,-4.62 c -1.32,0 -2.34,1.02 -2.34,2.34 C -2.34,-1.02 -1.32,0 0,0"
         style="fill:#000000;fill-opacity:1;fill-rule:nonzero;stroke:none"
         id="path484" />
    </g>
    <g
       id="g486"
       transform="translate(248.76,635.1)"
       style="fill:#000000;fill-opacity:1">
      <path
         d="M 0,0 C 1.26,0 2.28,-1.02 2.28,-2.28 2.28,-3.6 1.26,-4.62 0,-4.62 c -1.32,0 -2.34,1.02 -2.34,2.34 C -2.34,-1.02 -1.32,0 0,0"
         style="fill:#000000;fill-opacity:1;fill-rule:nonzero;stroke:none"
         id="path488" />
    </g>
    <g
       id="g490"
       transform="translate(252.18,643.08)"
       style="fill:#000000;fill-opacity:1">
      <path
         d="M 0,0 C 1.26,0 2.28,-1.02 2.28,-2.28 2.28,-3.6 1.26,-4.62 0,-4.62 c -1.32,0 -2.34,1.02 -2.34,2.34 C -2.34,-1.02 -1.32,0 0,0"
         style="fill:#000000;fill-opacity:1;fill-rule:nonzero;stroke:none"
         id="path492" />
    </g>
    <g
       id="g494"
       transform="translate(256.74,650.46)"
       style="fill:#000000;fill-opacity:1">
      <path
         d="M 0,0 C 1.26,0 2.28,-1.02 2.28,-2.28 2.28,-3.6 1.26,-4.62 0,-4.62 c -1.32,0 -2.34,1.02 -2.34,2.34 C -2.34,-1.02 -1.32,0 0,0"
         style="fill:#000000;fill-opacity:1;fill-rule:nonzero;stroke:none"
         id="path496" />
    </g>
    <g
       id="g498"
       transform="translate(262.26,657.12)"
       style="fill:#000000;fill-opacity:1">
      <path
         d="M 0,0 C 1.26,0 2.28,-1.02 2.28,-2.28 2.28,-3.6 1.26,-4.62 0,-4.62 c -1.32,0 -2.34,1.02 -2.34,2.34 C -2.34,-1.02 -1.32,0 0,0"
         style="fill:#000000;fill-opacity:1;fill-rule:nonzero;stroke:none"
         id="path500" />
    </g>
    <g
       id="g502"
       transform="translate(268.68,662.94)"
       style="fill:#000000;fill-opacity:1">
      <path
         d="M 0,0 C 1.26,0 2.28,-1.02 2.28,-2.28 2.28,-3.6 1.26,-4.62 0,-4.62 c -1.32,0 -2.34,1.02 -2.34,2.34 C -2.34,-1.02 -1.32,0 0,0"
         style="fill:#000000;fill-opacity:1;fill-rule:nonzero;stroke:none"
         id="path504" />
    </g>
    <g
       id="g506"
       transform="translate(275.88,667.8)"
       style="fill:#000000;fill-opacity:1">
      <path
         d="M 0,0 C 1.26,0 2.28,-1.02 2.28,-2.28 2.28,-3.6 1.26,-4.62 0,-4.62 c -1.32,0 -2.34,1.02 -2.34,2.34 C -2.34,-1.02 -1.32,0 0,0"
         style="fill:#000000;fill-opacity:1;fill-rule:nonzero;stroke:none"
         id="path508" />
    </g>
    <g
       id="g510"
       transform="translate(283.68,671.52)"
       style="fill:#000000;fill-opacity:1">
      <path
         d="M 0,0 C 1.26,0 2.28,-1.02 2.28,-2.28 2.28,-3.6 1.26,-4.62 0,-4.62 c -1.32,0 -2.34,1.02 -2.34,2.34 C -2.34,-1.02 -1.32,0 0,0"
         style="fill:#000000;fill-opacity:1;fill-rule:nonzero;stroke:none"
         id="path512" />
    </g>
    <g
       id="g514"
       transform="translate(291.96,674.16)"
       style="fill:#000000;fill-opacity:1">
      <path
         d="M 0,0 C 1.26,0 2.28,-1.02 2.28,-2.28 2.28,-3.6 1.26,-4.62 0,-4.62 c -1.32,0 -2.34,1.02 -2.34,2.34 C -2.34,-1.02 -1.32,0 0,0"
         style="fill:#000000;fill-opacity:1;fill-rule:nonzero;stroke:none"
         id="path516" />
    </g>
    <g
       id="g518"
       transform="translate(300.48,675.54)"
       style="fill:#000000;fill-opacity:1">
      <path
         d="M 0,0 C 1.26,0 2.28,-1.02 2.28,-2.28 2.28,-3.6 1.26,-4.62 0,-4.62 c -1.32,0 -2.34,1.02 -2.34,2.34 C -2.34,-1.02 -1.32,0 0,0"
         style="fill:#000000;fill-opacity:1;fill-rule:nonzero;stroke:none"
         id="path520" />
    </g>
    <g
       id="g522"
       transform="translate(317.34,215.52)"
       style="fill:#000000;fill-opacity:1">
      <path
         d="M 0,0 C 1.26,0 2.28,-1.02 2.28,-2.28 2.28,-3.6 1.26,-4.62 0,-4.62 c -1.32,0 -2.34,1.02 -2.34,2.34 C -2.34,-1.02 -1.32,0 0,0"
         style="fill:#000000;fill-opacity:1;fill-rule:nonzero;stroke:none"
         id="path524" />
    </g>
    <g
       id="g526"
       transform="translate(317.34,121.98)"
       style="fill:#000000;fill-opacity:1">
      <path
         d="M 0,0 C 1.26,0 2.28,-1.02 2.28,-2.28 2.28,-3.6 1.26,-4.62 0,-4.62 c -1.32,0 -2.34,1.02 -2.34,2.34 C -2.34,-1.02 -1.32,0 0,0"
         style="fill:#000000;fill-opacity:1;fill-rule:nonzero;stroke:none"
         id="path528" />
    </g>
    <g
       id="g530"
       transform="translate(317.34,351.6)"
       style="fill:#000000;fill-opacity:1">
      <path
         d="M 0,0 C 1.26,0 2.28,-1.02 2.28,-2.28 2.28,-3.6 1.26,-4.62 0,-4.62 c -1.32,0 -2.34,1.02 -2.34,2.34 C -2.34,-1.02 -1.32,0 0,0"
         style="fill:#000000;fill-opacity:1;fill-rule:nonzero;stroke:none"
         id="path532" />
    </g>
    <g
       id="g534"
       transform="translate(294.66,569.88)">
      <path
         d="M 0,0 C 1.26,0 2.28,-1.02 2.28,-2.28 2.28,-3.6 1.26,-4.62 0,-4.62 c -1.32,0 -2.34,1.02 -2.34,2.34 C -2.34,-1.02 -1.32,0 0,0"
         style="fill:#008500;fill-opacity:1;fill-rule:nonzero;stroke:none"
         id="path536" />
    </g>
    <g
       id="g538"
       transform="translate(317.34,496.14)"
       style="fill:#000000;fill-opacity:1">
      <path
         d="M 0,0 C 1.26,0 2.28,-1.02 2.28,-2.28 2.28,-3.6 1.26,-4.62 0,-4.62 c -1.32,0 -2.34,1.02 -2.34,2.34 C -2.34,-1.02 -1.32,0 0,0"
         style="fill:#000000;fill-opacity:1;fill-rule:nonzero;stroke:none"
         id="path540" />
    </g>
    <g
       id="g542"
       transform="translate(317.34,156)"
       style="fill:#000000;fill-opacity:1">
      <path
         d="M 0,0 C 1.26,0 2.28,-1.02 2.28,-2.28 2.28,-3.6 1.26,-4.62 0,-4.62 c -1.32,0 -2.34,1.02 -2.34,2.34 C -2.34,-1.02 -1.32,0 0,0"
         style="fill:#000000;fill-opacity:1;fill-rule:nonzero;stroke:none"
         id="path544" />
    </g>
    <g
       id="g546"
       transform="translate(317.34,326.1)"
       style="fill:#000000;fill-opacity:1">
      <path
         d="M 0,0 C 1.26,0 2.28,-1.02 2.28,-2.28 2.28,-3.6 1.26,-4.62 0,-4.62 c -1.32,0 -2.34,1.02 -2.34,2.34 C -2.34,-1.02 -1.32,0 0,0"
         style="fill:#000000;fill-opacity:1;fill-rule:nonzero;stroke:none"
         id="path548" />
    </g>
    <g
       id="g550"
       transform="translate(317.34,275.04)"
       style="fill:#000000;fill-opacity:1">
      <path
         d="M 0,0 C 1.26,0 2.28,-1.02 2.28,-2.28 2.28,-3.6 1.26,-4.62 0,-4.62 c -1.32,0 -2.34,1.02 -2.34,2.34 C -2.34,-1.02 -1.32,0 0,0"
         style="fill:#000000;fill-opacity:1;fill-rule:nonzero;stroke:none"
         id="path552" />
    </g>
    <g
       id="g554"
       transform="translate(317.34,445.14)"
       style="fill:#000000;fill-opacity:1">
      <path
         d="M 0,0 C 1.26,0 2.28,-1.02 2.28,-2.28 2.28,-3.6 1.26,-4.62 0,-4.62 c -1.32,0 -2.34,1.02 -2.34,2.34 C -2.34,-1.02 -1.32,0 0,0"
         style="fill:#000000;fill-opacity:1;fill-rule:nonzero;stroke:none"
         id="path556" />
    </g>
    <g
       id="g558"
       transform="translate(317.34,513.18)"
       style="fill:#000000;fill-opacity:1">
      <path
         d="M 0,0 C 1.26,0 2.28,-1.02 2.28,-2.28 2.28,-3.6 1.26,-4.62 0,-4.62 c -1.32,0 -2.34,1.02 -2.34,2.34 C -2.34,-1.02 -1.32,0 0,0"
         style="fill:#000000;fill-opacity:1;fill-rule:nonzero;stroke:none"
         id="path560" />
    </g>
    <g
       id="g562"
       transform="translate(317.34,555.66)"
       style="fill:#000000;fill-opacity:1">
      <path
         d="M 0,0 C 1.26,0 2.28,-1.02 2.28,-2.28 2.28,-3.6 1.26,-4.62 0,-4.62 c -1.32,0 -2.34,1.02 -2.34,2.34 C -2.34,-1.02 -1.32,0 0,0"
         style="fill:#000000;fill-opacity:1;fill-rule:nonzero;stroke:none"
         id="path564" />
    </g>
    <g
       id="g566"
       transform="translate(317.34,538.68)"
       style="fill:#000000;fill-opacity:1">
      <path
         d="M 0,0 C 1.26,0 2.28,-1.02 2.28,-2.28 2.28,-3.6 1.26,-4.62 0,-4.62 c -1.32,0 -2.34,1.02 -2.34,2.34 C -2.34,-1.02 -1.32,0 0,0"
         style="fill:#000000;fill-opacity:1;fill-rule:nonzero;stroke:none"
         id="path568" />
    </g>
    <g
       id="g570"
       transform="translate(317.34,385.62)"
       style="fill:#000000;fill-opacity:1">
      <path
         d="M 0,0 C 1.26,0 2.28,-1.02 2.28,-2.28 2.28,-3.6 1.26,-4.62 0,-4.62 c -1.32,0 -2.34,1.02 -2.34,2.34 C -2.34,-1.02 -1.32,0 0,0"
         style="fill:#000000;fill-opacity:1;fill-rule:nonzero;stroke:none"
         id="path572" />
    </g>
    <g
       id="g574"
       transform="translate(317.34,138.96)"
       style="fill:#000000;fill-opacity:1">
      <path
         d="M 0,0 C 1.26,0 2.28,-1.02 2.28,-2.28 2.28,-3.6 1.26,-4.62 0,-4.62 c -1.32,0 -2.34,1.02 -2.34,2.34 C -2.34,-1.02 -1.32,0 0,0"
         style="fill:#000000;fill-opacity:1;fill-rule:nonzero;stroke:none"
         id="path576" />
    </g>
    <g
       id="g578"
       transform="translate(317.34,190.02)"
       style="fill:#000000;fill-opacity:1">
      <path
         d="M 0,0 C 1.26,0 2.28,-1.02 2.28,-2.28 2.28,-3.6 1.26,-4.62 0,-4.62 c -1.32,0 -2.34,1.02 -2.34,2.34 C -2.34,-1.02 -1.32,0 0,0"
         style="fill:#000000;fill-opacity:1;fill-rule:nonzero;stroke:none"
         id="path580" />
    </g>
    <g
       id="g582"
       transform="translate(317.34,130.5)"
       style="fill:#000000;fill-opacity:1">
      <path
         d="M 0,0 C 1.26,0 2.28,-1.02 2.28,-2.28 2.28,-3.6 1.26,-4.62 0,-4.62 c -1.32,0 -2.34,1.02 -2.34,2.34 C -2.34,-1.02 -1.32,0 0,0"
         style="fill:#000000;fill-opacity:1;fill-rule:nonzero;stroke:none"
         id="path584" />
    </g>
    <g
       id="g586"
       transform="translate(331.5,130.5)"
       style="fill:#000000;fill-opacity:1">
      <path
         d="M 0,0 C 1.26,0 2.28,-1.02 2.28,-2.28 2.28,-3.6 1.26,-4.62 0,-4.62 c -1.32,0 -2.34,1.02 -2.34,2.34 C -2.34,-1.02 -1.32,0 0,0"
         style="fill:#000000;fill-opacity:1;fill-rule:nonzero;stroke:none"
         id="path588" />
    </g>
    <g
       id="g590"
       transform="translate(317.34,207)"
       style="fill:#000000;fill-opacity:1">
      <path
         d="M 0,0 C 1.26,0 2.28,-1.02 2.28,-2.28 2.28,-3.6 1.26,-4.62 0,-4.62 c -1.32,0 -2.34,1.02 -2.34,2.34 C -2.34,-1.02 -1.32,0 0,0"
         style="fill:#000000;fill-opacity:1;fill-rule:nonzero;stroke:none"
         id="path592" />
    </g>
    <g
       id="g594"
       transform="translate(331.5,121.98)"
       style="fill:#000000;fill-opacity:1">
      <path
         d="M 0,0 C 1.26,0 2.28,-1.02 2.28,-2.28 2.28,-3.6 1.26,-4.62 0,-4.62 c -1.32,0 -2.34,1.02 -2.34,2.34 C -2.34,-1.02 -1.32,0 0,0"
         style="fill:#000000;fill-opacity:1;fill-rule:nonzero;stroke:none"
         id="path596" />
    </g>
    <g
       id="g598"
       transform="translate(317.34,368.58)"
       style="fill:#000000;fill-opacity:1">
      <path
         d="M 0,0 C 1.26,0 2.28,-1.02 2.28,-2.28 2.28,-3.6 1.26,-4.62 0,-4.62 c -1.32,0 -2.34,1.02 -2.34,2.34 C -2.34,-1.02 -1.32,0 0,0"
         style="fill:#000000;fill-opacity:1;fill-rule:nonzero;stroke:none"
         id="path600" />
    </g>
    <g
       id="g602"
       transform="translate(317.34,317.58)"
       style="fill:#000000;fill-opacity:1">
      <path
         d="M 0,0 C 1.26,0 2.28,-1.02 2.28,-2.28 2.28,-3.6 1.26,-4.62 0,-4.62 c -1.32,0 -2.34,1.02 -2.34,2.34 C -2.34,-1.02 -1.32,0 0,0"
         style="fill:#000000;fill-opacity:1;fill-rule:nonzero;stroke:none"
         id="path604" />
    </g>
    <g
       id="g606"
       transform="translate(317.34,436.62)"
       style="fill:#000000;fill-opacity:1">
      <path
         d="M 0,0 C 1.26,0 2.28,-1.02 2.28,-2.28 2.28,-3.6 1.26,-4.62 0,-4.62 c -1.32,0 -2.34,1.02 -2.34,2.34 C -2.34,-1.02 -1.32,0 0,0"
         style="fill:#000000;fill-opacity:1;fill-rule:nonzero;stroke:none"
         id="path608" />
    </g>
    <g
       id="g610"
       transform="translate(317.34,394.08)"
       style="fill:#000000;fill-opacity:1">
      <path
         d="M 0,0 C 1.26,0 2.28,-1.02 2.28,-2.28 2.28,-3.6 1.26,-4.62 0,-4.62 c -1.32,0 -2.34,1.02 -2.34,2.34 C -2.34,-1.02 -1.32,0 0,0"
         style="fill:#000000;fill-opacity:1;fill-rule:nonzero;stroke:none"
         id="path612" />
    </g>
    <g
       id="g614"
       transform="translate(317.34,411.12)"
       style="fill:#000000;fill-opacity:1">
      <path
         d="M 0,0 C 1.26,0 2.28,-1.02 2.28,-2.28 2.28,-3.6 1.26,-4.62 0,-4.62 c -1.32,0 -2.34,1.02 -2.34,2.34 C -2.34,-1.02 -1.32,0 0,0"
         style="fill:#000000;fill-opacity:1;fill-rule:nonzero;stroke:none"
         id="path616" />
    </g>
    <g
       id="g618"
       transform="translate(317.34,470.64)"
       style="fill:#000000;fill-opacity:1">
      <path
         d="M 0,0 C 1.26,0 2.28,-1.02 2.28,-2.28 2.28,-3.6 1.26,-4.62 0,-4.62 c -1.32,0 -2.34,1.02 -2.34,2.34 C -2.34,-1.02 -1.32,0 0,0"
         style="fill:#000000;fill-opacity:1;fill-rule:nonzero;stroke:none"
         id="path620" />
    </g>
    <g
       id="g622"
       transform="translate(317.34,453.66)"
       style="fill:#000000;fill-opacity:1">
      <path
         d="M 0,0 C 1.26,0 2.28,-1.02 2.28,-2.28 2.28,-3.6 1.26,-4.62 0,-4.62 c -1.32,0 -2.34,1.02 -2.34,2.34 C -2.34,-1.02 -1.32,0 0,0"
         style="fill:#000000;fill-opacity:1;fill-rule:nonzero;stroke:none"
         id="path624" />
    </g>
    <g
       id="g626"
       transform="translate(306,575.52)"
       style="fill:#000000;fill-opacity:1">
      <path
         d="M 0,0 C 1.26,0 2.28,-1.02 2.28,-2.28 2.28,-3.6 1.26,-4.62 0,-4.62 c -1.32,0 -2.34,1.02 -2.34,2.34 C -2.34,-1.02 -1.32,0 0,0"
         style="fill:#000000;fill-opacity:1;fill-rule:nonzero;stroke:none"
         id="path628" />
    </g>
    <g
       id="g630"
       transform="translate(317.34,360.12)"
       style="fill:#000000;fill-opacity:1">
      <path
         d="M 0,0 C 1.26,0 2.28,-1.02 2.28,-2.28 2.28,-3.6 1.26,-4.62 0,-4.62 c -1.32,0 -2.34,1.02 -2.34,2.34 C -2.34,-1.02 -1.32,0 0,0"
         style="fill:#000000;fill-opacity:1;fill-rule:nonzero;stroke:none"
         id="path632" />
    </g>
    <g
       id="g634"
       transform="translate(317.34,487.62)"
       style="fill:#000000;fill-opacity:1">
      <path
         d="M 0,0 C 1.26,0 2.28,-1.02 2.28,-2.28 2.28,-3.6 1.26,-4.62 0,-4.62 c -1.32,0 -2.34,1.02 -2.34,2.34 C -2.34,-1.02 -1.32,0 0,0"
         style="fill:#000000;fill-opacity:1;fill-rule:nonzero;stroke:none"
         id="path636" />
    </g>
    <g
       id="g638"
       transform="translate(317.34,419.64)"
       style="fill:#000000;fill-opacity:1">
      <path
         d="M 0,0 C 1.26,0 2.28,-1.02 2.28,-2.28 2.28,-3.6 1.26,-4.62 0,-4.62 c -1.32,0 -2.34,1.02 -2.34,2.34 C -2.34,-1.02 -1.32,0 0,0"
         style="fill:#000000;fill-opacity:1;fill-rule:nonzero;stroke:none"
         id="path640" />
    </g>
    <g
       id="g642"
       transform="translate(317.34,241.02)"
       style="fill:#000000;fill-opacity:1">
      <path
         d="M 0,0 C 1.26,0 2.28,-1.02 2.28,-2.28 2.28,-3.6 1.26,-4.62 0,-4.62 c -1.32,0 -2.34,1.02 -2.34,2.34 C -2.34,-1.02 -1.32,0 0,0"
         style="fill:#000000;fill-opacity:1;fill-rule:nonzero;stroke:none"
         id="path644" />
    </g>
    <g
       id="g646"
       transform="translate(317.34,300.54)"
       style="fill:#000000;fill-opacity:1">
      <path
         d="M 0,0 C 1.26,0 2.28,-1.02 2.28,-2.28 2.28,-3.6 1.26,-4.62 0,-4.62 c -1.32,0 -2.34,1.02 -2.34,2.34 C -2.34,-1.02 -1.32,0 0,0"
         style="fill:#000000;fill-opacity:1;fill-rule:nonzero;stroke:none"
         id="path648" />
    </g>
    <g
       id="g650"
       transform="translate(317.34,309.06)"
       style="fill:#000000;fill-opacity:1">
      <path
         d="M 0,0 C 1.26,0 2.28,-1.02 2.28,-2.28 2.28,-3.6 1.26,-4.62 0,-4.62 c -1.32,0 -2.34,1.02 -2.34,2.34 C -2.34,-1.02 -1.32,0 0,0"
         style="fill:#000000;fill-opacity:1;fill-rule:nonzero;stroke:none"
         id="path652" />
    </g>
    <g
       id="g654"
       transform="translate(317.34,504.66)"
       style="fill:#000000;fill-opacity:1">
      <path
         d="M 0,0 C 1.26,0 2.28,-1.02 2.28,-2.28 2.28,-3.6 1.26,-4.62 0,-4.62 c -1.32,0 -2.34,1.02 -2.34,2.34 C -2.34,-1.02 -1.32,0 0,0"
         style="fill:#000000;fill-opacity:1;fill-rule:nonzero;stroke:none"
         id="path656" />
    </g>
    <g
       id="g658"
       transform="translate(324.42,139.02)"
       style="fill:#000000;fill-opacity:1">
      <path
         d="M 0,0 C 1.26,0 2.28,-1.02 2.28,-2.28 2.28,-3.6 1.26,-4.62 0,-4.62 c -1.32,0 -2.34,1.02 -2.34,2.34 C -2.34,-1.02 -1.32,0 0,0"
         style="fill:#000000;fill-opacity:1;fill-rule:nonzero;stroke:none"
         id="path660" />
    </g>
    <g
       id="g662"
       transform="translate(317.34,530.16)"
       style="fill:#000000;fill-opacity:1">
      <path
         d="M 0,0 C 1.26,0 2.28,-1.02 2.28,-2.28 2.28,-3.6 1.26,-4.62 0,-4.62 c -1.32,0 -2.34,1.02 -2.34,2.34 C -2.34,-1.02 -1.32,0 0,0"
         style="fill:#000000;fill-opacity:1;fill-rule:nonzero;stroke:none"
         id="path664" />
    </g>
    <g
       id="g666"
       transform="translate(317.34,249.54)"
       style="fill:#000000;fill-opacity:1">
      <path
         d="M 0,0 C 1.26,0 2.28,-1.02 2.28,-2.28 2.28,-3.6 1.26,-4.62 0,-4.62 c -1.32,0 -2.34,1.02 -2.34,2.34 C -2.34,-1.02 -1.32,0 0,0"
         style="fill:#000000;fill-opacity:1;fill-rule:nonzero;stroke:none"
         id="path668" />
    </g>
    <g
       id="g670"
       transform="translate(280.5,121.98)"
       style="fill:#000000;fill-opacity:1">
      <path
         d="M 0,0 C 1.26,0 2.28,-1.02 2.28,-2.28 2.28,-3.6 1.26,-4.62 0,-4.62 c -1.32,0 -2.34,1.02 -2.34,2.34 C -2.34,-1.02 -1.32,0 0,0"
         style="fill:#000000;fill-opacity:1;fill-rule:nonzero;stroke:none"
         id="path672" />
    </g>
    <g
       id="g674"
       transform="translate(317.34,147.48)"
       style="fill:#000000;fill-opacity:1">
      <path
         d="M 0,0 C 1.26,0 2.28,-1.02 2.28,-2.28 2.28,-3.6 1.26,-4.62 0,-4.62 c -1.32,0 -2.34,1.02 -2.34,2.34 C -2.34,-1.02 -1.32,0 0,0"
         style="fill:#000000;fill-opacity:1;fill-rule:nonzero;stroke:none"
         id="path676" />
    </g>
    <g
       id="g678"
       transform="translate(317.34,224.04)"
       style="fill:#000000;fill-opacity:1">
      <path
         d="M 0,0 C 1.26,0 2.28,-1.02 2.28,-2.28 2.28,-3.6 1.26,-4.62 0,-4.62 c -1.32,0 -2.34,1.02 -2.34,2.34 C -2.34,-1.02 -1.32,0 0,0"
         style="fill:#000000;fill-opacity:1;fill-rule:nonzero;stroke:none"
         id="path680" />
    </g>
    <g
       id="g682"
       transform="translate(317.34,198.54)"
       style="fill:#000000;fill-opacity:1">
      <path
         d="M 0,0 C 1.26,0 2.28,-1.02 2.28,-2.28 2.28,-3.6 1.26,-4.62 0,-4.62 c -1.32,0 -2.34,1.02 -2.34,2.34 C -2.34,-1.02 -1.32,0 0,0"
         style="fill:#000000;fill-opacity:1;fill-rule:nonzero;stroke:none"
         id="path684" />
    </g>
    <g
       id="g686"
       transform="translate(317.34,428.1)"
       style="fill:#000000;fill-opacity:1">
      <path
         d="M 0,0 C 1.26,0 2.28,-1.02 2.28,-2.28 2.28,-3.6 1.26,-4.62 0,-4.62 c -1.32,0 -2.34,1.02 -2.34,2.34 C -2.34,-1.02 -1.32,0 0,0"
         style="fill:#000000;fill-opacity:1;fill-rule:nonzero;stroke:none"
         id="path688" />
    </g>
    <g
       id="g690"
       transform="translate(317.34,283.56)"
       style="fill:#000000;fill-opacity:1">
      <path
         d="M 0,0 C 1.26,0 2.28,-1.02 2.28,-2.28 2.28,-3.6 1.26,-4.62 0,-4.62 c -1.32,0 -2.34,1.02 -2.34,2.34 C -2.34,-1.02 -1.32,0 0,0"
         style="fill:#000000;fill-opacity:1;fill-rule:nonzero;stroke:none"
         id="path692" />
    </g>
    <g
       id="g694"
       transform="translate(280.5,138.96)"
       style="fill:#000000;fill-opacity:1">
      <path
         d="M 0,0 C 1.26,0 2.28,-1.02 2.28,-2.28 2.28,-3.6 1.26,-4.62 0,-4.62 c -1.32,0 -2.34,1.02 -2.34,2.34 C -2.34,-1.02 -1.32,0 0,0"
         style="fill:#000000;fill-opacity:1;fill-rule:nonzero;stroke:none"
         id="path696" />
    </g>
    <g
       id="g698"
       transform="translate(317.34,462.12)"
       style="fill:#000000;fill-opacity:1">
      <path
         d="M 0,0 C 1.26,0 2.28,-1.02 2.28,-2.28 2.28,-3.6 1.26,-4.62 0,-4.62 c -1.32,0 -2.34,1.02 -2.34,2.34 C -2.34,-1.02 -1.32,0 0,0"
         style="fill:#000000;fill-opacity:1;fill-rule:nonzero;stroke:none"
         id="path700" />
    </g>
    <g
       id="g702"
       transform="translate(294.66,564.18)"
       style="fill:#000000;fill-opacity:1">
      <path
         d="M 0,0 C 1.26,0 2.28,-1.02 2.28,-2.28 2.28,-3.6 1.26,-4.62 0,-4.62 c -1.32,0 -2.34,1.02 -2.34,2.34 C -2.34,-1.02 -1.32,0 0,0"
         style="fill:#000000;fill-opacity:1;fill-rule:nonzero;stroke:none"
         id="path704" />
    </g>
    <g
       id="g706"
       transform="translate(317.34,258.06)"
       style="fill:#000000;fill-opacity:1">
      <path
         d="M 0,0 C 1.26,0 2.28,-1.02 2.28,-2.28 2.28,-3.6 1.26,-4.62 0,-4.62 c -1.32,0 -2.34,1.02 -2.34,2.34 C -2.34,-1.02 -1.32,0 0,0"
         style="fill:#000000;fill-opacity:1;fill-rule:nonzero;stroke:none"
         id="path708" />
    </g>
    <g
       id="g710"
       transform="translate(317.34,181.5)"
       style="fill:#000000;fill-opacity:1">
      <path
         d="M 0,0 C 1.26,0 2.28,-1.02 2.28,-2.28 2.28,-3.6 1.26,-4.62 0,-4.62 c -1.32,0 -2.34,1.02 -2.34,2.34 C -2.34,-1.02 -1.32,0 0,0"
         style="fill:#000000;fill-opacity:1;fill-rule:nonzero;stroke:none"
         id="path712" />
    </g>
    <g
       id="g714"
       transform="translate(317.34,334.56)"
       style="fill:#000000;fill-opacity:1">
      <path
         d="M 0,0 C 1.26,0 2.28,-1.02 2.28,-2.28 2.28,-3.6 1.26,-4.62 0,-4.62 c -1.32,0 -2.34,1.02 -2.34,2.34 C -2.34,-1.02 -1.32,0 0,0"
         style="fill:#000000;fill-opacity:1;fill-rule:nonzero;stroke:none"
         id="path716" />
    </g>
    <g
       id="g718"
       transform="translate(317.34,521.64)"
       style="fill:#000000;fill-opacity:1">
      <path
         d="M 0,0 C 1.26,0 2.28,-1.02 2.28,-2.28 2.28,-3.6 1.26,-4.62 0,-4.62 c -1.32,0 -2.34,1.02 -2.34,2.34 C -2.34,-1.02 -1.32,0 0,0"
         style="fill:#000000;fill-opacity:1;fill-rule:nonzero;stroke:none"
         id="path720" />
    </g>
    <g
       id="g722"
       transform="translate(331.5,138.96)"
       style="fill:#000000;fill-opacity:1">
      <path
         d="M 0,0 C 1.26,0 2.28,-1.02 2.28,-2.28 2.28,-3.6 1.26,-4.62 0,-4.62 c -1.32,0 -2.34,1.02 -2.34,2.34 C -2.34,-1.02 -1.32,0 0,0"
         style="fill:#000000;fill-opacity:1;fill-rule:nonzero;stroke:none"
         id="path724" />
    </g>
    <g
       id="g726"
       transform="translate(317.34,164.52)"
       style="fill:#000000;fill-opacity:1">
      <path
         d="M 0,0 C 1.26,0 2.28,-1.02 2.28,-2.28 2.28,-3.6 1.26,-4.62 0,-4.62 c -1.32,0 -2.34,1.02 -2.34,2.34 C -2.34,-1.02 -1.32,0 0,0"
         style="fill:#000000;fill-opacity:1;fill-rule:nonzero;stroke:none"
         id="path728" />
    </g>
    <g
       id="g730"
       transform="translate(317.34,292.08)"
       style="fill:#000000;fill-opacity:1">
      <path
         d="M 0,0 C 1.26,0 2.28,-1.02 2.28,-2.28 2.28,-3.6 1.26,-4.62 0,-4.62 c -1.32,0 -2.34,1.02 -2.34,2.34 C -2.34,-1.02 -1.32,0 0,0"
         style="fill:#000000;fill-opacity:1;fill-rule:nonzero;stroke:none"
         id="path732" />
    </g>
    <g
       id="g734"
       transform="translate(317.34,232.56)"
       style="fill:#000000;fill-opacity:1">
      <path
         d="M 0,0 C 1.26,0 2.28,-1.02 2.28,-2.28 2.28,-3.6 1.26,-4.62 0,-4.62 c -1.32,0 -2.34,1.02 -2.34,2.34 C -2.34,-1.02 -1.32,0 0,0"
         style="fill:#000000;fill-opacity:1;fill-rule:nonzero;stroke:none"
         id="path736" />
    </g>
    <g
       id="g738"
       transform="translate(317.34,377.1)"
       style="fill:#000000;fill-opacity:1">
      <path
         d="M 0,0 C 1.26,0 2.28,-1.02 2.28,-2.28 2.28,-3.6 1.26,-4.62 0,-4.62 c -1.32,0 -2.34,1.02 -2.34,2.34 C -2.34,-1.02 -1.32,0 0,0"
         style="fill:#000000;fill-opacity:1;fill-rule:nonzero;stroke:none"
         id="path740" />
    </g>
    <g
       id="g742"
       transform="translate(317.34,266.52)"
       style="fill:#000000;fill-opacity:1">
      <path
         d="M 0,0 C 1.26,0 2.28,-1.02 2.28,-2.28 2.28,-3.6 1.26,-4.62 0,-4.62 c -1.32,0 -2.34,1.02 -2.34,2.34 C -2.34,-1.02 -1.32,0 0,0"
         style="fill:#000000;fill-opacity:1;fill-rule:nonzero;stroke:none"
         id="path744" />
    </g>
    <g
       id="g746"
       transform="translate(280.5,130.5)"
       style="fill:#000000;fill-opacity:1">
      <path
         d="M 0,0 C 1.26,0 2.28,-1.02 2.28,-2.28 2.28,-3.6 1.26,-4.62 0,-4.62 c -1.32,0 -2.34,1.02 -2.34,2.34 C -2.34,-1.02 -1.32,0 0,0"
         style="fill:#000000;fill-opacity:1;fill-rule:nonzero;stroke:none"
         id="path748" />
    </g>
    <g
       id="g750"
       transform="translate(317.34,172.98)"
       style="fill:#000000;fill-opacity:1">
      <path
         d="M 0,0 C 1.26,0 2.28,-1.02 2.28,-2.28 2.28,-3.6 1.26,-4.62 0,-4.62 c -1.32,0 -2.34,1.02 -2.34,2.34 C -2.34,-1.02 -1.32,0 0,0"
         style="fill:#000000;fill-opacity:1;fill-rule:nonzero;stroke:none"
         id="path752" />
    </g>
    <g
       id="g754"
       transform="translate(317.34,402.6)"
       style="fill:#000000;fill-opacity:1">
      <path
         d="M 0,0 C 1.26,0 2.28,-1.02 2.28,-2.28 2.28,-3.6 1.26,-4.62 0,-4.62 c -1.32,0 -2.34,1.02 -2.34,2.34 C -2.34,-1.02 -1.32,0 0,0"
         style="fill:#000000;fill-opacity:1;fill-rule:nonzero;stroke:none"
         id="path756" />
    </g>
    <g
       id="g758"
       transform="translate(317.34,343.08)"
       style="fill:#000000;fill-opacity:1">
      <path
         d="M 0,0 C 1.26,0 2.28,-1.02 2.28,-2.28 2.28,-3.6 1.26,-4.62 0,-4.62 c -1.32,0 -2.34,1.02 -2.34,2.34 C -2.34,-1.02 -1.32,0 0,0"
         style="fill:#000000;fill-opacity:1;fill-rule:nonzero;stroke:none"
         id="path760" />
    </g>
    <g
       id="g762"
       transform="translate(287.52,139.02)"
       style="fill:#000000;fill-opacity:1">
      <path
         d="M 0,0 C 1.26,0 2.28,-1.02 2.28,-2.28 2.28,-3.6 1.26,-4.62 0,-4.62 c -1.32,0 -2.34,1.02 -2.34,2.34 C -2.34,-1.02 -1.32,0 0,0"
         style="fill:#000000;fill-opacity:1;fill-rule:nonzero;stroke:none"
         id="path764" />
    </g>
    <g
       id="g766"
       transform="translate(317.34,547.2)"
       style="fill:#000000;fill-opacity:1">
      <path
         d="M 0,0 C 1.26,0 2.28,-1.02 2.28,-2.28 2.28,-3.6 1.26,-4.62 0,-4.62 c -1.32,0 -2.34,1.02 -2.34,2.34 C -2.34,-1.02 -1.32,0 0,0"
         style="fill:#000000;fill-opacity:1;fill-rule:nonzero;stroke:none"
         id="path768" />
    </g>
    <g
       id="g770"
       transform="translate(317.34,411.12)"
       style="fill:#000000;fill-opacity:1">
      <path
         d="M 0,0 C 1.26,0 2.28,-1.02 2.28,-2.28 2.28,-3.6 1.26,-4.62 0,-4.62 c -1.32,0 -2.34,1.02 -2.34,2.34 C -2.34,-1.02 -1.32,0 0,0"
         style="fill:#000000;fill-opacity:1;fill-rule:nonzero;stroke:none"
         id="path772" />
    </g>
    <g
       id="g774"
       transform="translate(317.34,479.16)"
       style="fill:#000000;fill-opacity:1">
      <path
         d="M 0,0 C 1.26,0 2.28,-1.02 2.28,-2.28 2.28,-3.6 1.26,-4.62 0,-4.62 c -1.32,0 -2.34,1.02 -2.34,2.34 C -2.34,-1.02 -1.32,0 0,0"
         style="fill:#000000;fill-opacity:1;fill-rule:nonzero;stroke:none"
         id="path776" />
    </g>
    <g
       id="g778"
       transform="translate(306,138.96)">
      <path
         d="M 0,0 C 1.26,0 2.28,-1.02 2.28,-2.28 2.28,-3.6 1.26,-4.62 0,-4.62 c -1.32,0 -2.34,1.02 -2.34,2.34 C -2.34,-1.02 -1.32,0 0,0"
         style="fill:#008500;fill-opacity:1;fill-rule:nonzero;stroke:none"
         id="path780" />
    </g>
    <g
       id="g782"
       transform="translate(306,121.98)"
       style="fill:#000000;fill-opacity:1">
      <path
         d="M 0,0 C 1.26,0 2.28,-1.02 2.28,-2.28 2.28,-3.6 1.26,-4.62 0,-4.62 c -1.32,0 -2.34,1.02 -2.34,2.34 C -2.34,-1.02 -1.32,0 0,0"
         style="fill:#000000;fill-opacity:1;fill-rule:nonzero;stroke:none"
         id="path784" />
    </g>
    <g
       id="g786"
       transform="translate(306,130.5)">
      <path
         d="M 0,0 C 1.26,0 2.28,-1.02 2.28,-2.28 2.28,-3.6 1.26,-4.62 0,-4.62 c -1.32,0 -2.34,1.02 -2.34,2.34 C -2.34,-1.02 -1.32,0 0,0"
         style="fill:#008500;fill-opacity:1;fill-rule:nonzero;stroke:none"
         id="path788" />
    </g>
    <g
       id="g790"
       transform="translate(306,140.4)">
      <path
         d="M 0,0 V -20.7"
         style="fill:none;stroke:#008500;stroke-width:5.64;stroke-linecap:round;stroke-linejoin:round;stroke-miterlimit:10;stroke-dasharray:none;stroke-opacity:1"
         id="path792" />
      <g
         id="g794"
         transform="translate(0,1.98)">
        <path
           d="M 0,0 V 419.52"
           style="fill:none;stroke:#008500;stroke-width:5.64;stroke-linecap:round;stroke-linejoin:round;stroke-miterlimit:10;stroke-dasharray:none;stroke-opacity:1"
           id="path796" />
      </g>
    </g>
  </g>
</svg>
