M48
; DRILL file {KiCad (5.1.0)-1} date 4/8/2019 3:48:55 PM
; FORMAT={-:-/ absolute / inch / decimal}
; #@! TF.CreationDate,2019-04-08T15:48:55-06:00
; #@! TF.GenerationSoftware,Kicad,Pcbnew,(5.1.0)-1
; #@! TF.FileFunction,Plated,1,4,PTH
FMAT,2
INCH
T1C0.0157
T2C0.0197
T3C0.1260
%
G90
G05
T1
X3.9764Y-2.1654
X3.9764Y-2.2244
X3.9764Y-2.2835
X3.9764Y-2.3425
X3.9764Y-2.4016
X3.9764Y-2.5
X3.9764Y-2.5787
X3.9764Y-2.6575
X3.9764Y-2.7559
X3.9764Y-2.815
X3.9764Y-2.874
X3.9764Y-2.9331
X3.9764Y-2.9921
X3.9764Y-3.0709
X3.9764Y-3.1299
X3.9764Y-3.189
X3.9764Y-3.248
X3.9764Y-3.3071
X3.9764Y-3.4055
X3.9764Y-3.4843
X3.9764Y-3.563
X3.9764Y-3.6614
X3.9764Y-3.7205
X3.9764Y-3.7795
X3.9764Y-3.8386
X3.9764Y-3.8976
X3.9764Y-3.9764
X3.9764Y-4.0354
X3.9764Y-4.0945
X3.9764Y-4.1535
X3.9764Y-4.2126
X3.9764Y-4.311
X3.9764Y-4.3898
X3.9764Y-4.4685
X3.9764Y-4.5669
X3.9764Y-4.626
X3.9764Y-4.685
X3.9764Y-4.7441
X3.9764Y-4.8031
X3.9764Y-4.8819
X3.9764Y-4.9409
X3.9764Y-5.0
X3.9764Y-5.0591
X3.9764Y-5.1181
X3.9764Y-5.2165
X3.9764Y-5.2953
X3.9764Y-5.374
X3.9764Y-5.4724
X3.9764Y-5.5315
X3.9764Y-5.5906
X3.9764Y-5.6496
X3.9764Y-5.7087
X4.0157Y-2.0472
X4.0157Y-5.8268
X4.0354Y-2.1654
X4.0354Y-2.4016
X4.0354Y-2.5
X4.0354Y-2.5788
X4.0354Y-2.6575
X4.0354Y-2.7559
X4.0354Y-2.9921
X4.0354Y-3.0709
X4.0354Y-3.3071
X4.0354Y-3.4055
X4.0354Y-3.4843
X4.0354Y-3.563
X4.0354Y-3.6614
X4.0354Y-3.8976
X4.0354Y-3.9764
X4.0354Y-4.2126
X4.0354Y-4.311
X4.0354Y-4.3898
X4.0354Y-4.4685
X4.0354Y-4.5669
X4.0354Y-4.8031
X4.0354Y-4.8819
X4.0354Y-5.1181
X4.0354Y-5.2165
X4.0354Y-5.2953
X4.0354Y-5.374
X4.0354Y-5.4724
X4.0354Y-5.7087
X4.0945Y-2.1654
X4.0945Y-2.4016
X4.0945Y-2.5
X4.0945Y-2.5787
X4.0945Y-2.6575
X4.0945Y-2.7559
X4.0945Y-2.9921
X4.0945Y-3.0709
X4.0945Y-3.3071
X4.0945Y-3.4055
X4.0945Y-3.4843
X4.0945Y-3.563
X4.0945Y-3.6614
X4.0945Y-3.8976
X4.0945Y-3.9764
X4.0945Y-4.2126
X4.0945Y-4.311
X4.0945Y-4.3898
X4.0945Y-4.4685
X4.0945Y-4.5669
X4.0945Y-4.8031
X4.0945Y-4.8819
X4.0945Y-5.1181
X4.0945Y-5.2165
X4.0945Y-5.2953
X4.0945Y-5.374
X4.0945Y-5.4724
X4.0945Y-5.7087
X4.1535Y-2.1654
X4.1535Y-2.5
X4.1535Y-2.6575
X4.1535Y-2.9921
X4.1535Y-3.0709
X4.1535Y-3.4055
X4.1535Y-3.563
X4.1535Y-3.8976
X4.1535Y-3.9764
X4.1535Y-4.311
X4.1535Y-4.4685
X4.1535Y-4.8031
X4.1535Y-4.8819
X4.1535Y-5.2165
X4.1535Y-5.374
X4.1535Y-5.7087
X4.2126Y-2.5
X4.2126Y-2.6575
X4.2126Y-3.4055
X4.2126Y-3.563
X4.2126Y-4.311
X4.2126Y-4.4685
X4.2126Y-5.2165
X4.2126Y-5.374
X4.2717Y-2.5
X4.2717Y-2.6575
X4.2717Y-3.4055
X4.2717Y-3.563
X4.2717Y-4.311
X4.2717Y-4.4685
X4.2717Y-5.2165
X4.2717Y-5.374
X4.3307Y-2.1654
X4.3307Y-2.5
X4.3307Y-2.6575
X4.3307Y-2.9921
X4.3307Y-3.0709
X4.3307Y-3.4055
X4.3307Y-3.563
X4.3307Y-3.8976
X4.3307Y-3.9764
X4.3307Y-4.311
X4.3307Y-4.4685
X4.3307Y-4.8031
X4.3307Y-4.8819
X4.3307Y-5.2165
X4.3307Y-5.374
X4.3307Y-5.7087
X4.3898Y-2.1654
X4.3898Y-2.5
X4.3898Y-2.6575
X4.3898Y-2.9921
X4.3898Y-3.0709
X4.3898Y-3.4055
X4.3898Y-3.563
X4.3898Y-3.8976
X4.3898Y-3.9764
X4.3898Y-4.311
X4.3898Y-4.4685
X4.3898Y-4.8031
X4.3898Y-4.8819
X4.3898Y-5.2165
X4.3898Y-5.374
X4.3898Y-5.7087
X4.4488Y-2.1654
X4.4488Y-2.5
X4.4488Y-2.6575
X4.4488Y-2.9921
X4.4488Y-3.0709
X4.4488Y-3.4055
X4.4488Y-3.563
X4.4488Y-3.8976
X4.4488Y-3.9764
X4.4488Y-4.311
X4.4488Y-4.4685
X4.4488Y-4.8031
X4.4488Y-4.8819
X4.4488Y-5.2165
X4.4488Y-5.374
X4.4488Y-5.7087
X4.5079Y-2.1654
X4.5079Y-2.5
X4.5079Y-2.6575
X4.5079Y-2.9921
X4.5079Y-3.0709
X4.5079Y-3.4055
X4.5079Y-3.563
X4.5079Y-3.8976
X4.5079Y-3.9764
X4.5079Y-4.311
X4.5079Y-4.4685
X4.5079Y-4.8031
X4.5079Y-4.8819
X4.5079Y-5.2165
X4.5079Y-5.374
X4.5079Y-5.7087
X4.5669Y-2.1654
X4.5669Y-2.5
X4.5669Y-2.6575
X4.5669Y-2.9921
X4.5669Y-3.0709
X4.5669Y-3.4055
X4.5669Y-3.563
X4.5669Y-3.8976
X4.5669Y-3.9764
X4.5669Y-4.311
X4.5669Y-4.4685
X4.5669Y-4.8031
X4.5669Y-4.8819
X4.5669Y-5.2165
X4.5669Y-5.374
X4.5669Y-5.7087
X4.626Y-2.1654
X4.626Y-2.5
X4.626Y-2.6575
X4.626Y-2.9921
X4.626Y-3.0709
X4.626Y-3.4055
X4.626Y-3.563
X4.626Y-3.8976
X4.626Y-3.9764
X4.626Y-4.311
X4.626Y-4.4685
X4.626Y-4.8031
X4.626Y-4.8819
X4.626Y-5.2165
X4.626Y-5.374
X4.626Y-5.7087
X4.685Y-2.1654
X4.685Y-2.5
X4.685Y-2.6575
X4.685Y-2.9921
X4.685Y-3.0709
X4.685Y-3.4055
X4.685Y-3.563
X4.685Y-3.8976
X4.685Y-3.9764
X4.685Y-4.311
X4.685Y-4.4685
X4.685Y-4.8031
X4.685Y-4.8819
X4.685Y-5.2165
X4.685Y-5.374
X4.685Y-5.7087
X4.7441Y-2.1654
X4.7441Y-2.5
X4.7441Y-2.6575
X4.7441Y-2.9921
X4.7441Y-3.0709
X4.7441Y-3.4055
X4.7441Y-3.563
X4.7441Y-3.8976
X4.7441Y-3.9764
X4.7441Y-4.311
X4.7441Y-4.4685
X4.7441Y-4.8031
X4.7441Y-4.8819
X4.7441Y-5.2165
X4.7441Y-5.374
X4.7441Y-5.7087
X4.8031Y-2.1654
X4.8031Y-2.5
X4.8031Y-2.6575
X4.8031Y-2.9921
X4.8031Y-3.0709
X4.8031Y-3.4055
X4.8031Y-3.563
X4.8031Y-3.8976
X4.8031Y-3.9764
X4.8031Y-4.311
X4.8031Y-4.4685
X4.8031Y-4.8031
X4.8031Y-4.8819
X4.8031Y-5.2165
X4.8031Y-5.374
X4.8031Y-5.7087
X4.8622Y-2.1654
X4.8622Y-2.5
X4.8622Y-2.6575
X4.8622Y-2.9921
X4.8622Y-3.0709
X4.8622Y-3.4055
X4.8622Y-3.563
X4.8622Y-3.8976
X4.8622Y-3.9764
X4.8622Y-4.311
X4.8622Y-4.4685
X4.8622Y-4.8031
X4.8622Y-4.8819
X4.8622Y-5.2165
X4.8622Y-5.374
X4.8622Y-5.7087
X4.9213Y-2.1654
X4.9213Y-2.5
X4.9213Y-2.6575
X4.9213Y-2.9921
X4.9213Y-3.0709
X4.9213Y-3.4055
X4.9213Y-3.563
X4.9213Y-3.8976
X4.9213Y-3.9764
X4.9213Y-4.311
X4.9213Y-4.4685
X4.9213Y-4.8031
X4.9213Y-4.8819
X4.9213Y-5.2165
X4.9213Y-5.374
X4.9213Y-5.7087
X4.9803Y-2.1654
X4.9803Y-2.5
X4.9803Y-2.6575
X4.9803Y-2.9921
X4.9803Y-3.0709
X4.9803Y-3.4055
X4.9803Y-3.563
X4.9803Y-3.8976
X4.9803Y-3.9764
X4.9803Y-4.311
X4.9803Y-4.4685
X4.9803Y-4.8031
X4.9803Y-4.8819
X4.9803Y-5.2165
X4.9803Y-5.374
X4.9803Y-5.7087
X5.0394Y-2.1654
X5.0394Y-2.5
X5.0394Y-2.6575
X5.0394Y-2.9921
X5.0394Y-3.0709
X5.0394Y-3.4055
X5.0394Y-3.563
X5.0394Y-3.8976
X5.0394Y-3.9764
X5.0394Y-4.311
X5.0394Y-4.4685
X5.0394Y-4.8031
X5.0394Y-4.8819
X5.0394Y-5.2165
X5.0394Y-5.374
X5.0394Y-5.7087
X5.0984Y-2.1654
X5.0984Y-2.5
X5.0984Y-2.6575
X5.0984Y-2.9921
X5.0984Y-3.0709
X5.0984Y-3.4055
X5.0984Y-3.563
X5.0984Y-3.8976
X5.0984Y-3.9764
X5.0984Y-4.311
X5.0984Y-4.4685
X5.0984Y-4.8031
X5.0984Y-4.8819
X5.0984Y-5.2165
X5.0984Y-5.374
X5.0984Y-5.7087
X5.1575Y-2.1654
X5.1575Y-2.5
X5.1575Y-2.6575
X5.1575Y-2.9921
X5.1575Y-3.0709
X5.1575Y-3.4055
X5.1575Y-3.563
X5.1575Y-3.8976
X5.1575Y-3.9764
X5.1575Y-4.311
X5.1575Y-4.4685
X5.1575Y-4.8031
X5.1575Y-4.8819
X5.1575Y-5.2165
X5.1575Y-5.374
X5.1575Y-5.7087
X5.2165Y-2.1654
X5.2165Y-2.5
X5.2165Y-2.6575
X5.2165Y-2.9921
X5.2165Y-3.0709
X5.2165Y-3.4055
X5.2165Y-3.563
X5.2165Y-3.8976
X5.2165Y-3.9764
X5.2165Y-4.311
X5.2165Y-4.4685
X5.2165Y-4.8031
X5.2165Y-4.8819
X5.2165Y-5.2165
X5.2165Y-5.374
X5.2165Y-5.7087
X5.2756Y-2.1654
X5.2756Y-2.5
X5.2756Y-2.6575
X5.2756Y-2.9921
X5.2756Y-3.0709
X5.2756Y-3.4055
X5.2756Y-3.563
X5.2756Y-3.8976
X5.2756Y-3.9764
X5.2756Y-4.311
X5.2756Y-4.4685
X5.2756Y-4.8031
X5.2756Y-4.8819
X5.2756Y-5.2165
X5.2756Y-5.374
X5.2756Y-5.7087
X5.3346Y-2.1654
X5.3346Y-2.5
X5.3346Y-2.6575
X5.3346Y-2.9921
X5.3346Y-3.0709
X5.3346Y-3.4055
X5.3346Y-3.563
X5.3346Y-3.8976
X5.3346Y-3.9764
X5.3346Y-4.311
X5.3346Y-4.4685
X5.3346Y-4.8031
X5.3346Y-4.8819
X5.3346Y-5.2165
X5.3346Y-5.374
X5.3346Y-5.7087
X5.3937Y-2.1654
X5.3937Y-2.5
X5.3937Y-2.6575
X5.3937Y-2.9921
X5.3937Y-3.0709
X5.3937Y-3.4055
X5.3937Y-3.563
X5.3937Y-3.8976
X5.3937Y-3.9764
X5.3937Y-4.311
X5.3937Y-4.4685
X5.3937Y-4.8031
X5.3937Y-4.8819
X5.3937Y-5.2165
X5.3937Y-5.374
X5.3937Y-5.7087
X5.4528Y-2.1654
X5.4528Y-2.5
X5.4528Y-2.6575
X5.4528Y-2.9921
X5.4528Y-3.0709
X5.4528Y-3.4055
X5.4528Y-3.563
X5.4528Y-3.8976
X5.4528Y-3.9764
X5.4528Y-4.311
X5.4528Y-4.4685
X5.4528Y-4.8031
X5.4528Y-4.8819
X5.4528Y-5.2165
X5.4528Y-5.374
X5.4528Y-5.7087
X5.5118Y-2.5
X5.5118Y-2.6575
X5.5118Y-3.4055
X5.5118Y-3.563
X5.5118Y-4.311
X5.5118Y-4.4685
X5.5118Y-5.2165
X5.5118Y-5.374
X5.5709Y-2.5
X5.5709Y-2.6575
X5.5709Y-3.4055
X5.5709Y-3.563
X5.5709Y-4.311
X5.5709Y-4.4685
X5.5709Y-5.2165
X5.5709Y-5.374
X5.6299Y-2.5
X5.6299Y-2.6575
X5.6299Y-3.4055
X5.6299Y-3.563
X5.6299Y-4.311
X5.6299Y-4.4685
X5.6299Y-5.2165
X5.6299Y-5.374
X5.6693Y-2.1654
X5.6693Y-2.9921
X5.6693Y-3.0709
X5.6693Y-3.8976
X5.6693Y-3.9764
X5.6693Y-4.8031
X5.6693Y-4.8819
X5.6693Y-5.7087
X5.689Y-2.5
X5.689Y-2.6575
X5.689Y-3.4055
X5.689Y-3.563
X5.689Y-4.311
X5.689Y-4.4685
X5.689Y-5.2165
X5.689Y-5.374
X5.7283Y-2.1654
X5.7283Y-2.9921
X5.7283Y-3.0709
X5.7283Y-3.8976
X5.7283Y-3.9764
X5.7283Y-4.8031
X5.7283Y-4.8819
X5.7283Y-5.7087
X5.748Y-2.5
X5.748Y-2.6575
X5.748Y-3.4055
X5.748Y-3.563
X5.748Y-4.311
X5.748Y-4.4685
X5.748Y-5.2165
X5.748Y-5.374
X5.7874Y-2.1654
X5.7874Y-2.9921
X5.7874Y-3.0709
X5.7874Y-3.8976
X5.7874Y-3.9764
X5.7874Y-4.8031
X5.7874Y-4.8819
X5.7874Y-5.7087
X5.8071Y-2.5
X5.8071Y-2.6575
X5.8071Y-3.4055
X5.8071Y-3.563
X5.8071Y-4.311
X5.8071Y-4.4685
X5.8071Y-5.2165
X5.8071Y-5.374
X5.8465Y-2.1654
X5.8465Y-2.9921
X5.8465Y-3.0709
X5.8465Y-3.8976
X5.8465Y-3.9764
X5.8465Y-4.8031
X5.8465Y-4.8819
X5.8465Y-5.7087
X5.8661Y-2.5
X5.8661Y-2.6575
X5.8661Y-3.4055
X5.8661Y-3.563
X5.8661Y-4.311
X5.8661Y-4.4685
X5.8661Y-5.2165
X5.8661Y-5.374
X5.9055Y-2.1654
X5.9055Y-2.9921
X5.9055Y-3.0709
X5.9055Y-3.8976
X5.9055Y-3.9764
X5.9055Y-4.8031
X5.9055Y-4.8819
X5.9055Y-5.7087
X5.9252Y-2.5
X5.9252Y-2.6575
X5.9252Y-3.4055
X5.9252Y-3.563
X5.9252Y-4.311
X5.9252Y-4.4685
X5.9252Y-5.2165
X5.9252Y-5.374
X5.9646Y-2.1654
X5.9646Y-2.9921
X5.9646Y-3.0709
X5.9646Y-3.8976
X5.9646Y-3.9764
X5.9646Y-4.8031
X5.9646Y-4.8819
X5.9646Y-5.7087
X5.9843Y-2.5
X5.9843Y-2.5
X5.9843Y-2.6575
X5.9843Y-2.6575
X5.9843Y-3.4055
X5.9843Y-3.4055
X5.9843Y-3.563
X5.9843Y-3.563
X5.9843Y-4.311
X5.9843Y-4.311
X5.9843Y-4.4685
X5.9843Y-4.4685
X5.9843Y-5.2165
X5.9843Y-5.2165
X5.9843Y-5.374
X5.9843Y-5.374
X6.0236Y-2.1654
X6.0236Y-2.9921
X6.0236Y-3.0709
X6.0236Y-3.8976
X6.0236Y-3.9764
X6.0236Y-4.8031
X6.0236Y-4.8819
X6.0236Y-5.7087
X6.0433Y-2.5
X6.0433Y-2.6575
X6.0433Y-3.4055
X6.0433Y-3.563
X6.0433Y-4.311
X6.0433Y-4.4685
X6.0433Y-5.2165
X6.0433Y-5.374
X6.0827Y-2.1654
X6.0827Y-2.9921
X6.0827Y-3.0709
X6.0827Y-3.8976
X6.0827Y-3.9764
X6.0827Y-4.8031
X6.0827Y-4.8819
X6.0827Y-5.7087
X6.1024Y-2.5
X6.1024Y-2.6575
X6.1024Y-3.4055
X6.1024Y-3.563
X6.1024Y-4.311
X6.1024Y-4.4685
X6.1024Y-5.2165
X6.1024Y-5.374
X6.1417Y-2.1654
X6.1417Y-2.9921
X6.1417Y-3.0709
X6.1417Y-3.8976
X6.1417Y-3.9764
X6.1417Y-4.8031
X6.1417Y-4.8819
X6.1417Y-5.7087
X6.1614Y-2.5
X6.1614Y-2.6575
X6.1614Y-3.4055
X6.1614Y-3.563
X6.1614Y-4.311
X6.1614Y-4.4685
X6.1614Y-5.2165
X6.1614Y-5.374
X6.2008Y-2.1654
X6.2008Y-2.9921
X6.2008Y-3.0709
X6.2008Y-3.8976
X6.2008Y-3.9764
X6.2008Y-4.8031
X6.2008Y-4.8819
X6.2008Y-5.7087
X6.2205Y-2.5
X6.2205Y-2.6575
X6.2205Y-3.4055
X6.2205Y-3.563
X6.2205Y-4.311
X6.2205Y-4.4685
X6.2205Y-5.2165
X6.2205Y-5.374
X6.2598Y-2.1654
X6.2598Y-2.9921
X6.2598Y-3.0709
X6.2598Y-3.8976
X6.2598Y-3.9764
X6.2598Y-4.8031
X6.2598Y-4.8819
X6.2598Y-5.7087
X6.2795Y-2.5
X6.2795Y-2.6575
X6.2795Y-3.4055
X6.2795Y-3.563
X6.2795Y-4.311
X6.2795Y-4.4685
X6.2795Y-5.2165
X6.2795Y-5.374
X6.3189Y-2.1654
X6.3189Y-2.9921
X6.3189Y-3.0709
X6.3189Y-3.8976
X6.3189Y-3.9764
X6.3189Y-4.8031
X6.3189Y-4.8819
X6.3189Y-5.7087
X6.3386Y-2.5
X6.3386Y-2.6575
X6.3386Y-3.4055
X6.3386Y-3.563
X6.3386Y-4.311
X6.3386Y-4.4685
X6.3386Y-5.2165
X6.3386Y-5.374
X6.378Y-2.1654
X6.378Y-2.9921
X6.378Y-3.0709
X6.378Y-3.8976
X6.378Y-3.9764
X6.378Y-4.8031
X6.378Y-4.8819
X6.378Y-5.7087
X6.3976Y-2.5
X6.3976Y-2.6575
X6.3976Y-3.4055
X6.3976Y-3.563
X6.3976Y-4.311
X6.3976Y-4.4685
X6.3976Y-5.2165
X6.3976Y-5.374
X6.437Y-2.1654
X6.437Y-2.9921
X6.437Y-3.0709
X6.437Y-3.8976
X6.437Y-3.9764
X6.437Y-4.8031
X6.437Y-4.8819
X6.437Y-5.7087
X6.4567Y-2.5
X6.4567Y-2.6575
X6.4567Y-3.4055
X6.4567Y-3.563
X6.4567Y-4.311
X6.4567Y-4.4685
X6.4567Y-5.2165
X6.4567Y-5.374
X6.4961Y-2.1654
X6.4961Y-2.9921
X6.4961Y-3.0709
X6.4961Y-3.8976
X6.4961Y-3.9764
X6.4961Y-4.8031
X6.4961Y-4.8819
X6.4961Y-5.7087
X6.5157Y-2.5
X6.5157Y-2.6575
X6.5157Y-3.4055
X6.5157Y-3.563
X6.5157Y-4.311
X6.5157Y-4.4685
X6.5157Y-5.2165
X6.5157Y-5.374
X6.5551Y-2.1654
X6.5551Y-2.9921
X6.5551Y-3.0709
X6.5551Y-3.8976
X6.5551Y-3.9764
X6.5551Y-4.8031
X6.5551Y-4.8819
X6.5551Y-5.7087
X6.5748Y-2.5
X6.5748Y-2.6575
X6.5748Y-3.4055
X6.5748Y-3.563
X6.5748Y-4.311
X6.5748Y-4.4685
X6.5748Y-5.2165
X6.5748Y-5.374
X6.6142Y-2.1654
X6.6142Y-2.9921
X6.6142Y-3.0709
X6.6142Y-3.8976
X6.6142Y-3.9764
X6.6142Y-4.8031
X6.6142Y-4.8819
X6.6142Y-5.7087
X6.6339Y-2.5
X6.6339Y-2.6575
X6.6339Y-3.4055
X6.6339Y-3.563
X6.6339Y-4.311
X6.6339Y-4.4685
X6.6339Y-5.2165
X6.6339Y-5.374
X6.6732Y-2.1654
X6.6732Y-2.9921
X6.6732Y-3.0709
X6.6732Y-3.8976
X6.6732Y-3.9764
X6.6732Y-4.8031
X6.6732Y-4.8819
X6.6732Y-5.7087
X6.6929Y-2.5
X6.6929Y-2.6575
X6.6929Y-3.4055
X6.6929Y-3.563
X6.6929Y-4.311
X6.6929Y-4.4685
X6.6929Y-5.2165
X6.6929Y-5.374
X6.7323Y-2.1654
X6.7323Y-2.9921
X6.7323Y-3.0709
X6.7323Y-3.8976
X6.7323Y-3.9764
X6.7323Y-4.8031
X6.7323Y-4.8819
X6.7323Y-5.7087
X6.752Y-2.5
X6.752Y-2.6575
X6.752Y-3.4055
X6.752Y-3.563
X6.752Y-4.311
X6.752Y-4.4685
X6.752Y-5.2165
X6.752Y-5.374
X6.7913Y-2.1654
X6.7913Y-2.9921
X6.7913Y-3.0709
X6.7913Y-3.8976
X6.7913Y-3.9764
X6.7913Y-4.8031
X6.7913Y-4.8819
X6.7913Y-5.7087
X6.811Y-2.5
X6.811Y-2.6575
X6.811Y-3.4055
X6.811Y-3.563
X6.811Y-4.311
X6.811Y-4.4685
X6.811Y-5.2165
X6.811Y-5.374
X6.8701Y-2.5
X6.8701Y-2.6575
X6.8701Y-3.4055
X6.8701Y-3.563
X6.8701Y-4.311
X6.8701Y-4.4685
X6.8701Y-5.2165
X6.8701Y-5.374
X6.9291Y-2.5
X6.9291Y-2.6575
X6.9291Y-3.4055
X6.9291Y-3.563
X6.9291Y-4.311
X6.9291Y-4.4685
X6.9291Y-5.2165
X6.9291Y-5.374
X6.9882Y-2.5
X6.9882Y-2.6575
X6.9882Y-3.4055
X6.9882Y-3.563
X6.9882Y-4.311
X6.9882Y-4.4685
X6.9882Y-5.2165
X6.9882Y-5.374
X7.0036Y-2.4418
X7.0036Y-2.7156
X7.0036Y-3.3474
X7.0036Y-3.6211
X7.0036Y-4.2529
X7.0036Y-4.5267
X7.0036Y-5.1584
X7.0036Y-5.4322
X7.0079Y-2.1654
X7.0079Y-2.9921
X7.0079Y-3.0709
X7.0079Y-3.8976
X7.0079Y-3.9764
X7.0079Y-4.8031
X7.0079Y-4.8819
X7.0079Y-5.7087
X7.0272Y-2.3865
X7.0272Y-2.771
X7.0272Y-3.292
X7.0272Y-3.6765
X7.0272Y-4.1975
X7.0272Y-4.582
X7.0272Y-5.103
X7.0272Y-5.4875
X7.0472Y-2.5
X7.0472Y-3.4055
X7.0472Y-4.311
X7.0472Y-5.2165
X7.0585Y-2.3351
X7.0585Y-2.8224
X7.0585Y-3.2406
X7.0585Y-3.7279
X7.0585Y-4.1461
X7.0585Y-4.6334
X7.0585Y-5.0516
X7.0585Y-5.539
X7.0669Y-2.1654
X7.0669Y-2.9921
X7.0669Y-3.0709
X7.0669Y-3.8976
X7.0669Y-3.9764
X7.0669Y-4.8031
X7.0669Y-4.8819
X7.0669Y-5.7087
X7.0866Y-2.5
X7.0866Y-3.4055
X7.0866Y-4.311
X7.0866Y-5.2165
X7.0968Y-2.2886
X7.0968Y-2.8689
X7.0968Y-3.1941
X7.0968Y-3.7744
X7.0968Y-4.0996
X7.0968Y-4.6799
X7.0968Y-5.0052
X7.0968Y-5.5854
X7.126Y-2.1654
X7.126Y-2.5787
X7.126Y-2.9921
X7.126Y-3.0709
X7.126Y-3.4843
X7.126Y-3.8976
X7.126Y-3.9764
X7.126Y-4.3898
X7.126Y-4.8031
X7.126Y-4.8819
X7.126Y-5.2953
X7.126Y-5.7087
X7.1323Y-2.52
X7.1323Y-2.6374
X7.1323Y-3.4255
X7.1323Y-3.543
X7.1323Y-4.3311
X7.1323Y-4.4485
X7.1323Y-5.2366
X7.1323Y-5.354
X7.1412Y-2.2481
X7.1412Y-2.9094
X7.1412Y-3.1536
X7.1412Y-3.8149
X7.1412Y-4.0591
X7.1412Y-4.7204
X7.1412Y-4.9646
X7.1412Y-5.6259
X7.151Y-2.464
X7.151Y-2.6935
X7.151Y-3.3695
X7.151Y-3.599
X7.151Y-4.275
X7.151Y-4.5045
X7.151Y-5.1806
X7.151Y-5.41
X7.1812Y-2.4133
X7.1812Y-2.7442
X7.1812Y-3.3188
X7.1812Y-3.6497
X7.1812Y-4.2243
X7.1812Y-4.5552
X7.1812Y-5.1298
X7.1812Y-5.4607
X7.185Y-2.1654
X7.185Y-2.9921
X7.185Y-3.0709
X7.185Y-3.8976
X7.185Y-3.9764
X7.185Y-4.8031
X7.185Y-4.8819
X7.185Y-5.7087
X7.1911Y-2.2144
X7.1911Y-2.9431
X7.1911Y-3.1199
X7.1911Y-3.8486
X7.1911Y-4.0254
X7.1911Y-4.7541
X7.1911Y-4.9309
X7.1911Y-5.6597
X7.2215Y-2.3701
X7.2215Y-2.7874
X7.2215Y-3.2756
X7.2215Y-3.6929
X7.2215Y-4.1811
X7.2215Y-4.5984
X7.2215Y-5.0867
X7.2215Y-5.5039
X7.2452Y-2.1881
X7.2452Y-2.9694
X7.2452Y-3.0936
X7.2452Y-3.8749
X7.2452Y-3.9991
X7.2452Y-4.7804
X7.2452Y-4.9046
X7.2452Y-5.686
X7.2701Y-2.3365
X7.2701Y-2.8209
X7.2701Y-3.2421
X7.2701Y-3.7264
X7.2701Y-4.1476
X7.2701Y-4.632
X7.2701Y-5.0531
X7.2701Y-5.5375
X7.3025Y-2.1697
X7.3025Y-2.9877
X7.3025Y-3.0753
X7.3025Y-3.8932
X7.3025Y-3.9808
X7.3025Y-4.7988
X7.3025Y-4.8863
X7.3025Y-5.7043
X7.3247Y-2.3141
X7.3247Y-2.8434
X7.3247Y-3.2196
X7.3247Y-3.7489
X7.3247Y-4.1251
X7.3247Y-4.6544
X7.3247Y-5.0306
X7.3247Y-5.5599
X7.3619Y-2.1598
X7.3619Y-2.9977
X7.3619Y-3.0653
X7.3619Y-3.9032
X7.3619Y-3.9708
X7.3619Y-4.8087
X7.3619Y-4.8763
X7.3619Y-5.7142
X7.3828Y-2.3038
X7.3828Y-2.8537
X7.3828Y-3.2093
X7.3828Y-3.7592
X7.3828Y-4.1148
X7.3828Y-4.6647
X7.3828Y-5.0203
X7.3828Y-5.5702
X7.422Y-2.1584
X7.422Y-2.9991
X7.422Y-3.0639
X7.422Y-3.9046
X7.422Y-3.9694
X7.422Y-4.8101
X7.422Y-4.875
X7.422Y-5.7156
X7.4418Y-2.3061
X7.4418Y-2.8514
X7.4418Y-3.2116
X7.4418Y-3.7569
X7.4418Y-4.1171
X7.4418Y-4.6624
X7.4418Y-5.0226
X7.4418Y-5.5679
X7.4818Y-2.1656
X7.4818Y-2.9918
X7.4818Y-3.0711
X7.4818Y-3.8974
X7.4818Y-3.9767
X7.4818Y-4.8029
X7.4818Y-4.8822
X7.4818Y-5.7084
X7.499Y-2.3209
X7.499Y-2.8365
X7.499Y-3.2265
X7.499Y-3.7421
X7.499Y-4.132
X7.499Y-4.6476
X7.499Y-5.0375
X7.499Y-5.5531
X7.5399Y-2.1813
X7.5399Y-2.9762
X7.5399Y-3.0868
X7.5399Y-3.8817
X7.5399Y-3.9923
X7.5399Y-4.7872
X7.5399Y-4.8978
X7.5399Y-5.6927
X7.5517Y-2.3476
X7.5517Y-2.8099
X7.5517Y-3.2531
X7.5517Y-3.7154
X7.5517Y-4.1586
X7.5517Y-4.6209
X7.5517Y-5.0641
X7.5517Y-5.5264
X7.5951Y-2.2051
X7.5951Y-2.9524
X7.5951Y-3.1106
X7.5951Y-3.8579
X7.5951Y-4.0161
X7.5951Y-4.7634
X7.5951Y-4.9216
X7.5951Y-5.6689
X7.5975Y-2.3849
X7.5975Y-2.7726
X7.5975Y-3.2904
X7.5975Y-3.6781
X7.5975Y-4.1959
X7.5975Y-4.5836
X7.5975Y-5.1014
X7.5975Y-5.4891
X7.6343Y-2.4311
X7.6343Y-2.7264
X7.6343Y-3.3366
X7.6343Y-3.6319
X7.6343Y-4.2421
X7.6343Y-4.5374
X7.6343Y-5.1476
X7.6343Y-5.4429
X7.6464Y-2.2365
X7.6464Y-2.921
X7.6464Y-3.142
X7.6464Y-3.8265
X7.6464Y-4.0475
X7.6464Y-4.732
X7.6464Y-4.953
X7.6464Y-5.6375
X7.6604Y-2.484
X7.6604Y-2.6734
X7.6604Y-3.3895
X7.6604Y-3.579
X7.6604Y-4.2951
X7.6604Y-4.4845
X7.6604Y-5.2006
X7.6604Y-5.39
X7.6746Y-2.5413
X7.6746Y-2.6161
X7.6746Y-3.4469
X7.6746Y-3.5217
X7.6746Y-4.3524
X7.6746Y-4.4272
X7.6746Y-5.2579
X7.6746Y-5.3327
X7.6928Y-2.2749
X7.6928Y-2.8825
X7.6928Y-3.1804
X7.6928Y-3.7881
X7.6928Y-4.086
X7.6928Y-4.6936
X7.6928Y-4.9915
X7.6928Y-5.5991
X7.7331Y-2.3196
X7.7331Y-2.8379
X7.7331Y-3.2251
X7.7331Y-3.7434
X7.7331Y-4.1306
X7.7331Y-4.6489
X7.7331Y-5.0361
X7.7331Y-5.5544
X7.7667Y-2.3695
X7.7667Y-2.788
X7.7667Y-3.275
X7.7667Y-3.6935
X7.7667Y-4.1805
X7.7667Y-4.599
X7.7667Y-5.086
X7.7667Y-5.5045
X7.7928Y-2.4237
X7.7928Y-2.7338
X7.7928Y-3.3292
X7.7928Y-3.6393
X7.7928Y-4.2347
X7.7928Y-4.5448
X7.7928Y-5.1403
X7.7928Y-5.4503
X7.7953Y-2.0472
X7.7953Y-5.8268
X7.8109Y-2.4811
X7.8109Y-2.6764
X7.8109Y-3.3866
X7.8109Y-3.5819
X7.8109Y-4.2921
X7.8109Y-4.4874
X7.8109Y-5.1976
X7.8109Y-5.3929
X7.8207Y-2.5405
X7.8207Y-2.617
X7.8207Y-3.446
X7.8207Y-3.5225
X7.8207Y-4.3515
X7.8207Y-4.428
X7.8207Y-5.257
X7.8207Y-5.3335
X4.0354Y-5.1644
X4.0354Y-5.4262
X4.0354Y-2.4478
X4.0354Y-2.7096
X4.0354Y-3.3533
X4.0354Y-3.6152
X4.0354Y-4.2589
X4.0354Y-4.5207
T2
X5.4764Y-4.0945
X5.5041Y-4.0277
X5.5041Y-4.1613
X5.5709Y-4.0
X5.5709Y-4.189
X5.6377Y-4.0277
X5.6377Y-4.1613
X5.6654Y-4.0945
X4.1378Y-5.5906
X4.1655Y-5.5237
X4.1655Y-5.6574
X4.2323Y-5.4961
X4.2323Y-5.685
X4.2991Y-5.5237
X4.2991Y-5.6574
X4.3268Y-5.5906
X5.4764Y-2.874
X5.5041Y-2.8072
X5.5041Y-2.9408
X5.5709Y-2.7795
X5.5709Y-2.9685
X5.6377Y-2.8072
X5.6377Y-2.9408
X5.6654Y-2.874
X6.815Y-3.189
X6.8426Y-3.1222
X6.8426Y-3.2558
X6.9094Y-3.0945
X6.9094Y-3.2835
X6.9763Y-3.1222
X6.9763Y-3.2558
X7.0039Y-3.189
X4.1378Y-3.189
X4.1655Y-3.1222
X4.1655Y-3.2558
X4.2323Y-3.0945
X4.2323Y-3.2835
X4.2991Y-3.1222
X4.2991Y-3.2558
X4.3268Y-3.189
X5.4764Y-4.685
X5.5041Y-4.6182
X5.5041Y-4.7519
X5.5709Y-4.5906
X5.5709Y-4.7795
X5.6377Y-4.6182
X5.6377Y-4.7519
X5.6654Y-4.685
X4.1378Y-4.0945
X4.1655Y-4.0277
X4.1655Y-4.1613
X4.2323Y-4.0
X4.2323Y-4.189
X4.2991Y-4.0277
X4.2991Y-4.1613
X4.3268Y-4.0945
X5.4764Y-5.5906
X5.5041Y-5.5237
X5.5041Y-5.6574
X5.5709Y-5.4961
X5.5709Y-5.685
X5.6377Y-5.5237
X5.6377Y-5.6574
X5.6654Y-5.5906
X4.1378Y-2.874
X4.1655Y-2.8072
X4.1655Y-2.9408
X4.2323Y-2.7795
X4.2323Y-2.9685
X4.2991Y-2.8072
X4.2991Y-2.9408
X4.3268Y-2.874
X5.4764Y-5.0
X5.5041Y-4.9332
X5.5041Y-5.0668
X5.5709Y-4.9055
X5.5709Y-5.0945
X5.6377Y-4.9332
X5.6377Y-5.0668
X5.6654Y-5.0
X6.815Y-3.7795
X6.8426Y-3.7127
X6.8426Y-3.8463
X6.9094Y-3.685
X6.9094Y-3.874
X6.9763Y-3.7127
X6.9763Y-3.8463
X7.0039Y-3.7795
X6.815Y-2.874
X6.8426Y-2.8072
X6.8426Y-2.9408
X6.9094Y-2.7795
X6.9094Y-2.9685
X6.9763Y-2.8072
X6.9763Y-2.9408
X7.0039Y-2.874
X4.1378Y-3.7795
X4.1655Y-3.7127
X4.1655Y-3.8463
X4.2323Y-3.685
X4.2323Y-3.874
X4.2991Y-3.7127
X4.2991Y-3.8463
X4.3268Y-3.7795
X6.815Y-4.0945
X6.8426Y-4.0277
X6.8426Y-4.1613
X6.9094Y-4.0
X6.9094Y-4.189
X6.9763Y-4.0277
X6.9763Y-4.1613
X7.0039Y-4.0945
X6.815Y-5.0
X6.8426Y-4.9332
X6.8426Y-5.0668
X6.9094Y-4.9055
X6.9094Y-5.0945
X6.9763Y-4.9332
X6.9763Y-5.0668
X7.0039Y-5.0
X4.1378Y-2.2835
X4.1655Y-2.2167
X4.1655Y-2.3503
X4.2323Y-2.189
X4.2323Y-2.378
X4.2991Y-2.2167
X4.2991Y-2.3503
X4.3268Y-2.2835
X4.1378Y-5.0
X4.1655Y-4.9332
X4.1655Y-5.0668
X4.2323Y-4.9055
X4.2323Y-5.0945
X4.2991Y-4.9332
X4.2991Y-5.0668
X4.3268Y-5.0
X6.815Y-2.2835
X6.8426Y-2.2167
X6.8426Y-2.3503
X6.9094Y-2.189
X6.9094Y-2.378
X6.9763Y-2.2167
X6.9763Y-2.3503
X7.0039Y-2.2835
X5.4764Y-3.7795
X5.5041Y-3.7127
X5.5041Y-3.8463
X5.5709Y-3.685
X5.5709Y-3.874
X5.6377Y-3.7127
X5.6377Y-3.8463
X5.6654Y-3.7795
X6.815Y-4.685
X6.8426Y-4.6182
X6.8426Y-4.7519
X6.9094Y-4.5906
X6.9094Y-4.7795
X6.9763Y-4.6182
X6.9763Y-4.7519
X7.0039Y-4.685
X5.4764Y-3.189
X5.5041Y-3.1222
X5.5041Y-3.2558
X5.5709Y-3.0945
X5.5709Y-3.2835
X5.6377Y-3.1222
X5.6377Y-3.2558
X5.6654Y-3.189
X4.1378Y-4.685
X4.1655Y-4.6182
X4.1655Y-4.7519
X4.2323Y-4.5906
X4.2323Y-4.7795
X4.2991Y-4.6182
X4.2991Y-4.7519
X4.3268Y-4.685
X6.815Y-5.5906
X6.8426Y-5.5237
X6.8426Y-5.6574
X6.9094Y-5.4961
X6.9094Y-5.685
X6.9763Y-5.5237
X6.9763Y-5.6574
X7.0039Y-5.5906
X5.4764Y-2.2835
X5.5041Y-2.2167
X5.5041Y-2.3503
X5.5709Y-2.189
X5.5709Y-2.378
X5.6377Y-2.2167
X5.6377Y-2.3503
X5.6654Y-2.2835
T3
X4.2323Y-3.7795
X6.9094Y-4.0945
X6.9094Y-5.0
X4.2323Y-2.2835
X4.2323Y-5.0
X6.9094Y-2.2835
X5.5709Y-3.7795
X6.9094Y-4.685
X5.5709Y-3.189
X4.2323Y-4.685
X6.9094Y-5.5906
X5.5709Y-2.2835
X5.5709Y-4.0945
X4.2323Y-5.5906
X5.5709Y-2.874
X6.9094Y-3.189
X4.2323Y-3.189
X5.5709Y-4.685
X4.2323Y-4.0945
X5.5709Y-5.5906
X4.2323Y-2.874
X5.5709Y-5.0
X6.9094Y-3.7795
X6.9094Y-2.874
T0
M30
